G04 #@! TF.FileFunction,Soldermask,Bot*
%FSLAX46Y46*%
G04 Gerber Fmt 4.6, Leading zero omitted, Abs format (unit mm)*
G04 Created by KiCad (PCBNEW 0.201508090901+6074~28~ubuntu14.04.1-product) date Wed 12 Aug 2015 15:55:11 CEST*
%MOMM*%
G01*
G04 APERTURE LIST*
%ADD10C,0.100000*%
%ADD11C,1.699260*%
%ADD12R,1.699260X1.699260*%
%ADD13R,2.000000X2.000000*%
%ADD14C,2.000000*%
%ADD15R,1.600000X2.700000*%
%ADD16O,1.600000X2.700000*%
%ADD17R,2.286000X1.574800*%
%ADD18O,2.286000X1.574800*%
%ADD19C,1.524000*%
%ADD20C,2.700020*%
%ADD21R,1.727200X2.032000*%
%ADD22O,1.727200X2.032000*%
%ADD23C,1.998980*%
%ADD24O,1.501140X0.950000*%
G04 APERTURE END LIST*
D10*
D11*
X93980520Y-59687460D03*
D12*
X83820520Y-59687460D03*
D13*
X74930000Y-60960000D03*
D14*
X74930000Y-63500000D03*
X133350000Y-80010000D03*
X130810000Y-80010000D03*
X128270000Y-80010000D03*
D11*
X93980520Y-69847460D03*
D12*
X83820520Y-69847460D03*
D11*
X93980520Y-80007460D03*
D12*
X83820520Y-80007460D03*
D11*
X93980520Y-90167460D03*
D12*
X83820520Y-90167460D03*
D11*
X93980520Y-100327460D03*
D12*
X83820520Y-100327460D03*
D15*
X81280000Y-64770000D03*
D16*
X86360000Y-64770000D03*
X91440000Y-64770000D03*
X96520000Y-64770000D03*
D17*
X123190000Y-86360000D03*
D18*
X123190000Y-83820000D03*
X123190000Y-73660000D03*
X123190000Y-71120000D03*
X115570000Y-71120000D03*
X115570000Y-73660000D03*
X115570000Y-83820000D03*
X115570000Y-86360000D03*
D15*
X81280000Y-74930000D03*
D16*
X86360000Y-74930000D03*
X91440000Y-74930000D03*
X96520000Y-74930000D03*
D15*
X81280000Y-85090000D03*
D16*
X86360000Y-85090000D03*
X91440000Y-85090000D03*
X96520000Y-85090000D03*
D15*
X81280000Y-95250000D03*
D16*
X86360000Y-95250000D03*
X91440000Y-95250000D03*
X96520000Y-95250000D03*
D15*
X81280000Y-105410000D03*
D16*
X86360000Y-105410000D03*
X91440000Y-105410000D03*
X96520000Y-105410000D03*
D19*
X143510000Y-101600000D03*
X143510000Y-99060000D03*
X145508980Y-99060000D03*
X145508980Y-101600000D03*
D20*
X148209000Y-106329480D03*
X148209000Y-94330520D03*
D21*
X100330000Y-59690000D03*
D22*
X102870000Y-59690000D03*
X105410000Y-59690000D03*
D21*
X133350000Y-106680000D03*
D22*
X130810000Y-106680000D03*
X128270000Y-106680000D03*
X125730000Y-106680000D03*
X123190000Y-106680000D03*
X120650000Y-106680000D03*
D23*
X143510000Y-82550000D03*
X153670000Y-82550000D03*
D19*
X138430000Y-86360000D03*
X140970000Y-83820000D03*
X140970000Y-88900000D03*
D23*
X148590000Y-78740000D03*
X148590000Y-68580000D03*
X152400000Y-78740000D03*
X152400000Y-68580000D03*
X156210000Y-68580000D03*
X156210000Y-78740000D03*
X133350000Y-74930000D03*
X133350000Y-64770000D03*
X128270000Y-64770000D03*
X128270000Y-74930000D03*
X113030000Y-66040000D03*
X102870000Y-66040000D03*
X110490000Y-96520000D03*
X110490000Y-106680000D03*
X110490000Y-83820000D03*
X110490000Y-93980000D03*
X104140000Y-93472000D03*
X104140000Y-83312000D03*
X110490000Y-81280000D03*
X110490000Y-71120000D03*
X104140000Y-96520000D03*
X104140000Y-106680000D03*
X120904000Y-59690000D03*
X110744000Y-59690000D03*
X72390000Y-74930000D03*
X72390000Y-85090000D03*
X76200000Y-80010000D03*
X76200000Y-90170000D03*
X72390000Y-100330000D03*
X72390000Y-90170000D03*
X76200000Y-105410000D03*
X76200000Y-95250000D03*
D24*
X148590000Y-87630000D03*
X148590000Y-88900000D03*
X148590000Y-86360000D03*
M02*
