G04 #@! TF.FileFunction,Soldermask,Top*
%FSLAX46Y46*%
G04 Gerber Fmt 4.6, Leading zero omitted, Abs format (unit mm)*
G04 Created by KiCad (PCBNEW 0.201508090901+6074~28~ubuntu14.04.1-product) date Wed 12 Aug 2015 15:55:11 CEST*
%MOMM*%
G01*
G04 APERTURE LIST*
%ADD10C,0.100000*%
%ADD11R,1.800860X3.500120*%
%ADD12R,2.000000X1.600000*%
%ADD13R,1.600000X2.000000*%
%ADD14R,3.500120X1.800860*%
%ADD15C,1.699260*%
%ADD16R,1.699260X1.699260*%
%ADD17R,2.000000X2.000000*%
%ADD18C,2.000000*%
%ADD19R,1.600000X2.700000*%
%ADD20O,1.600000X2.700000*%
%ADD21R,2.286000X1.574800*%
%ADD22O,2.286000X1.574800*%
%ADD23C,1.524000*%
%ADD24C,2.700020*%
%ADD25R,1.727200X2.032000*%
%ADD26O,1.727200X2.032000*%
%ADD27C,1.998980*%
%ADD28R,1.700000X2.000000*%
%ADD29R,0.600000X1.550000*%
%ADD30R,1.550000X0.600000*%
%ADD31R,0.400000X1.100000*%
%ADD32R,0.600000X1.950000*%
%ADD33O,1.501140X0.950000*%
G04 APERTURE END LIST*
D10*
D11*
X157480000Y-89359740D03*
X157480000Y-83360260D03*
D12*
X106140000Y-69850000D03*
X102140000Y-69850000D03*
D13*
X138430000Y-106140000D03*
X138430000Y-102140000D03*
X138430000Y-94520000D03*
X138430000Y-98520000D03*
X143510000Y-60230000D03*
X143510000Y-64230000D03*
X138430000Y-64230000D03*
X138430000Y-60230000D03*
D12*
X138970000Y-68580000D03*
X142970000Y-68580000D03*
D14*
X126540260Y-59690000D03*
X132539740Y-59690000D03*
D13*
X144780000Y-72930000D03*
X144780000Y-76930000D03*
D15*
X93980520Y-59687460D03*
D16*
X83820520Y-59687460D03*
D17*
X74930000Y-60960000D03*
D18*
X74930000Y-63500000D03*
X133350000Y-80010000D03*
X130810000Y-80010000D03*
X128270000Y-80010000D03*
D15*
X93980520Y-69847460D03*
D16*
X83820520Y-69847460D03*
D15*
X93980520Y-80007460D03*
D16*
X83820520Y-80007460D03*
D15*
X93980520Y-90167460D03*
D16*
X83820520Y-90167460D03*
D15*
X93980520Y-100327460D03*
D16*
X83820520Y-100327460D03*
D19*
X81280000Y-64770000D03*
D20*
X86360000Y-64770000D03*
X91440000Y-64770000D03*
X96520000Y-64770000D03*
D21*
X123190000Y-86360000D03*
D22*
X123190000Y-83820000D03*
X123190000Y-73660000D03*
X123190000Y-71120000D03*
X115570000Y-71120000D03*
X115570000Y-73660000D03*
X115570000Y-83820000D03*
X115570000Y-86360000D03*
D19*
X81280000Y-74930000D03*
D20*
X86360000Y-74930000D03*
X91440000Y-74930000D03*
X96520000Y-74930000D03*
D19*
X81280000Y-85090000D03*
D20*
X86360000Y-85090000D03*
X91440000Y-85090000D03*
X96520000Y-85090000D03*
D19*
X81280000Y-95250000D03*
D20*
X86360000Y-95250000D03*
X91440000Y-95250000D03*
X96520000Y-95250000D03*
D19*
X81280000Y-105410000D03*
D20*
X86360000Y-105410000D03*
X91440000Y-105410000D03*
X96520000Y-105410000D03*
D23*
X143510000Y-101600000D03*
X143510000Y-99060000D03*
X145508980Y-99060000D03*
X145508980Y-101600000D03*
D24*
X148209000Y-106329480D03*
X148209000Y-94330520D03*
D25*
X100330000Y-59690000D03*
D26*
X102870000Y-59690000D03*
X105410000Y-59690000D03*
D25*
X133350000Y-106680000D03*
D26*
X130810000Y-106680000D03*
X128270000Y-106680000D03*
X125730000Y-106680000D03*
X123190000Y-106680000D03*
X120650000Y-106680000D03*
D27*
X143510000Y-82550000D03*
X153670000Y-82550000D03*
D23*
X138430000Y-86360000D03*
X140970000Y-83820000D03*
X140970000Y-88900000D03*
D27*
X148590000Y-78740000D03*
X148590000Y-68580000D03*
X152400000Y-78740000D03*
X152400000Y-68580000D03*
X156210000Y-68580000D03*
X156210000Y-78740000D03*
D28*
X114300000Y-106140000D03*
X114300000Y-102140000D03*
X118110000Y-102330000D03*
X118110000Y-98330000D03*
X153670000Y-64230000D03*
X153670000Y-60230000D03*
D27*
X133350000Y-74930000D03*
X133350000Y-64770000D03*
X128270000Y-64770000D03*
X128270000Y-74930000D03*
X113030000Y-66040000D03*
X102870000Y-66040000D03*
X110490000Y-96520000D03*
X110490000Y-106680000D03*
X110490000Y-83820000D03*
X110490000Y-93980000D03*
X104140000Y-93472000D03*
X104140000Y-83312000D03*
X110490000Y-81280000D03*
X110490000Y-71120000D03*
X104140000Y-96520000D03*
X104140000Y-106680000D03*
X120904000Y-59690000D03*
X110744000Y-59690000D03*
D28*
X76200000Y-67850000D03*
X76200000Y-71850000D03*
X133350000Y-84360000D03*
X133350000Y-88360000D03*
X128270000Y-84360000D03*
X128270000Y-88360000D03*
D27*
X72390000Y-74930000D03*
X72390000Y-85090000D03*
X76200000Y-80010000D03*
X76200000Y-90170000D03*
X72390000Y-100330000D03*
X72390000Y-90170000D03*
X76200000Y-105410000D03*
X76200000Y-95250000D03*
D29*
X137795000Y-77630000D03*
X139065000Y-77630000D03*
X140335000Y-77630000D03*
X141605000Y-77630000D03*
X141605000Y-72230000D03*
X140335000Y-72230000D03*
X139065000Y-72230000D03*
X137795000Y-72230000D03*
D30*
X116680000Y-62865000D03*
X116680000Y-64135000D03*
X116680000Y-65405000D03*
X116680000Y-66675000D03*
X122080000Y-66675000D03*
X122080000Y-65405000D03*
X122080000Y-64135000D03*
X122080000Y-62865000D03*
X101440000Y-74295000D03*
X101440000Y-75565000D03*
X101440000Y-76835000D03*
X101440000Y-78105000D03*
X106840000Y-78105000D03*
X106840000Y-76835000D03*
X106840000Y-75565000D03*
X106840000Y-74295000D03*
D31*
X147615000Y-64380000D03*
X148265000Y-64380000D03*
X148915000Y-64380000D03*
X149565000Y-64380000D03*
X149565000Y-60080000D03*
X148915000Y-60080000D03*
X148265000Y-60080000D03*
X147615000Y-60080000D03*
D32*
X133985000Y-93090000D03*
X132715000Y-93090000D03*
X131445000Y-93090000D03*
X130175000Y-93090000D03*
X128905000Y-93090000D03*
X127635000Y-93090000D03*
X126365000Y-93090000D03*
X125095000Y-93090000D03*
X123825000Y-93090000D03*
X122555000Y-93090000D03*
X122555000Y-102490000D03*
X123825000Y-102490000D03*
X125095000Y-102490000D03*
X126365000Y-102490000D03*
X127635000Y-102490000D03*
X128905000Y-102490000D03*
X130175000Y-102490000D03*
X131445000Y-102490000D03*
X132715000Y-102490000D03*
X133985000Y-102490000D03*
D30*
X114140000Y-90805000D03*
X114140000Y-92075000D03*
X114140000Y-93345000D03*
X114140000Y-94615000D03*
X119540000Y-94615000D03*
X119540000Y-93345000D03*
X119540000Y-92075000D03*
X119540000Y-90805000D03*
D33*
X148590000Y-87630000D03*
X148590000Y-88900000D03*
X148590000Y-86360000D03*
M02*
