M48
INCH,TZ
T1C0.016
T2C0.024
T3C0.028
T4C0.032
T5C0.039
T6C0.039
T7C0.040
T8C0.091
%
G90
G05
T1
X38850Y-32550
X45800Y-26750
X47750Y-35350
X48250Y-39650
X48300Y-24200
X49250Y-39650
X49650Y-37650
X50000Y-38000
X50400Y-38350
X50850Y-38700
X51000Y-24200
X51200Y-35850
X52650Y-38000
X55750Y-29750
X58600Y-25950
X58900Y-26250
T2
X58500Y-34000
X58500Y-34500
X58500Y-35000
T3
X33000Y-23499
X33000Y-27499
X33000Y-31499
X33000Y-35499
X33000Y-39499
X37000Y-23499
X37000Y-27499
X37000Y-31499
X37000Y-35499
X37000Y-39499
T4
X45500Y-28000
X45500Y-29000
X45500Y-33000
X45500Y-34000
X48500Y-28000
X48500Y-29000
X48500Y-33000
X48500Y-34000
X54500Y-34000
X55500Y-33000
X55500Y-35000
X56500Y-39000
X56500Y-40000
X57287Y-39000
X57287Y-40000
T5
X32000Y-25500
X32000Y-29500
X32000Y-33500
X32000Y-37500
X32000Y-41500
X34000Y-25500
X34000Y-29500
X34000Y-33500
X34000Y-37500
X34000Y-41500
X36000Y-25500
X36000Y-29500
X36000Y-33500
X36000Y-37500
X36000Y-41500
X38000Y-25500
X38000Y-29500
X38000Y-33500
X38000Y-37500
X38000Y-41500
T6
X28500Y-29500
X28500Y-33500
X28500Y-35500
X28500Y-39500
X29500Y-24000
X29500Y-25000
X30000Y-31500
X30000Y-35500
X30000Y-37500
X30000Y-41500
X40500Y-26000
X41000Y-32800
X41000Y-36800
X41000Y-38000
X41000Y-42000
X43500Y-28000
X43500Y-32000
X43500Y-33000
X43500Y-37000
X43500Y-38000
X43500Y-42000
X43600Y-23500
X44500Y-26000
X47600Y-23500
X50500Y-25500
X50500Y-29500
X50500Y-31500
X51500Y-31500
X52500Y-25500
X52500Y-29500
X52500Y-31500
X56500Y-32500
X58500Y-27000
X58500Y-31000
X60000Y-27000
X60000Y-31000
X60500Y-32500
X61500Y-27000
X61500Y-31000
T7
X39500Y-23500
X40500Y-23500
X41500Y-23500
X47500Y-42000
X48500Y-42000
X49500Y-42000
X50500Y-42000
X51500Y-42000
X52500Y-42000
T8
X58350Y-37138
X58350Y-41862
T0
M30
