G04 #@! TF.FileFunction,Copper,L1,Top,Signal*
%FSLAX46Y46*%
G04 Gerber Fmt 4.6, Leading zero omitted, Abs format (unit mm)*
G04 Created by KiCad (PCBNEW 0.201508090901+6074~28~ubuntu14.04.1-product) date Wed 12 Aug 2015 15:55:11 CEST*
%MOMM*%
G01*
G04 APERTURE LIST*
%ADD10C,0.100000*%
%ADD11R,1.800860X3.500120*%
%ADD12R,2.000000X1.600000*%
%ADD13R,1.600000X2.000000*%
%ADD14R,3.500120X1.800860*%
%ADD15C,1.699260*%
%ADD16R,1.699260X1.699260*%
%ADD17R,2.000000X2.000000*%
%ADD18C,2.000000*%
%ADD19R,1.600000X2.700000*%
%ADD20O,1.600000X2.700000*%
%ADD21R,2.286000X1.574800*%
%ADD22O,2.286000X1.574800*%
%ADD23C,1.524000*%
%ADD24C,2.700020*%
%ADD25R,1.727200X2.032000*%
%ADD26O,1.727200X2.032000*%
%ADD27C,1.998980*%
%ADD28R,1.700000X2.000000*%
%ADD29R,0.600000X1.550000*%
%ADD30R,1.550000X0.600000*%
%ADD31R,0.400000X1.100000*%
%ADD32R,0.600000X1.950000*%
%ADD33O,1.501140X0.950000*%
%ADD34C,0.700000*%
%ADD35C,0.400000*%
%ADD36C,0.250000*%
%ADD37C,0.254000*%
G04 APERTURE END LIST*
D10*
D11*
X157480000Y-89359740D03*
X157480000Y-83360260D03*
D12*
X106140000Y-69850000D03*
X102140000Y-69850000D03*
D13*
X138430000Y-106140000D03*
X138430000Y-102140000D03*
X138430000Y-94520000D03*
X138430000Y-98520000D03*
X143510000Y-60230000D03*
X143510000Y-64230000D03*
X138430000Y-64230000D03*
X138430000Y-60230000D03*
D12*
X138970000Y-68580000D03*
X142970000Y-68580000D03*
D14*
X126540260Y-59690000D03*
X132539740Y-59690000D03*
D13*
X144780000Y-72930000D03*
X144780000Y-76930000D03*
D15*
X93980520Y-59687460D03*
D16*
X83820520Y-59687460D03*
D17*
X74930000Y-60960000D03*
D18*
X74930000Y-63500000D03*
X133350000Y-80010000D03*
X130810000Y-80010000D03*
X128270000Y-80010000D03*
D15*
X93980520Y-69847460D03*
D16*
X83820520Y-69847460D03*
D15*
X93980520Y-80007460D03*
D16*
X83820520Y-80007460D03*
D15*
X93980520Y-90167460D03*
D16*
X83820520Y-90167460D03*
D15*
X93980520Y-100327460D03*
D16*
X83820520Y-100327460D03*
D19*
X81280000Y-64770000D03*
D20*
X86360000Y-64770000D03*
X91440000Y-64770000D03*
X96520000Y-64770000D03*
D21*
X123190000Y-86360000D03*
D22*
X123190000Y-83820000D03*
X123190000Y-73660000D03*
X123190000Y-71120000D03*
X115570000Y-71120000D03*
X115570000Y-73660000D03*
X115570000Y-83820000D03*
X115570000Y-86360000D03*
D19*
X81280000Y-74930000D03*
D20*
X86360000Y-74930000D03*
X91440000Y-74930000D03*
X96520000Y-74930000D03*
D19*
X81280000Y-85090000D03*
D20*
X86360000Y-85090000D03*
X91440000Y-85090000D03*
X96520000Y-85090000D03*
D19*
X81280000Y-95250000D03*
D20*
X86360000Y-95250000D03*
X91440000Y-95250000D03*
X96520000Y-95250000D03*
D19*
X81280000Y-105410000D03*
D20*
X86360000Y-105410000D03*
X91440000Y-105410000D03*
X96520000Y-105410000D03*
D23*
X143510000Y-101600000D03*
X143510000Y-99060000D03*
X145508980Y-99060000D03*
X145508980Y-101600000D03*
D24*
X148209000Y-106329480D03*
X148209000Y-94330520D03*
D25*
X100330000Y-59690000D03*
D26*
X102870000Y-59690000D03*
X105410000Y-59690000D03*
D25*
X133350000Y-106680000D03*
D26*
X130810000Y-106680000D03*
X128270000Y-106680000D03*
X125730000Y-106680000D03*
X123190000Y-106680000D03*
X120650000Y-106680000D03*
D27*
X143510000Y-82550000D03*
X153670000Y-82550000D03*
D23*
X138430000Y-86360000D03*
X140970000Y-83820000D03*
X140970000Y-88900000D03*
D27*
X148590000Y-78740000D03*
X148590000Y-68580000D03*
X152400000Y-78740000D03*
X152400000Y-68580000D03*
X156210000Y-68580000D03*
X156210000Y-78740000D03*
D28*
X114300000Y-106140000D03*
X114300000Y-102140000D03*
X118110000Y-102330000D03*
X118110000Y-98330000D03*
X153670000Y-64230000D03*
X153670000Y-60230000D03*
D27*
X133350000Y-74930000D03*
X133350000Y-64770000D03*
X128270000Y-64770000D03*
X128270000Y-74930000D03*
X113030000Y-66040000D03*
X102870000Y-66040000D03*
X110490000Y-96520000D03*
X110490000Y-106680000D03*
X110490000Y-83820000D03*
X110490000Y-93980000D03*
X104140000Y-93472000D03*
X104140000Y-83312000D03*
X110490000Y-81280000D03*
X110490000Y-71120000D03*
X104140000Y-96520000D03*
X104140000Y-106680000D03*
X120904000Y-59690000D03*
X110744000Y-59690000D03*
D28*
X76200000Y-67850000D03*
X76200000Y-71850000D03*
X133350000Y-84360000D03*
X133350000Y-88360000D03*
X128270000Y-84360000D03*
X128270000Y-88360000D03*
D27*
X72390000Y-74930000D03*
X72390000Y-85090000D03*
X76200000Y-80010000D03*
X76200000Y-90170000D03*
X72390000Y-100330000D03*
X72390000Y-90170000D03*
X76200000Y-105410000D03*
X76200000Y-95250000D03*
D29*
X137795000Y-77630000D03*
X139065000Y-77630000D03*
X140335000Y-77630000D03*
X141605000Y-77630000D03*
X141605000Y-72230000D03*
X140335000Y-72230000D03*
X139065000Y-72230000D03*
X137795000Y-72230000D03*
D30*
X116680000Y-62865000D03*
X116680000Y-64135000D03*
X116680000Y-65405000D03*
X116680000Y-66675000D03*
X122080000Y-66675000D03*
X122080000Y-65405000D03*
X122080000Y-64135000D03*
X122080000Y-62865000D03*
X101440000Y-74295000D03*
X101440000Y-75565000D03*
X101440000Y-76835000D03*
X101440000Y-78105000D03*
X106840000Y-78105000D03*
X106840000Y-76835000D03*
X106840000Y-75565000D03*
X106840000Y-74295000D03*
D31*
X147615000Y-64380000D03*
X148265000Y-64380000D03*
X148915000Y-64380000D03*
X149565000Y-64380000D03*
X149565000Y-60080000D03*
X148915000Y-60080000D03*
X148265000Y-60080000D03*
X147615000Y-60080000D03*
D32*
X133985000Y-93090000D03*
X132715000Y-93090000D03*
X131445000Y-93090000D03*
X130175000Y-93090000D03*
X128905000Y-93090000D03*
X127635000Y-93090000D03*
X126365000Y-93090000D03*
X125095000Y-93090000D03*
X123825000Y-93090000D03*
X122555000Y-93090000D03*
X122555000Y-102490000D03*
X123825000Y-102490000D03*
X125095000Y-102490000D03*
X126365000Y-102490000D03*
X127635000Y-102490000D03*
X128905000Y-102490000D03*
X130175000Y-102490000D03*
X131445000Y-102490000D03*
X132715000Y-102490000D03*
X133985000Y-102490000D03*
D30*
X114140000Y-90805000D03*
X114140000Y-92075000D03*
X114140000Y-93345000D03*
X114140000Y-94615000D03*
X119540000Y-94615000D03*
X119540000Y-93345000D03*
X119540000Y-92075000D03*
X119540000Y-90805000D03*
D33*
X148590000Y-87630000D03*
X148590000Y-88900000D03*
X148590000Y-86360000D03*
D34*
X141605000Y-75565000D03*
X121285000Y-89789000D03*
X116332000Y-67945000D03*
X129540000Y-61468000D03*
X122682000Y-61468000D03*
X130048000Y-91059000D03*
X126111000Y-95631000D03*
X127000000Y-96520000D03*
X128016000Y-97409000D03*
X129159000Y-98298000D03*
X98679000Y-82677000D03*
X133731000Y-96520000D03*
X149606000Y-66675000D03*
X125095000Y-100711000D03*
X148844000Y-65913000D03*
X122555000Y-100711000D03*
D35*
X93980520Y-59687460D02*
X93980520Y-59689480D01*
X93980520Y-59689480D02*
X91440000Y-62230000D01*
X91440000Y-62230000D02*
X91440000Y-64770000D01*
X141605000Y-77630000D02*
X141605000Y-75565000D01*
X119540000Y-93345000D02*
X120650000Y-93345000D01*
X121285000Y-92710000D02*
X121285000Y-89789000D01*
X120650000Y-93345000D02*
X121285000Y-92710000D01*
X116680000Y-66675000D02*
X116680000Y-67597000D01*
X116680000Y-67597000D02*
X116332000Y-67945000D01*
X102140000Y-69850000D02*
X100711000Y-69850000D01*
X100330000Y-78105000D02*
X101440000Y-78105000D01*
X99568000Y-77343000D02*
X100330000Y-78105000D01*
X99568000Y-70993000D02*
X99568000Y-77343000D01*
X100711000Y-69850000D02*
X99568000Y-70993000D01*
X123190000Y-73660000D02*
X124968000Y-73660000D01*
X126540260Y-62435740D02*
X126540260Y-59690000D01*
X125857000Y-63119000D02*
X126540260Y-62435740D01*
X125857000Y-72771000D02*
X125857000Y-63119000D01*
X124968000Y-73660000D02*
X125857000Y-72771000D01*
X140970000Y-88900000D02*
X148590000Y-88900000D01*
X144780000Y-76930000D02*
X143542000Y-76930000D01*
X143542000Y-76930000D02*
X142842000Y-77630000D01*
X142842000Y-77630000D02*
X141605000Y-77630000D01*
X93980520Y-80007460D02*
X100078540Y-80007460D01*
X101440000Y-78646000D02*
X101440000Y-78105000D01*
X100078540Y-80007460D02*
X101440000Y-78646000D01*
X140970000Y-88900000D02*
X139700000Y-88900000D01*
X138430000Y-90170000D02*
X138430000Y-94520000D01*
X139700000Y-88900000D02*
X138430000Y-90170000D01*
X157480000Y-89359740D02*
X157480000Y-92202000D01*
X155351480Y-94330520D02*
X148209000Y-94330520D01*
X157480000Y-92202000D02*
X155351480Y-94330520D01*
X138430000Y-60230000D02*
X143510000Y-60230000D01*
X147615000Y-60080000D02*
X143660000Y-60080000D01*
X143660000Y-60080000D02*
X143510000Y-60230000D01*
X147615000Y-61509000D02*
X147615000Y-61128000D01*
X156210000Y-68580000D02*
X154305000Y-66675000D01*
D36*
X147615000Y-61128000D02*
X147615000Y-60080000D01*
D35*
X148463000Y-62357000D02*
X147615000Y-61509000D01*
X150241000Y-62357000D02*
X148463000Y-62357000D01*
X151003000Y-63119000D02*
X150241000Y-62357000D01*
X151003000Y-65151000D02*
X151003000Y-63119000D01*
X152527000Y-66675000D02*
X151003000Y-65151000D01*
X154305000Y-66675000D02*
X152527000Y-66675000D01*
X138430000Y-102140000D02*
X136493000Y-102140000D01*
X136143000Y-102490000D02*
X133985000Y-102490000D01*
X136493000Y-102140000D02*
X136143000Y-102490000D01*
X145508980Y-99060000D02*
X145415000Y-99060000D01*
X145415000Y-99060000D02*
X144145000Y-100330000D01*
X144145000Y-100330000D02*
X142367000Y-100330000D01*
X142367000Y-100330000D02*
X140557000Y-102140000D01*
X140557000Y-102140000D02*
X138430000Y-102140000D01*
X122080000Y-62865000D02*
X120904000Y-62865000D01*
X138430000Y-65659000D02*
X138430000Y-64230000D01*
X137922000Y-66167000D02*
X138430000Y-65659000D01*
X135890000Y-66167000D02*
X137922000Y-66167000D01*
X134747000Y-67310000D02*
X135890000Y-66167000D01*
X131445000Y-67310000D02*
X134747000Y-67310000D01*
X130810000Y-66675000D02*
X131445000Y-67310000D01*
X130810000Y-62738000D02*
X130810000Y-66675000D01*
X129540000Y-61468000D02*
X130810000Y-62738000D01*
X120904000Y-61468000D02*
X122682000Y-61468000D01*
X120523000Y-61849000D02*
X120904000Y-61468000D01*
X120523000Y-62484000D02*
X120523000Y-61849000D01*
X120904000Y-62865000D02*
X120523000Y-62484000D01*
X149565000Y-60080000D02*
X149565000Y-58969000D01*
X149565000Y-58969000D02*
X149606000Y-58928000D01*
X148265000Y-60080000D02*
X148265000Y-58999000D01*
X148265000Y-58999000D02*
X148336000Y-58928000D01*
D36*
X153520000Y-60080000D02*
X153670000Y-60230000D01*
X138525000Y-106045000D02*
X138430000Y-106140000D01*
X130175000Y-102490000D02*
X130175000Y-100965000D01*
X132620000Y-98520000D02*
X138430000Y-98520000D01*
X130175000Y-100965000D02*
X132620000Y-98520000D01*
X148590000Y-68580000D02*
X152400000Y-68580000D01*
X147615000Y-64380000D02*
X147615000Y-65954000D01*
X148590000Y-66929000D02*
X148590000Y-68580000D01*
X147615000Y-65954000D02*
X148590000Y-66929000D01*
X143510000Y-64230000D02*
X145256000Y-64230000D01*
X145406000Y-64380000D02*
X147615000Y-64380000D01*
X145256000Y-64230000D02*
X145406000Y-64380000D01*
X138970000Y-68580000D02*
X138970000Y-70390000D01*
X139065000Y-70485000D02*
X139065000Y-72230000D01*
X138970000Y-70390000D02*
X139065000Y-70485000D01*
X133350000Y-74930000D02*
X134366000Y-73914000D01*
X139065000Y-73279000D02*
X139065000Y-72230000D01*
X138684000Y-73660000D02*
X139065000Y-73279000D01*
X134620000Y-73660000D02*
X138684000Y-73660000D01*
X134366000Y-73914000D02*
X134620000Y-73660000D01*
X140335000Y-72230000D02*
X140335000Y-70993000D01*
X142970000Y-69755000D02*
X142970000Y-68580000D01*
X142494000Y-70231000D02*
X142970000Y-69755000D01*
X141097000Y-70231000D02*
X142494000Y-70231000D01*
X140335000Y-70993000D02*
X141097000Y-70231000D01*
X128270000Y-74930000D02*
X129921000Y-76581000D01*
X140335000Y-73279000D02*
X140335000Y-72230000D01*
X139065000Y-74549000D02*
X140335000Y-73279000D01*
X136525000Y-74549000D02*
X139065000Y-74549000D01*
X134493000Y-76581000D02*
X136525000Y-74549000D01*
X129921000Y-76581000D02*
X134493000Y-76581000D01*
X133350000Y-64770000D02*
X133350000Y-60500260D01*
X133350000Y-60500260D02*
X132539740Y-59690000D01*
X131445000Y-91694000D02*
X131445000Y-93090000D01*
X130810000Y-91059000D02*
X131445000Y-91694000D01*
X130048000Y-91059000D02*
X130810000Y-91059000D01*
X76200000Y-71850000D02*
X77375000Y-71850000D01*
X79758540Y-59687460D02*
X83820520Y-59687460D01*
X78486000Y-60960000D02*
X79758540Y-59687460D01*
X78486000Y-70739000D02*
X78486000Y-60960000D01*
X77375000Y-71850000D02*
X78486000Y-70739000D01*
X86360000Y-64770000D02*
X86360000Y-65532000D01*
X83820520Y-59687460D02*
X83820520Y-60960520D01*
X83820520Y-60960520D02*
X84582000Y-61722000D01*
X84582000Y-61722000D02*
X85598000Y-61722000D01*
X85598000Y-61722000D02*
X86360000Y-62484000D01*
X86360000Y-62484000D02*
X86360000Y-64770000D01*
X74930000Y-63500000D02*
X74930000Y-65024000D01*
X76200000Y-66294000D02*
X76200000Y-67850000D01*
X74930000Y-65024000D02*
X76200000Y-66294000D01*
X133350000Y-84360000D02*
X133350000Y-80010000D01*
X128270000Y-84360000D02*
X128270000Y-80010000D01*
X124841000Y-96901000D02*
X126111000Y-95631000D01*
X124841000Y-98933000D02*
X124841000Y-96901000D01*
X126365000Y-100457000D02*
X124841000Y-98933000D01*
X126365000Y-100457000D02*
X126365000Y-102490000D01*
X86360000Y-72644000D02*
X86360000Y-74930000D01*
X83820520Y-69847460D02*
X83820520Y-71120520D01*
X85598000Y-71882000D02*
X86360000Y-72644000D01*
X84582000Y-71882000D02*
X85598000Y-71882000D01*
X83820520Y-71120520D02*
X84582000Y-71882000D01*
X126365000Y-94361000D02*
X126365000Y-93090000D01*
X127000000Y-94996000D02*
X126365000Y-94361000D01*
X127000000Y-96520000D02*
X127000000Y-94996000D01*
X83820520Y-80007460D02*
X83820520Y-81280520D01*
X86360000Y-82804000D02*
X86360000Y-85090000D01*
X85598000Y-82042000D02*
X86360000Y-82804000D01*
X84582000Y-82042000D02*
X85598000Y-82042000D01*
X83820520Y-81280520D02*
X84582000Y-82042000D01*
X128016000Y-97409000D02*
X128016000Y-94742000D01*
X127635000Y-94361000D02*
X127635000Y-93090000D01*
X128016000Y-94742000D02*
X127635000Y-94361000D01*
X128143000Y-97282000D02*
X128016000Y-97409000D01*
X83820520Y-90167460D02*
X83820520Y-91440520D01*
X86360000Y-92964000D02*
X86360000Y-95250000D01*
X85598000Y-92202000D02*
X86360000Y-92964000D01*
X84582000Y-92202000D02*
X85598000Y-92202000D01*
X83820520Y-91440520D02*
X84582000Y-92202000D01*
X128905000Y-94361000D02*
X128905000Y-93090000D01*
X129159000Y-94615000D02*
X128905000Y-94361000D01*
X129159000Y-98298000D02*
X129159000Y-94615000D01*
X83820520Y-100327460D02*
X83820520Y-101600520D01*
X86360000Y-103124000D02*
X86360000Y-105410000D01*
X85598000Y-102362000D02*
X86360000Y-103124000D01*
X84582000Y-102362000D02*
X85598000Y-102362000D01*
X83820520Y-101600520D02*
X84582000Y-102362000D01*
X101346000Y-81788000D02*
X102870000Y-80264000D01*
X81280000Y-66802000D02*
X82042000Y-67564000D01*
X82042000Y-67564000D02*
X82042000Y-71628000D01*
X82042000Y-71628000D02*
X84074000Y-73660000D01*
X84074000Y-73660000D02*
X84074000Y-76454000D01*
X84074000Y-76454000D02*
X89408000Y-81788000D01*
X89408000Y-81788000D02*
X101346000Y-81788000D01*
X81280000Y-64770000D02*
X81280000Y-66802000D01*
X102616000Y-76835000D02*
X101440000Y-76835000D01*
X102870000Y-77089000D02*
X102616000Y-76835000D01*
X102870000Y-80264000D02*
X102870000Y-77089000D01*
X110744000Y-59690000D02*
X110744000Y-61087000D01*
X115189000Y-62865000D02*
X116680000Y-62865000D01*
X114935000Y-62611000D02*
X115189000Y-62865000D01*
X112268000Y-62611000D02*
X114935000Y-62611000D01*
X110744000Y-61087000D02*
X112268000Y-62611000D01*
X128270000Y-88360000D02*
X126968000Y-88360000D01*
X125476000Y-83820000D02*
X123190000Y-83820000D01*
X126111000Y-84455000D02*
X125476000Y-83820000D01*
X126111000Y-87503000D02*
X126111000Y-84455000D01*
X126968000Y-88360000D02*
X126111000Y-87503000D01*
X128270000Y-88360000D02*
X128270000Y-89789000D01*
X132715000Y-91694000D02*
X132715000Y-93090000D01*
X131191000Y-90170000D02*
X132715000Y-91694000D01*
X128651000Y-90170000D02*
X131191000Y-90170000D01*
X128270000Y-89789000D02*
X128651000Y-90170000D01*
X122080000Y-64135000D02*
X121031000Y-64135000D01*
X117094000Y-86360000D02*
X115570000Y-86360000D01*
X118491000Y-84963000D02*
X118491000Y-68199000D01*
X117094000Y-86360000D02*
X118491000Y-84963000D01*
X118491000Y-66675000D02*
X118491000Y-68199000D01*
X121031000Y-64135000D02*
X118491000Y-66675000D01*
X77470000Y-90170000D02*
X76200000Y-90170000D01*
X79502000Y-88138000D02*
X77470000Y-90170000D01*
X87757000Y-88138000D02*
X79502000Y-88138000D01*
X89154000Y-86741000D02*
X87757000Y-88138000D01*
X89154000Y-83947000D02*
X89154000Y-86741000D01*
X90424000Y-82677000D02*
X89154000Y-83947000D01*
X98679000Y-82677000D02*
X90424000Y-82677000D01*
X72390000Y-85090000D02*
X72390000Y-90170000D01*
X72390000Y-90170000D02*
X76200000Y-90170000D01*
X76200000Y-90170000D02*
X76200000Y-95250000D01*
X119540000Y-92075000D02*
X118491000Y-92075000D01*
X115570000Y-89154000D02*
X115570000Y-86360000D01*
X118491000Y-92075000D02*
X115570000Y-89154000D01*
X72390000Y-74930000D02*
X81280000Y-74930000D01*
X122080000Y-65405000D02*
X123190000Y-65405000D01*
X102870000Y-58293000D02*
X103378000Y-57785000D01*
X103378000Y-57785000D02*
X121793000Y-57785000D01*
X121793000Y-57785000D02*
X122809000Y-58801000D01*
X102870000Y-58293000D02*
X102870000Y-59690000D01*
X123825000Y-59817000D02*
X122809000Y-58801000D01*
X123825000Y-64770000D02*
X123825000Y-59817000D01*
X123190000Y-65405000D02*
X123825000Y-64770000D01*
X96520000Y-95250000D02*
X96520000Y-105410000D01*
X96520000Y-85090000D02*
X96520000Y-95250000D01*
X76200000Y-80010000D02*
X77724000Y-80010000D01*
X79883000Y-85090000D02*
X81280000Y-85090000D01*
X78867000Y-84074000D02*
X79883000Y-85090000D01*
X78867000Y-81153000D02*
X78867000Y-84074000D01*
X77724000Y-80010000D02*
X78867000Y-81153000D01*
X72390000Y-100330000D02*
X74549000Y-100330000D01*
X79629000Y-95250000D02*
X81280000Y-95250000D01*
X74549000Y-100330000D02*
X79629000Y-95250000D01*
X81280000Y-105410000D02*
X76200000Y-105410000D01*
X143510000Y-101600000D02*
X143510000Y-101473000D01*
X143700500Y-101663500D02*
X144907000Y-100457000D01*
X144907000Y-100457000D02*
X146558000Y-100457000D01*
X146558000Y-100457000D02*
X146939000Y-100838000D01*
X146939000Y-100838000D02*
X146939000Y-102235000D01*
X146939000Y-102235000D02*
X144399000Y-104775000D01*
X144399000Y-104775000D02*
X141097000Y-104775000D01*
X141097000Y-104775000D02*
X140843000Y-104521000D01*
X140843000Y-104521000D02*
X135509000Y-104521000D01*
X135509000Y-104521000D02*
X135382000Y-104648000D01*
X135382000Y-104648000D02*
X132080000Y-104648000D01*
X132080000Y-104648000D02*
X131445000Y-104013000D01*
X131445000Y-104013000D02*
X131445000Y-102490000D01*
X132969000Y-104013000D02*
X135128000Y-104013000D01*
X132715000Y-103759000D02*
X132969000Y-104013000D01*
X132715000Y-102490000D02*
X132715000Y-103759000D01*
X143891000Y-103759000D02*
X145508980Y-102141020D01*
X135382000Y-103759000D02*
X143891000Y-103759000D01*
X135128000Y-104013000D02*
X135382000Y-103759000D01*
X145508980Y-102141020D02*
X145508980Y-101600000D01*
X105410000Y-59690000D02*
X107569000Y-59690000D01*
X107950000Y-78105000D02*
X106840000Y-78105000D01*
X108458000Y-77597000D02*
X107950000Y-78105000D01*
X108458000Y-60579000D02*
X108458000Y-77597000D01*
X107569000Y-59690000D02*
X108458000Y-60579000D01*
X130175000Y-94361000D02*
X130175000Y-93090000D01*
X131318000Y-95504000D02*
X130175000Y-94361000D01*
X132715000Y-95504000D02*
X131318000Y-95504000D01*
X133731000Y-96520000D02*
X132715000Y-95504000D01*
X125730000Y-106680000D02*
X125730000Y-105283000D01*
X128905000Y-103759000D02*
X128905000Y-102490000D01*
X127762000Y-104902000D02*
X128905000Y-103759000D01*
X126111000Y-104902000D02*
X127762000Y-104902000D01*
X125730000Y-105283000D02*
X126111000Y-104902000D01*
X123190000Y-106680000D02*
X123190000Y-105283000D01*
X127635000Y-103759000D02*
X127635000Y-102490000D01*
X127127000Y-104267000D02*
X127635000Y-103759000D01*
X125603000Y-104267000D02*
X127127000Y-104267000D01*
X124968000Y-104902000D02*
X125603000Y-104267000D01*
X123571000Y-104902000D02*
X124968000Y-104902000D01*
X123190000Y-105283000D02*
X123571000Y-104902000D01*
X148590000Y-78740000D02*
X148590000Y-86360000D01*
X148590000Y-86360000D02*
X147320000Y-86360000D01*
X147320000Y-86360000D02*
X143510000Y-82550000D01*
X140970000Y-83820000D02*
X142240000Y-83820000D01*
X142240000Y-83820000D02*
X143510000Y-82550000D01*
X138430000Y-86360000D02*
X142367000Y-86360000D01*
X143637000Y-87630000D02*
X148590000Y-87630000D01*
X142367000Y-86360000D02*
X143637000Y-87630000D01*
X147701000Y-77089000D02*
X147447000Y-77089000D01*
X140335000Y-78740000D02*
X140716000Y-79121000D01*
X140716000Y-79121000D02*
X145669000Y-79121000D01*
X147701000Y-77089000D02*
X150749000Y-77089000D01*
X152400000Y-78740000D02*
X150749000Y-77089000D01*
X140335000Y-78740000D02*
X140335000Y-77630000D01*
X146304000Y-79121000D02*
X145669000Y-79121000D01*
X146812000Y-78613000D02*
X146304000Y-79121000D01*
X146812000Y-77724000D02*
X146812000Y-78613000D01*
X147447000Y-77089000D02*
X146812000Y-77724000D01*
X125095000Y-102490000D02*
X125095000Y-100711000D01*
X149565000Y-65237000D02*
X149565000Y-64380000D01*
X149606000Y-65278000D02*
X149565000Y-65237000D01*
X149606000Y-66675000D02*
X149606000Y-65278000D01*
X114300000Y-102140000D02*
X115538000Y-102140000D01*
X125095000Y-103632000D02*
X125095000Y-102490000D01*
X124587000Y-104140000D02*
X125095000Y-103632000D01*
X123317000Y-104140000D02*
X124587000Y-104140000D01*
X122809000Y-104648000D02*
X123317000Y-104140000D01*
X120904000Y-104648000D02*
X122809000Y-104648000D01*
X120142000Y-103886000D02*
X120904000Y-104648000D01*
X120142000Y-100838000D02*
X120142000Y-103886000D01*
X119634000Y-100330000D02*
X120142000Y-100838000D01*
X116586000Y-100330000D02*
X119634000Y-100330000D01*
X116078000Y-100838000D02*
X116586000Y-100330000D01*
X116078000Y-101600000D02*
X116078000Y-100838000D01*
X115538000Y-102140000D02*
X116078000Y-101600000D01*
X114140000Y-94615000D02*
X114140000Y-101980000D01*
X114140000Y-101980000D02*
X114300000Y-102140000D01*
X122555000Y-102490000D02*
X122555000Y-100711000D01*
X148915000Y-65080000D02*
X148915000Y-64380000D01*
X148844000Y-65151000D02*
X148915000Y-65080000D01*
X148844000Y-65913000D02*
X148844000Y-65151000D01*
X118110000Y-98330000D02*
X118110000Y-97028000D01*
X119540000Y-95598000D02*
X119540000Y-94615000D01*
X118618000Y-96520000D02*
X119540000Y-95598000D01*
X118618000Y-96520000D02*
X118618000Y-96520000D01*
X118110000Y-97028000D02*
X118618000Y-96520000D01*
X122555000Y-102490000D02*
X122555000Y-103759000D01*
X120428000Y-98330000D02*
X118110000Y-98330000D01*
X121031000Y-98933000D02*
X120428000Y-98330000D01*
X121031000Y-103632000D02*
X121031000Y-98933000D01*
X121412000Y-104013000D02*
X121031000Y-103632000D01*
X122301000Y-104013000D02*
X121412000Y-104013000D01*
X122555000Y-103759000D02*
X122301000Y-104013000D01*
X141605000Y-72230000D02*
X141605000Y-71247000D01*
X155289000Y-64230000D02*
X153670000Y-64230000D01*
X157988000Y-66929000D02*
X155289000Y-64230000D01*
X157988000Y-69977000D02*
X157988000Y-66929000D01*
X157099000Y-70866000D02*
X157988000Y-69977000D01*
X141986000Y-70866000D02*
X157099000Y-70866000D01*
X141605000Y-71247000D02*
X141986000Y-70866000D01*
X153670000Y-64230000D02*
X152495000Y-64230000D01*
X148915000Y-60904000D02*
X148915000Y-60080000D01*
X149225000Y-61214000D02*
X148915000Y-60904000D01*
X151130000Y-61214000D02*
X149225000Y-61214000D01*
X151892000Y-61976000D02*
X151130000Y-61214000D01*
X151892000Y-63627000D02*
X151892000Y-61976000D01*
X152495000Y-64230000D02*
X151892000Y-63627000D01*
X113030000Y-66040000D02*
X113030000Y-87630000D01*
X114140000Y-88740000D02*
X114140000Y-90805000D01*
X113030000Y-87630000D02*
X114140000Y-88740000D01*
X114140000Y-90805000D02*
X110363000Y-90805000D01*
X108458000Y-104648000D02*
X110490000Y-106680000D01*
X108458000Y-92710000D02*
X108458000Y-104648000D01*
X110363000Y-90805000D02*
X108458000Y-92710000D01*
X102489000Y-74295000D02*
X103632000Y-75438000D01*
X104140000Y-82042000D02*
X104140000Y-83312000D01*
X103632000Y-81534000D02*
X104140000Y-82042000D01*
X103632000Y-75438000D02*
X103632000Y-81534000D01*
X101440000Y-74295000D02*
X101440000Y-75565000D01*
X101440000Y-74295000D02*
X102489000Y-74295000D01*
X104140000Y-67310000D02*
X102870000Y-66040000D01*
X104140000Y-72644000D02*
X104140000Y-67310000D01*
X102489000Y-74295000D02*
X104140000Y-72644000D01*
X110490000Y-96520000D02*
X110490000Y-93980000D01*
X110490000Y-93980000D02*
X112395000Y-92075000D01*
X112395000Y-92075000D02*
X114140000Y-92075000D01*
X110490000Y-81280000D02*
X110490000Y-83820000D01*
X106840000Y-76835000D02*
X105664000Y-76835000D01*
X107061000Y-81280000D02*
X110490000Y-81280000D01*
X105410000Y-79629000D02*
X107061000Y-81280000D01*
X105410000Y-77089000D02*
X105410000Y-79629000D01*
X105664000Y-76835000D02*
X105410000Y-77089000D01*
X106840000Y-76835000D02*
X106840000Y-75565000D01*
X104140000Y-93472000D02*
X105791000Y-93472000D01*
X115316000Y-65405000D02*
X114300000Y-64389000D01*
X114300000Y-64389000D02*
X112268000Y-64389000D01*
X112268000Y-64389000D02*
X111379000Y-65278000D01*
X111379000Y-65278000D02*
X111379000Y-69342000D01*
X111379000Y-69342000D02*
X112268000Y-70231000D01*
X112268000Y-70231000D02*
X112268000Y-86995000D01*
X112268000Y-86995000D02*
X106553000Y-92710000D01*
X115316000Y-65405000D02*
X116680000Y-65405000D01*
X105791000Y-93472000D02*
X106553000Y-92710000D01*
X104140000Y-93472000D02*
X104140000Y-96520000D01*
X116680000Y-64135000D02*
X117729000Y-64135000D01*
X118618000Y-61976000D02*
X120904000Y-59690000D01*
X118618000Y-63246000D02*
X118618000Y-61976000D01*
X117729000Y-64135000D02*
X118618000Y-63246000D01*
X111760000Y-63754000D02*
X112014000Y-63500000D01*
X111760000Y-63754000D02*
X110490000Y-65024000D01*
X110490000Y-71120000D02*
X110490000Y-65024000D01*
X115316000Y-64135000D02*
X116680000Y-64135000D01*
X114681000Y-63500000D02*
X115316000Y-64135000D01*
X112014000Y-63500000D02*
X114681000Y-63500000D01*
X111125000Y-71120000D02*
X110490000Y-71120000D01*
X119540000Y-78834000D02*
X121031000Y-77343000D01*
X121031000Y-77343000D02*
X136652000Y-77343000D01*
X136939000Y-77630000D02*
X137795000Y-77630000D01*
X136652000Y-77343000D02*
X136939000Y-77630000D01*
X122080000Y-66675000D02*
X121031000Y-66675000D01*
X119540000Y-68166000D02*
X119540000Y-78834000D01*
X121031000Y-66675000D02*
X119540000Y-68166000D01*
X139065000Y-77630000D02*
X137795000Y-77630000D01*
X119540000Y-90805000D02*
X119540000Y-78834000D01*
D37*
G36*
X160605000Y-110059000D02*
X69265000Y-110059000D01*
X69265000Y-105733694D01*
X74565226Y-105733694D01*
X74813538Y-106334655D01*
X75272927Y-106794846D01*
X75873453Y-107044206D01*
X76523694Y-107044774D01*
X77124655Y-106796462D01*
X77584846Y-106337073D01*
X77654221Y-106170000D01*
X79832560Y-106170000D01*
X79832560Y-106760000D01*
X79876838Y-106995317D01*
X80015910Y-107211441D01*
X80228110Y-107356431D01*
X80480000Y-107407440D01*
X82080000Y-107407440D01*
X82315317Y-107363162D01*
X82531441Y-107224090D01*
X82676431Y-107011890D01*
X82727440Y-106760000D01*
X82727440Y-104060000D01*
X82683162Y-103824683D01*
X82544090Y-103608559D01*
X82331890Y-103463569D01*
X82080000Y-103412560D01*
X80480000Y-103412560D01*
X80244683Y-103456838D01*
X80028559Y-103595910D01*
X79883569Y-103808110D01*
X79832560Y-104060000D01*
X79832560Y-104650000D01*
X77654496Y-104650000D01*
X77586462Y-104485345D01*
X77127073Y-104025154D01*
X76526547Y-103775794D01*
X75876306Y-103775226D01*
X75275345Y-104023538D01*
X74815154Y-104482927D01*
X74565794Y-105083453D01*
X74565226Y-105733694D01*
X69265000Y-105733694D01*
X69265000Y-100653694D01*
X70755226Y-100653694D01*
X71003538Y-101254655D01*
X71462927Y-101714846D01*
X72063453Y-101964206D01*
X72713694Y-101964774D01*
X73314655Y-101716462D01*
X73774846Y-101257073D01*
X73844221Y-101090000D01*
X74549000Y-101090000D01*
X74839839Y-101032148D01*
X75086401Y-100867401D01*
X76475972Y-99477830D01*
X82323450Y-99477830D01*
X82323450Y-101177090D01*
X82367728Y-101412407D01*
X82506800Y-101628531D01*
X82719000Y-101773521D01*
X82970890Y-101824530D01*
X83105079Y-101824530D01*
X83118372Y-101891359D01*
X83283119Y-102137921D01*
X84044599Y-102899401D01*
X84291160Y-103064148D01*
X84582000Y-103122000D01*
X85283198Y-103122000D01*
X85600000Y-103438802D01*
X85600000Y-103636230D01*
X85345302Y-103806414D01*
X85034233Y-104271961D01*
X84925000Y-104821112D01*
X84925000Y-105998888D01*
X85034233Y-106548039D01*
X85345302Y-107013586D01*
X85810849Y-107324655D01*
X86360000Y-107433888D01*
X86909151Y-107324655D01*
X87374698Y-107013586D01*
X87685767Y-106548039D01*
X87795000Y-105998888D01*
X87795000Y-104821112D01*
X90005000Y-104821112D01*
X90005000Y-105998888D01*
X90114233Y-106548039D01*
X90425302Y-107013586D01*
X90890849Y-107324655D01*
X91440000Y-107433888D01*
X91989151Y-107324655D01*
X92454698Y-107013586D01*
X92765767Y-106548039D01*
X92875000Y-105998888D01*
X92875000Y-104821112D01*
X92765767Y-104271961D01*
X92454698Y-103806414D01*
X91989151Y-103495345D01*
X91440000Y-103386112D01*
X90890849Y-103495345D01*
X90425302Y-103806414D01*
X90114233Y-104271961D01*
X90005000Y-104821112D01*
X87795000Y-104821112D01*
X87685767Y-104271961D01*
X87374698Y-103806414D01*
X87120000Y-103636230D01*
X87120000Y-103124000D01*
X87062148Y-102833161D01*
X86897401Y-102586599D01*
X86135401Y-101824599D01*
X85888839Y-101659852D01*
X85598000Y-101602000D01*
X85148362Y-101602000D01*
X85266581Y-101428980D01*
X85317590Y-101177090D01*
X85317590Y-100621476D01*
X92495632Y-100621476D01*
X92721178Y-101167337D01*
X93138446Y-101585334D01*
X93683913Y-101811832D01*
X94274536Y-101812348D01*
X94820397Y-101586802D01*
X95238394Y-101169534D01*
X95464892Y-100624067D01*
X95465408Y-100033444D01*
X95239862Y-99487583D01*
X94822594Y-99069586D01*
X94277127Y-98843088D01*
X93686504Y-98842572D01*
X93140643Y-99068118D01*
X92722646Y-99485386D01*
X92496148Y-100030853D01*
X92495632Y-100621476D01*
X85317590Y-100621476D01*
X85317590Y-99477830D01*
X85273312Y-99242513D01*
X85134240Y-99026389D01*
X84922040Y-98881399D01*
X84670150Y-98830390D01*
X82970890Y-98830390D01*
X82735573Y-98874668D01*
X82519449Y-99013740D01*
X82374459Y-99225940D01*
X82323450Y-99477830D01*
X76475972Y-99477830D01*
X79832560Y-96121242D01*
X79832560Y-96600000D01*
X79876838Y-96835317D01*
X80015910Y-97051441D01*
X80228110Y-97196431D01*
X80480000Y-97247440D01*
X82080000Y-97247440D01*
X82315317Y-97203162D01*
X82531441Y-97064090D01*
X82676431Y-96851890D01*
X82727440Y-96600000D01*
X82727440Y-93900000D01*
X82683162Y-93664683D01*
X82544090Y-93448559D01*
X82331890Y-93303569D01*
X82080000Y-93252560D01*
X80480000Y-93252560D01*
X80244683Y-93296838D01*
X80028559Y-93435910D01*
X79883569Y-93648110D01*
X79832560Y-93900000D01*
X79832560Y-94490000D01*
X79629000Y-94490000D01*
X79338161Y-94547852D01*
X79091599Y-94712599D01*
X74234198Y-99570000D01*
X73844496Y-99570000D01*
X73776462Y-99405345D01*
X73317073Y-98945154D01*
X72716547Y-98695794D01*
X72066306Y-98695226D01*
X71465345Y-98943538D01*
X71005154Y-99402927D01*
X70755794Y-100003453D01*
X70755226Y-100653694D01*
X69265000Y-100653694D01*
X69265000Y-80333694D01*
X74565226Y-80333694D01*
X74813538Y-80934655D01*
X75272927Y-81394846D01*
X75873453Y-81644206D01*
X76523694Y-81644774D01*
X77124655Y-81396462D01*
X77580555Y-80941357D01*
X78107000Y-81467802D01*
X78107000Y-84074000D01*
X78164852Y-84364839D01*
X78329599Y-84611401D01*
X79345599Y-85627401D01*
X79592161Y-85792148D01*
X79832560Y-85839967D01*
X79832560Y-86440000D01*
X79876838Y-86675317D01*
X80015910Y-86891441D01*
X80228110Y-87036431D01*
X80480000Y-87087440D01*
X82080000Y-87087440D01*
X82315317Y-87043162D01*
X82531441Y-86904090D01*
X82676431Y-86691890D01*
X82727440Y-86440000D01*
X82727440Y-83740000D01*
X82683162Y-83504683D01*
X82544090Y-83288559D01*
X82331890Y-83143569D01*
X82080000Y-83092560D01*
X80480000Y-83092560D01*
X80244683Y-83136838D01*
X80028559Y-83275910D01*
X79883569Y-83488110D01*
X79832560Y-83740000D01*
X79832560Y-83964758D01*
X79627000Y-83759198D01*
X79627000Y-81153000D01*
X79569148Y-80862161D01*
X79404401Y-80615599D01*
X78261401Y-79472599D01*
X78014839Y-79307852D01*
X77724000Y-79250000D01*
X77654496Y-79250000D01*
X77616413Y-79157830D01*
X82323450Y-79157830D01*
X82323450Y-80857090D01*
X82367728Y-81092407D01*
X82506800Y-81308531D01*
X82719000Y-81453521D01*
X82970890Y-81504530D01*
X83105079Y-81504530D01*
X83118372Y-81571359D01*
X83283119Y-81817921D01*
X84044599Y-82579401D01*
X84291160Y-82744148D01*
X84582000Y-82802000D01*
X85283198Y-82802000D01*
X85600000Y-83118802D01*
X85600000Y-83316230D01*
X85345302Y-83486414D01*
X85034233Y-83951961D01*
X84925000Y-84501112D01*
X84925000Y-85678888D01*
X85034233Y-86228039D01*
X85345302Y-86693586D01*
X85810849Y-87004655D01*
X86360000Y-87113888D01*
X86909151Y-87004655D01*
X87374698Y-86693586D01*
X87685767Y-86228039D01*
X87795000Y-85678888D01*
X87795000Y-84501112D01*
X87685767Y-83951961D01*
X87374698Y-83486414D01*
X87120000Y-83316230D01*
X87120000Y-82804000D01*
X87062148Y-82513161D01*
X86897401Y-82266599D01*
X86135401Y-81504599D01*
X85888839Y-81339852D01*
X85598000Y-81282000D01*
X85148362Y-81282000D01*
X85266581Y-81108980D01*
X85317590Y-80857090D01*
X85317590Y-79157830D01*
X85273312Y-78922513D01*
X85134240Y-78706389D01*
X84922040Y-78561399D01*
X84670150Y-78510390D01*
X82970890Y-78510390D01*
X82735573Y-78554668D01*
X82519449Y-78693740D01*
X82374459Y-78905940D01*
X82323450Y-79157830D01*
X77616413Y-79157830D01*
X77586462Y-79085345D01*
X77127073Y-78625154D01*
X76526547Y-78375794D01*
X75876306Y-78375226D01*
X75275345Y-78623538D01*
X74815154Y-79082927D01*
X74565794Y-79683453D01*
X74565226Y-80333694D01*
X69265000Y-80333694D01*
X69265000Y-75253694D01*
X70755226Y-75253694D01*
X71003538Y-75854655D01*
X71462927Y-76314846D01*
X72063453Y-76564206D01*
X72713694Y-76564774D01*
X73314655Y-76316462D01*
X73774846Y-75857073D01*
X73844221Y-75690000D01*
X79832560Y-75690000D01*
X79832560Y-76280000D01*
X79876838Y-76515317D01*
X80015910Y-76731441D01*
X80228110Y-76876431D01*
X80480000Y-76927440D01*
X82080000Y-76927440D01*
X82315317Y-76883162D01*
X82531441Y-76744090D01*
X82676431Y-76531890D01*
X82727440Y-76280000D01*
X82727440Y-73580000D01*
X82683162Y-73344683D01*
X82681864Y-73342666D01*
X83314000Y-73974802D01*
X83314000Y-76454000D01*
X83371852Y-76744839D01*
X83536599Y-76991401D01*
X88870599Y-82325401D01*
X89117161Y-82490148D01*
X89408000Y-82548000D01*
X89478198Y-82548000D01*
X88616599Y-83409599D01*
X88451852Y-83656161D01*
X88394000Y-83947000D01*
X88394000Y-86426198D01*
X87442198Y-87378000D01*
X79502000Y-87378000D01*
X79211161Y-87435852D01*
X78964599Y-87600599D01*
X77453274Y-89111924D01*
X77127073Y-88785154D01*
X76526547Y-88535794D01*
X75876306Y-88535226D01*
X75275345Y-88783538D01*
X74815154Y-89242927D01*
X74745779Y-89410000D01*
X73844496Y-89410000D01*
X73776462Y-89245345D01*
X73317073Y-88785154D01*
X73150000Y-88715779D01*
X73150000Y-86544496D01*
X73314655Y-86476462D01*
X73774846Y-86017073D01*
X74024206Y-85416547D01*
X74024774Y-84766306D01*
X73776462Y-84165345D01*
X73317073Y-83705154D01*
X72716547Y-83455794D01*
X72066306Y-83455226D01*
X71465345Y-83703538D01*
X71005154Y-84162927D01*
X70755794Y-84763453D01*
X70755226Y-85413694D01*
X71003538Y-86014655D01*
X71462927Y-86474846D01*
X71630000Y-86544221D01*
X71630000Y-88715504D01*
X71465345Y-88783538D01*
X71005154Y-89242927D01*
X70755794Y-89843453D01*
X70755226Y-90493694D01*
X71003538Y-91094655D01*
X71462927Y-91554846D01*
X72063453Y-91804206D01*
X72713694Y-91804774D01*
X73314655Y-91556462D01*
X73774846Y-91097073D01*
X73844221Y-90930000D01*
X74745504Y-90930000D01*
X74813538Y-91094655D01*
X75272927Y-91554846D01*
X75440000Y-91624221D01*
X75440000Y-93795504D01*
X75275345Y-93863538D01*
X74815154Y-94322927D01*
X74565794Y-94923453D01*
X74565226Y-95573694D01*
X74813538Y-96174655D01*
X75272927Y-96634846D01*
X75873453Y-96884206D01*
X76523694Y-96884774D01*
X77124655Y-96636462D01*
X77584846Y-96177073D01*
X77834206Y-95576547D01*
X77834774Y-94926306D01*
X77586462Y-94325345D01*
X77127073Y-93865154D01*
X76960000Y-93795779D01*
X76960000Y-91624496D01*
X77124655Y-91556462D01*
X77584846Y-91097073D01*
X77670807Y-90890057D01*
X77760839Y-90872148D01*
X78007401Y-90707401D01*
X79816802Y-88898000D01*
X82489207Y-88898000D01*
X82374459Y-89065940D01*
X82323450Y-89317830D01*
X82323450Y-91017090D01*
X82367728Y-91252407D01*
X82506800Y-91468531D01*
X82719000Y-91613521D01*
X82970890Y-91664530D01*
X83105079Y-91664530D01*
X83118372Y-91731359D01*
X83283119Y-91977921D01*
X84044599Y-92739401D01*
X84291160Y-92904148D01*
X84582000Y-92962000D01*
X85283198Y-92962000D01*
X85600000Y-93278802D01*
X85600000Y-93476230D01*
X85345302Y-93646414D01*
X85034233Y-94111961D01*
X84925000Y-94661112D01*
X84925000Y-95838888D01*
X85034233Y-96388039D01*
X85345302Y-96853586D01*
X85810849Y-97164655D01*
X86360000Y-97273888D01*
X86909151Y-97164655D01*
X87374698Y-96853586D01*
X87685767Y-96388039D01*
X87795000Y-95838888D01*
X87795000Y-94661112D01*
X90005000Y-94661112D01*
X90005000Y-95838888D01*
X90114233Y-96388039D01*
X90425302Y-96853586D01*
X90890849Y-97164655D01*
X91440000Y-97273888D01*
X91989151Y-97164655D01*
X92454698Y-96853586D01*
X92765767Y-96388039D01*
X92875000Y-95838888D01*
X92875000Y-94661112D01*
X92765767Y-94111961D01*
X92454698Y-93646414D01*
X91989151Y-93335345D01*
X91440000Y-93226112D01*
X90890849Y-93335345D01*
X90425302Y-93646414D01*
X90114233Y-94111961D01*
X90005000Y-94661112D01*
X87795000Y-94661112D01*
X87685767Y-94111961D01*
X87374698Y-93646414D01*
X87120000Y-93476230D01*
X87120000Y-92964000D01*
X87062148Y-92673161D01*
X86897401Y-92426599D01*
X86135401Y-91664599D01*
X85888839Y-91499852D01*
X85598000Y-91442000D01*
X85148362Y-91442000D01*
X85266581Y-91268980D01*
X85317590Y-91017090D01*
X85317590Y-90461476D01*
X92495632Y-90461476D01*
X92721178Y-91007337D01*
X93138446Y-91425334D01*
X93683913Y-91651832D01*
X94274536Y-91652348D01*
X94820397Y-91426802D01*
X95238394Y-91009534D01*
X95464892Y-90464067D01*
X95465408Y-89873444D01*
X95239862Y-89327583D01*
X94822594Y-88909586D01*
X94277127Y-88683088D01*
X93686504Y-88682572D01*
X93140643Y-88908118D01*
X92722646Y-89325386D01*
X92496148Y-89870853D01*
X92495632Y-90461476D01*
X85317590Y-90461476D01*
X85317590Y-89317830D01*
X85273312Y-89082513D01*
X85154581Y-88898000D01*
X87757000Y-88898000D01*
X88047839Y-88840148D01*
X88294401Y-88675401D01*
X89691401Y-87278401D01*
X89856148Y-87031840D01*
X89914000Y-86741000D01*
X89914000Y-84261802D01*
X90087017Y-84088785D01*
X90005000Y-84501112D01*
X90005000Y-85678888D01*
X90114233Y-86228039D01*
X90425302Y-86693586D01*
X90890849Y-87004655D01*
X91440000Y-87113888D01*
X91989151Y-87004655D01*
X92454698Y-86693586D01*
X92765767Y-86228039D01*
X92875000Y-85678888D01*
X92875000Y-84501112D01*
X92765767Y-83951961D01*
X92454698Y-83486414D01*
X92380745Y-83437000D01*
X95579255Y-83437000D01*
X95505302Y-83486414D01*
X95194233Y-83951961D01*
X95085000Y-84501112D01*
X95085000Y-85678888D01*
X95194233Y-86228039D01*
X95505302Y-86693586D01*
X95760000Y-86863770D01*
X95760000Y-93476230D01*
X95505302Y-93646414D01*
X95194233Y-94111961D01*
X95085000Y-94661112D01*
X95085000Y-95838888D01*
X95194233Y-96388039D01*
X95505302Y-96853586D01*
X95760000Y-97023770D01*
X95760000Y-103636230D01*
X95505302Y-103806414D01*
X95194233Y-104271961D01*
X95085000Y-104821112D01*
X95085000Y-105998888D01*
X95194233Y-106548039D01*
X95505302Y-107013586D01*
X95970849Y-107324655D01*
X96520000Y-107433888D01*
X97069151Y-107324655D01*
X97534698Y-107013586D01*
X97541307Y-107003694D01*
X102505226Y-107003694D01*
X102753538Y-107604655D01*
X103212927Y-108064846D01*
X103813453Y-108314206D01*
X104463694Y-108314774D01*
X105064655Y-108066462D01*
X105524846Y-107607073D01*
X105774206Y-107006547D01*
X105774774Y-106356306D01*
X105526462Y-105755345D01*
X105067073Y-105295154D01*
X104466547Y-105045794D01*
X103816306Y-105045226D01*
X103215345Y-105293538D01*
X102755154Y-105752927D01*
X102505794Y-106353453D01*
X102505226Y-107003694D01*
X97541307Y-107003694D01*
X97845767Y-106548039D01*
X97955000Y-105998888D01*
X97955000Y-104821112D01*
X97845767Y-104271961D01*
X97534698Y-103806414D01*
X97280000Y-103636230D01*
X97280000Y-97023770D01*
X97534698Y-96853586D01*
X97845767Y-96388039D01*
X97955000Y-95838888D01*
X97955000Y-94661112D01*
X97845767Y-94111961D01*
X97534698Y-93646414D01*
X97280000Y-93476230D01*
X97280000Y-86863770D01*
X97534698Y-86693586D01*
X97845767Y-86228039D01*
X97955000Y-85678888D01*
X97955000Y-84501112D01*
X97845767Y-83951961D01*
X97534698Y-83486414D01*
X97460745Y-83437000D01*
X98116537Y-83437000D01*
X98148673Y-83469192D01*
X98492201Y-83611838D01*
X98864167Y-83612162D01*
X99207943Y-83470117D01*
X99471192Y-83207327D01*
X99613838Y-82863799D01*
X99614113Y-82548000D01*
X101346000Y-82548000D01*
X101636839Y-82490148D01*
X101883401Y-82325401D01*
X102872000Y-81336802D01*
X102872000Y-81534000D01*
X102929852Y-81824839D01*
X103084447Y-82056208D01*
X102755154Y-82384927D01*
X102505794Y-82985453D01*
X102505226Y-83635694D01*
X102753538Y-84236655D01*
X103212927Y-84696846D01*
X103813453Y-84946206D01*
X104463694Y-84946774D01*
X105064655Y-84698462D01*
X105524846Y-84239073D01*
X105774206Y-83638547D01*
X105774774Y-82988306D01*
X105526462Y-82387345D01*
X105067073Y-81927154D01*
X104860057Y-81841193D01*
X104842148Y-81751161D01*
X104677401Y-81504599D01*
X104392000Y-81219198D01*
X104392000Y-75438000D01*
X104334148Y-75147161D01*
X104169401Y-74900599D01*
X103563802Y-74295000D01*
X103990112Y-73868690D01*
X105430000Y-73868690D01*
X105430000Y-74009250D01*
X105588750Y-74168000D01*
X106713000Y-74168000D01*
X106713000Y-73518750D01*
X106554250Y-73360000D01*
X105938691Y-73360000D01*
X105705302Y-73456673D01*
X105526673Y-73635301D01*
X105430000Y-73868690D01*
X103990112Y-73868690D01*
X104677401Y-73181401D01*
X104842148Y-72934839D01*
X104900000Y-72644000D01*
X104900000Y-71237908D01*
X105013691Y-71285000D01*
X105854250Y-71285000D01*
X106013000Y-71126250D01*
X106013000Y-69977000D01*
X105993000Y-69977000D01*
X105993000Y-69723000D01*
X106013000Y-69723000D01*
X106013000Y-68573750D01*
X105854250Y-68415000D01*
X105013691Y-68415000D01*
X104900000Y-68462092D01*
X104900000Y-67310000D01*
X104842148Y-67019161D01*
X104842148Y-67019160D01*
X104677401Y-66772599D01*
X104435885Y-66531083D01*
X104504206Y-66366547D01*
X104504774Y-65716306D01*
X104256462Y-65115345D01*
X103797073Y-64655154D01*
X103196547Y-64405794D01*
X102546306Y-64405226D01*
X101945345Y-64653538D01*
X101485154Y-65112927D01*
X101235794Y-65713453D01*
X101235226Y-66363694D01*
X101483538Y-66964655D01*
X101942927Y-67424846D01*
X102543453Y-67674206D01*
X103193694Y-67674774D01*
X103360889Y-67605691D01*
X103380000Y-67624802D01*
X103380000Y-68451161D01*
X103140000Y-68402560D01*
X101140000Y-68402560D01*
X100904683Y-68446838D01*
X100688559Y-68585910D01*
X100543569Y-68798110D01*
X100492560Y-69050000D01*
X100492560Y-69058451D01*
X100391459Y-69078561D01*
X100183374Y-69217599D01*
X100120566Y-69259566D01*
X98977566Y-70402566D01*
X98796561Y-70673459D01*
X98733000Y-70993000D01*
X98733000Y-77343000D01*
X98796561Y-77662541D01*
X98947100Y-77887839D01*
X98977566Y-77933434D01*
X99739566Y-78695434D01*
X100010460Y-78876440D01*
X100025667Y-78879465D01*
X99732672Y-79172460D01*
X95241877Y-79172460D01*
X95239862Y-79167583D01*
X94822594Y-78749586D01*
X94277127Y-78523088D01*
X93686504Y-78522572D01*
X93140643Y-78748118D01*
X92722646Y-79165386D01*
X92496148Y-79710853D01*
X92495632Y-80301476D01*
X92721178Y-80847337D01*
X92901526Y-81028000D01*
X89722802Y-81028000D01*
X84834000Y-76139198D01*
X84834000Y-73660000D01*
X84776148Y-73369161D01*
X84611401Y-73122599D01*
X82802000Y-71313198D01*
X82802000Y-71310329D01*
X82970890Y-71344530D01*
X83105079Y-71344530D01*
X83118372Y-71411359D01*
X83283119Y-71657921D01*
X84044599Y-72419401D01*
X84291160Y-72584148D01*
X84582000Y-72642000D01*
X85283198Y-72642000D01*
X85600000Y-72958802D01*
X85600000Y-73156230D01*
X85345302Y-73326414D01*
X85034233Y-73791961D01*
X84925000Y-74341112D01*
X84925000Y-75518888D01*
X85034233Y-76068039D01*
X85345302Y-76533586D01*
X85810849Y-76844655D01*
X86360000Y-76953888D01*
X86909151Y-76844655D01*
X87374698Y-76533586D01*
X87685767Y-76068039D01*
X87795000Y-75518888D01*
X87795000Y-74341112D01*
X90005000Y-74341112D01*
X90005000Y-75518888D01*
X90114233Y-76068039D01*
X90425302Y-76533586D01*
X90890849Y-76844655D01*
X91440000Y-76953888D01*
X91989151Y-76844655D01*
X92454698Y-76533586D01*
X92765767Y-76068039D01*
X92875000Y-75518888D01*
X92875000Y-74341112D01*
X95085000Y-74341112D01*
X95085000Y-75518888D01*
X95194233Y-76068039D01*
X95505302Y-76533586D01*
X95970849Y-76844655D01*
X96520000Y-76953888D01*
X97069151Y-76844655D01*
X97534698Y-76533586D01*
X97845767Y-76068039D01*
X97955000Y-75518888D01*
X97955000Y-74341112D01*
X97845767Y-73791961D01*
X97534698Y-73326414D01*
X97069151Y-73015345D01*
X96520000Y-72906112D01*
X95970849Y-73015345D01*
X95505302Y-73326414D01*
X95194233Y-73791961D01*
X95085000Y-74341112D01*
X92875000Y-74341112D01*
X92765767Y-73791961D01*
X92454698Y-73326414D01*
X91989151Y-73015345D01*
X91440000Y-72906112D01*
X90890849Y-73015345D01*
X90425302Y-73326414D01*
X90114233Y-73791961D01*
X90005000Y-74341112D01*
X87795000Y-74341112D01*
X87685767Y-73791961D01*
X87374698Y-73326414D01*
X87120000Y-73156230D01*
X87120000Y-72644000D01*
X87062148Y-72353161D01*
X86897401Y-72106599D01*
X86135401Y-71344599D01*
X85888839Y-71179852D01*
X85598000Y-71122000D01*
X85148362Y-71122000D01*
X85266581Y-70948980D01*
X85317590Y-70697090D01*
X85317590Y-70141476D01*
X92495632Y-70141476D01*
X92721178Y-70687337D01*
X93138446Y-71105334D01*
X93683913Y-71331832D01*
X94274536Y-71332348D01*
X94820397Y-71106802D01*
X95238394Y-70689534D01*
X95464892Y-70144067D01*
X95465408Y-69553444D01*
X95239862Y-69007583D01*
X94822594Y-68589586D01*
X94277127Y-68363088D01*
X93686504Y-68362572D01*
X93140643Y-68588118D01*
X92722646Y-69005386D01*
X92496148Y-69550853D01*
X92495632Y-70141476D01*
X85317590Y-70141476D01*
X85317590Y-68997830D01*
X85273312Y-68762513D01*
X85134240Y-68546389D01*
X84922040Y-68401399D01*
X84670150Y-68350390D01*
X82970890Y-68350390D01*
X82802000Y-68382169D01*
X82802000Y-67564000D01*
X82744148Y-67273161D01*
X82579401Y-67026599D01*
X82282196Y-66729394D01*
X82315317Y-66723162D01*
X82531441Y-66584090D01*
X82676431Y-66371890D01*
X82727440Y-66120000D01*
X82727440Y-63420000D01*
X82683162Y-63184683D01*
X82544090Y-62968559D01*
X82331890Y-62823569D01*
X82080000Y-62772560D01*
X80480000Y-62772560D01*
X80244683Y-62816838D01*
X80028559Y-62955910D01*
X79883569Y-63168110D01*
X79832560Y-63420000D01*
X79832560Y-66120000D01*
X79876838Y-66355317D01*
X80015910Y-66571441D01*
X80228110Y-66716431D01*
X80480000Y-66767440D01*
X80520000Y-66767440D01*
X80520000Y-66802000D01*
X80577852Y-67092839D01*
X80742599Y-67339401D01*
X81282000Y-67878802D01*
X81282000Y-71628000D01*
X81339852Y-71918839D01*
X81504599Y-72165401D01*
X82320450Y-72981252D01*
X82080000Y-72932560D01*
X80480000Y-72932560D01*
X80244683Y-72976838D01*
X80028559Y-73115910D01*
X79883569Y-73328110D01*
X79832560Y-73580000D01*
X79832560Y-74170000D01*
X73844496Y-74170000D01*
X73776462Y-74005345D01*
X73317073Y-73545154D01*
X72716547Y-73295794D01*
X72066306Y-73295226D01*
X71465345Y-73543538D01*
X71005154Y-74002927D01*
X70755794Y-74603453D01*
X70755226Y-75253694D01*
X69265000Y-75253694D01*
X69265000Y-70850000D01*
X74702560Y-70850000D01*
X74702560Y-72850000D01*
X74746838Y-73085317D01*
X74885910Y-73301441D01*
X75098110Y-73446431D01*
X75350000Y-73497440D01*
X77050000Y-73497440D01*
X77285317Y-73453162D01*
X77501441Y-73314090D01*
X77646431Y-73101890D01*
X77697440Y-72850000D01*
X77697440Y-72531033D01*
X77912401Y-72387401D01*
X79023401Y-71276401D01*
X79188148Y-71029840D01*
X79246000Y-70739000D01*
X79246000Y-61274802D01*
X80073342Y-60447460D01*
X82323450Y-60447460D01*
X82323450Y-60537090D01*
X82367728Y-60772407D01*
X82506800Y-60988531D01*
X82719000Y-61133521D01*
X82970890Y-61184530D01*
X83105079Y-61184530D01*
X83118372Y-61251359D01*
X83283119Y-61497921D01*
X84044599Y-62259401D01*
X84291160Y-62424148D01*
X84582000Y-62482000D01*
X85283198Y-62482000D01*
X85600000Y-62798802D01*
X85600000Y-62996230D01*
X85345302Y-63166414D01*
X85034233Y-63631961D01*
X84925000Y-64181112D01*
X84925000Y-65358888D01*
X85034233Y-65908039D01*
X85345302Y-66373586D01*
X85810849Y-66684655D01*
X86360000Y-66793888D01*
X86909151Y-66684655D01*
X87374698Y-66373586D01*
X87685767Y-65908039D01*
X87795000Y-65358888D01*
X87795000Y-64181112D01*
X90005000Y-64181112D01*
X90005000Y-65358888D01*
X90114233Y-65908039D01*
X90425302Y-66373586D01*
X90890849Y-66684655D01*
X91440000Y-66793888D01*
X91989151Y-66684655D01*
X92454698Y-66373586D01*
X92765767Y-65908039D01*
X92875000Y-65358888D01*
X92875000Y-64181112D01*
X95085000Y-64181112D01*
X95085000Y-65358888D01*
X95194233Y-65908039D01*
X95505302Y-66373586D01*
X95970849Y-66684655D01*
X96520000Y-66793888D01*
X97069151Y-66684655D01*
X97534698Y-66373586D01*
X97845767Y-65908039D01*
X97955000Y-65358888D01*
X97955000Y-64181112D01*
X97845767Y-63631961D01*
X97534698Y-63166414D01*
X97069151Y-62855345D01*
X96520000Y-62746112D01*
X95970849Y-62855345D01*
X95505302Y-63166414D01*
X95194233Y-63631961D01*
X95085000Y-64181112D01*
X92875000Y-64181112D01*
X92765767Y-63631961D01*
X92454698Y-63166414D01*
X92275000Y-63046343D01*
X92275000Y-62575868D01*
X93680467Y-61170401D01*
X93683913Y-61171832D01*
X94274536Y-61172348D01*
X94820397Y-60946802D01*
X95238394Y-60529534D01*
X95464892Y-59984067D01*
X95465408Y-59393444D01*
X95239862Y-58847583D01*
X95066582Y-58674000D01*
X98818960Y-58674000D01*
X98818960Y-60706000D01*
X98863238Y-60941317D01*
X99002310Y-61157441D01*
X99214510Y-61302431D01*
X99466400Y-61353440D01*
X101193600Y-61353440D01*
X101428917Y-61309162D01*
X101645041Y-61170090D01*
X101790031Y-60957890D01*
X101798400Y-60916561D01*
X101810330Y-60934415D01*
X102296511Y-61259271D01*
X102870000Y-61373345D01*
X103443489Y-61259271D01*
X103929670Y-60934415D01*
X104140000Y-60619634D01*
X104350330Y-60934415D01*
X104836511Y-61259271D01*
X105410000Y-61373345D01*
X105983489Y-61259271D01*
X106469670Y-60934415D01*
X106793346Y-60450000D01*
X107254198Y-60450000D01*
X107698000Y-60893802D01*
X107698000Y-68737796D01*
X107678327Y-68690301D01*
X107499698Y-68511673D01*
X107266309Y-68415000D01*
X106425750Y-68415000D01*
X106267000Y-68573750D01*
X106267000Y-69723000D01*
X106287000Y-69723000D01*
X106287000Y-69977000D01*
X106267000Y-69977000D01*
X106267000Y-71126250D01*
X106425750Y-71285000D01*
X107266309Y-71285000D01*
X107499698Y-71188327D01*
X107678327Y-71009699D01*
X107698000Y-70962204D01*
X107698000Y-73360000D01*
X107125750Y-73360000D01*
X106967000Y-73518750D01*
X106967000Y-74168000D01*
X106987000Y-74168000D01*
X106987000Y-74422000D01*
X106967000Y-74422000D01*
X106967000Y-74442000D01*
X106713000Y-74442000D01*
X106713000Y-74422000D01*
X105588750Y-74422000D01*
X105430000Y-74580750D01*
X105430000Y-74721310D01*
X105519806Y-74938122D01*
X105468569Y-75013110D01*
X105417560Y-75265000D01*
X105417560Y-75865000D01*
X105461838Y-76100317D01*
X105470335Y-76113522D01*
X105373160Y-76132852D01*
X105126599Y-76297599D01*
X104872599Y-76551599D01*
X104707852Y-76798161D01*
X104650000Y-77089000D01*
X104650000Y-79629000D01*
X104707852Y-79919839D01*
X104872599Y-80166401D01*
X106523599Y-81817401D01*
X106770161Y-81982148D01*
X107061000Y-82040000D01*
X109035504Y-82040000D01*
X109103538Y-82204655D01*
X109448480Y-82550199D01*
X109105154Y-82892927D01*
X108855794Y-83493453D01*
X108855226Y-84143694D01*
X109103538Y-84744655D01*
X109562927Y-85204846D01*
X110163453Y-85454206D01*
X110813694Y-85454774D01*
X111414655Y-85206462D01*
X111508000Y-85113280D01*
X111508000Y-86680197D01*
X106015599Y-92172599D01*
X105559908Y-92628290D01*
X105526462Y-92547345D01*
X105067073Y-92087154D01*
X104466547Y-91837794D01*
X103816306Y-91837226D01*
X103215345Y-92085538D01*
X102755154Y-92544927D01*
X102505794Y-93145453D01*
X102505226Y-93795694D01*
X102753538Y-94396655D01*
X103212927Y-94856846D01*
X103380000Y-94926221D01*
X103380000Y-95065504D01*
X103215345Y-95133538D01*
X102755154Y-95592927D01*
X102505794Y-96193453D01*
X102505226Y-96843694D01*
X102753538Y-97444655D01*
X103212927Y-97904846D01*
X103813453Y-98154206D01*
X104463694Y-98154774D01*
X105064655Y-97906462D01*
X105524846Y-97447073D01*
X105774206Y-96846547D01*
X105774774Y-96196306D01*
X105526462Y-95595345D01*
X105067073Y-95135154D01*
X104900000Y-95065779D01*
X104900000Y-94926496D01*
X105064655Y-94858462D01*
X105524846Y-94399073D01*
X105594221Y-94232000D01*
X105791000Y-94232000D01*
X106081839Y-94174148D01*
X106328401Y-94009401D01*
X107090401Y-93247401D01*
X107715431Y-92622372D01*
X107698000Y-92710000D01*
X107698000Y-104648000D01*
X107755852Y-104938839D01*
X107920599Y-105185401D01*
X108924115Y-106188917D01*
X108855794Y-106353453D01*
X108855226Y-107003694D01*
X109103538Y-107604655D01*
X109562927Y-108064846D01*
X110163453Y-108314206D01*
X110813694Y-108314774D01*
X111414655Y-108066462D01*
X111874846Y-107607073D01*
X112124206Y-107006547D01*
X112124713Y-106425750D01*
X112815000Y-106425750D01*
X112815000Y-107266309D01*
X112911673Y-107499698D01*
X113090301Y-107678327D01*
X113323690Y-107775000D01*
X114014250Y-107775000D01*
X114173000Y-107616250D01*
X114173000Y-106267000D01*
X114427000Y-106267000D01*
X114427000Y-107616250D01*
X114585750Y-107775000D01*
X115276310Y-107775000D01*
X115509699Y-107678327D01*
X115688327Y-107499698D01*
X115785000Y-107266309D01*
X115785000Y-106425750D01*
X115626250Y-106267000D01*
X114427000Y-106267000D01*
X114173000Y-106267000D01*
X112973750Y-106267000D01*
X112815000Y-106425750D01*
X112124713Y-106425750D01*
X112124774Y-106356306D01*
X111876462Y-105755345D01*
X111417073Y-105295154D01*
X110816547Y-105045794D01*
X110166306Y-105045226D01*
X109999111Y-105114309D01*
X109898493Y-105013691D01*
X112815000Y-105013691D01*
X112815000Y-105854250D01*
X112973750Y-106013000D01*
X114173000Y-106013000D01*
X114173000Y-104663750D01*
X114427000Y-104663750D01*
X114427000Y-106013000D01*
X115626250Y-106013000D01*
X115785000Y-105854250D01*
X115785000Y-105013691D01*
X115688327Y-104780302D01*
X115509699Y-104601673D01*
X115276310Y-104505000D01*
X114585750Y-104505000D01*
X114427000Y-104663750D01*
X114173000Y-104663750D01*
X114014250Y-104505000D01*
X113323690Y-104505000D01*
X113090301Y-104601673D01*
X112911673Y-104780302D01*
X112815000Y-105013691D01*
X109898493Y-105013691D01*
X109218000Y-104333198D01*
X109218000Y-97559317D01*
X109562927Y-97904846D01*
X110163453Y-98154206D01*
X110813694Y-98154774D01*
X111414655Y-97906462D01*
X111874846Y-97447073D01*
X112124206Y-96846547D01*
X112124774Y-96196306D01*
X111876462Y-95595345D01*
X111531520Y-95249801D01*
X111874846Y-94907073D01*
X112124206Y-94306547D01*
X112124774Y-93656306D01*
X112055691Y-93489111D01*
X112709802Y-92835000D01*
X112764666Y-92835000D01*
X112730000Y-92918690D01*
X112730000Y-93059250D01*
X112888750Y-93218000D01*
X114013000Y-93218000D01*
X114013000Y-93198000D01*
X114267000Y-93198000D01*
X114267000Y-93218000D01*
X115391250Y-93218000D01*
X115550000Y-93059250D01*
X115550000Y-92918690D01*
X115460194Y-92701878D01*
X115511431Y-92626890D01*
X115562440Y-92375000D01*
X115562440Y-91775000D01*
X115518162Y-91539683D01*
X115454322Y-91440472D01*
X115511431Y-91356890D01*
X115562440Y-91105000D01*
X115562440Y-90505000D01*
X115518162Y-90269683D01*
X115379090Y-90053559D01*
X115166890Y-89908569D01*
X114915000Y-89857560D01*
X114900000Y-89857560D01*
X114900000Y-89492952D01*
X115032599Y-89691401D01*
X117953599Y-92612401D01*
X118185959Y-92767659D01*
X118168569Y-92793110D01*
X118117560Y-93045000D01*
X118117560Y-93645000D01*
X118161838Y-93880317D01*
X118225678Y-93979528D01*
X118168569Y-94063110D01*
X118117560Y-94315000D01*
X118117560Y-94915000D01*
X118161838Y-95150317D01*
X118300910Y-95366441D01*
X118513110Y-95511431D01*
X118545257Y-95517941D01*
X117572599Y-96490599D01*
X117444335Y-96682560D01*
X117260000Y-96682560D01*
X117024683Y-96726838D01*
X116808559Y-96865910D01*
X116663569Y-97078110D01*
X116612560Y-97330000D01*
X116612560Y-99330000D01*
X116656838Y-99565317D01*
X116659851Y-99570000D01*
X116586000Y-99570000D01*
X116295161Y-99627852D01*
X116127969Y-99739566D01*
X116048599Y-99792599D01*
X115540599Y-100300599D01*
X115381069Y-100539353D01*
X115150000Y-100492560D01*
X114900000Y-100492560D01*
X114900000Y-95562440D01*
X114915000Y-95562440D01*
X115150317Y-95518162D01*
X115366441Y-95379090D01*
X115511431Y-95166890D01*
X115562440Y-94915000D01*
X115562440Y-94315000D01*
X115518162Y-94079683D01*
X115459822Y-93989020D01*
X115550000Y-93771310D01*
X115550000Y-93630750D01*
X115391250Y-93472000D01*
X114267000Y-93472000D01*
X114267000Y-93492000D01*
X114013000Y-93492000D01*
X114013000Y-93472000D01*
X112888750Y-93472000D01*
X112730000Y-93630750D01*
X112730000Y-93771310D01*
X112819806Y-93988122D01*
X112768569Y-94063110D01*
X112717560Y-94315000D01*
X112717560Y-94915000D01*
X112761838Y-95150317D01*
X112900910Y-95366441D01*
X113113110Y-95511431D01*
X113365000Y-95562440D01*
X113380000Y-95562440D01*
X113380000Y-100505731D01*
X113214683Y-100536838D01*
X112998559Y-100675910D01*
X112853569Y-100888110D01*
X112802560Y-101140000D01*
X112802560Y-103140000D01*
X112846838Y-103375317D01*
X112985910Y-103591441D01*
X113198110Y-103736431D01*
X113450000Y-103787440D01*
X115150000Y-103787440D01*
X115385317Y-103743162D01*
X115601441Y-103604090D01*
X115746431Y-103391890D01*
X115797440Y-103140000D01*
X115797440Y-102848394D01*
X115828839Y-102842148D01*
X116075401Y-102677401D01*
X116137052Y-102615750D01*
X116625000Y-102615750D01*
X116625000Y-103456309D01*
X116721673Y-103689698D01*
X116900301Y-103868327D01*
X117133690Y-103965000D01*
X117824250Y-103965000D01*
X117983000Y-103806250D01*
X117983000Y-102457000D01*
X116783750Y-102457000D01*
X116625000Y-102615750D01*
X116137052Y-102615750D01*
X116615401Y-102137401D01*
X116656557Y-102075807D01*
X116783750Y-102203000D01*
X117983000Y-102203000D01*
X117983000Y-102183000D01*
X118237000Y-102183000D01*
X118237000Y-102203000D01*
X118257000Y-102203000D01*
X118257000Y-102457000D01*
X118237000Y-102457000D01*
X118237000Y-103806250D01*
X118395750Y-103965000D01*
X119086310Y-103965000D01*
X119319699Y-103868327D01*
X119382000Y-103806026D01*
X119382000Y-103886000D01*
X119439852Y-104176839D01*
X119604599Y-104423401D01*
X120256187Y-105074989D01*
X120076511Y-105110729D01*
X119590330Y-105435585D01*
X119265474Y-105921766D01*
X119151400Y-106495255D01*
X119151400Y-106864745D01*
X119265474Y-107438234D01*
X119590330Y-107924415D01*
X120076511Y-108249271D01*
X120650000Y-108363345D01*
X121223489Y-108249271D01*
X121709670Y-107924415D01*
X121920000Y-107609634D01*
X122130330Y-107924415D01*
X122616511Y-108249271D01*
X123190000Y-108363345D01*
X123763489Y-108249271D01*
X124249670Y-107924415D01*
X124460000Y-107609634D01*
X124670330Y-107924415D01*
X125156511Y-108249271D01*
X125730000Y-108363345D01*
X126303489Y-108249271D01*
X126789670Y-107924415D01*
X127000000Y-107609634D01*
X127210330Y-107924415D01*
X127696511Y-108249271D01*
X128270000Y-108363345D01*
X128843489Y-108249271D01*
X129329670Y-107924415D01*
X129536461Y-107614931D01*
X129907964Y-108030732D01*
X130435209Y-108284709D01*
X130450974Y-108287358D01*
X130683000Y-108166217D01*
X130683000Y-106807000D01*
X130663000Y-106807000D01*
X130663000Y-106553000D01*
X130683000Y-106553000D01*
X130683000Y-105193783D01*
X130450974Y-105072642D01*
X130435209Y-105075291D01*
X129907964Y-105329268D01*
X129536461Y-105745069D01*
X129329670Y-105435585D01*
X128843489Y-105110729D01*
X128663813Y-105074989D01*
X129442401Y-104296401D01*
X129606833Y-104050310D01*
X129623110Y-104061431D01*
X129875000Y-104112440D01*
X130475000Y-104112440D01*
X130696490Y-104070764D01*
X130742852Y-104303839D01*
X130907599Y-104550401D01*
X131542599Y-105185401D01*
X131789161Y-105350148D01*
X131915178Y-105375215D01*
X131889969Y-105412110D01*
X131870768Y-105506927D01*
X131712036Y-105329268D01*
X131184791Y-105075291D01*
X131169026Y-105072642D01*
X130937000Y-105193783D01*
X130937000Y-106553000D01*
X130957000Y-106553000D01*
X130957000Y-106807000D01*
X130937000Y-106807000D01*
X130937000Y-108166217D01*
X131169026Y-108287358D01*
X131184791Y-108284709D01*
X131712036Y-108030732D01*
X131868907Y-107855155D01*
X131883238Y-107931317D01*
X132022310Y-108147441D01*
X132234510Y-108292431D01*
X132486400Y-108343440D01*
X134213600Y-108343440D01*
X134448917Y-108299162D01*
X134665041Y-108160090D01*
X134810031Y-107947890D01*
X134861040Y-107696000D01*
X134861040Y-106425750D01*
X136995000Y-106425750D01*
X136995000Y-107266309D01*
X137091673Y-107499698D01*
X137270301Y-107678327D01*
X137503690Y-107775000D01*
X138144250Y-107775000D01*
X138303000Y-107616250D01*
X138303000Y-106267000D01*
X138557000Y-106267000D01*
X138557000Y-107616250D01*
X138715750Y-107775000D01*
X139356310Y-107775000D01*
X139589699Y-107678327D01*
X139768327Y-107499698D01*
X139865000Y-107266309D01*
X139865000Y-106722591D01*
X146223646Y-106722591D01*
X146525209Y-107452429D01*
X147083114Y-108011309D01*
X147812425Y-108314145D01*
X148602111Y-108314834D01*
X149331949Y-108013271D01*
X149890829Y-107455366D01*
X150193665Y-106726055D01*
X150194354Y-105936369D01*
X149892791Y-105206531D01*
X149334886Y-104647651D01*
X148605575Y-104344815D01*
X147815889Y-104344126D01*
X147086051Y-104645689D01*
X146527171Y-105203594D01*
X146224335Y-105932905D01*
X146223646Y-106722591D01*
X139865000Y-106722591D01*
X139865000Y-106425750D01*
X139706250Y-106267000D01*
X138557000Y-106267000D01*
X138303000Y-106267000D01*
X137153750Y-106267000D01*
X136995000Y-106425750D01*
X134861040Y-106425750D01*
X134861040Y-105664000D01*
X134816762Y-105428683D01*
X134803453Y-105408000D01*
X135382000Y-105408000D01*
X135672839Y-105350148D01*
X135776327Y-105281000D01*
X136995000Y-105281000D01*
X136995000Y-105854250D01*
X137153750Y-106013000D01*
X138303000Y-106013000D01*
X138303000Y-105993000D01*
X138557000Y-105993000D01*
X138557000Y-106013000D01*
X139706250Y-106013000D01*
X139865000Y-105854250D01*
X139865000Y-105281000D01*
X140528198Y-105281000D01*
X140559599Y-105312401D01*
X140806160Y-105477148D01*
X141097000Y-105535000D01*
X144399000Y-105535000D01*
X144689839Y-105477148D01*
X144936401Y-105312401D01*
X147476401Y-102772401D01*
X147641148Y-102525840D01*
X147660045Y-102430839D01*
X147699000Y-102235000D01*
X147699000Y-100838000D01*
X147666410Y-100674161D01*
X147641148Y-100547160D01*
X147476401Y-100300599D01*
X147095401Y-99919599D01*
X146848839Y-99754852D01*
X146741932Y-99733587D01*
X146905737Y-99339100D01*
X146906222Y-98783339D01*
X146693990Y-98269697D01*
X146301350Y-97876371D01*
X145788080Y-97663243D01*
X145232319Y-97662758D01*
X144718677Y-97874990D01*
X144325351Y-98267630D01*
X144214134Y-98535471D01*
X143689605Y-99060000D01*
X143703748Y-99074143D01*
X143524143Y-99253748D01*
X143510000Y-99239605D01*
X143495858Y-99253748D01*
X143316253Y-99074143D01*
X143330395Y-99060000D01*
X142529787Y-98259392D01*
X142287603Y-98328857D01*
X142100856Y-98852302D01*
X142128638Y-99407368D01*
X142180317Y-99532133D01*
X142047460Y-99558560D01*
X141776566Y-99739566D01*
X140211132Y-101305000D01*
X139877440Y-101305000D01*
X139877440Y-101140000D01*
X139833162Y-100904683D01*
X139694090Y-100688559D01*
X139481890Y-100543569D01*
X139230000Y-100492560D01*
X137630000Y-100492560D01*
X137394683Y-100536838D01*
X137178559Y-100675910D01*
X137033569Y-100888110D01*
X136982560Y-101140000D01*
X136982560Y-101305000D01*
X136493000Y-101305000D01*
X136173460Y-101368560D01*
X135902566Y-101549566D01*
X135797132Y-101655000D01*
X134932440Y-101655000D01*
X134932440Y-101515000D01*
X134888162Y-101279683D01*
X134749090Y-101063559D01*
X134536890Y-100918569D01*
X134285000Y-100867560D01*
X133685000Y-100867560D01*
X133449683Y-100911838D01*
X133350472Y-100975678D01*
X133266890Y-100918569D01*
X133015000Y-100867560D01*
X132415000Y-100867560D01*
X132179683Y-100911838D01*
X132080472Y-100975678D01*
X131996890Y-100918569D01*
X131745000Y-100867560D01*
X131347242Y-100867560D01*
X132934802Y-99280000D01*
X136982560Y-99280000D01*
X136982560Y-99520000D01*
X137026838Y-99755317D01*
X137165910Y-99971441D01*
X137378110Y-100116431D01*
X137630000Y-100167440D01*
X139230000Y-100167440D01*
X139465317Y-100123162D01*
X139681441Y-99984090D01*
X139826431Y-99771890D01*
X139877440Y-99520000D01*
X139877440Y-98079787D01*
X142709392Y-98079787D01*
X143510000Y-98880395D01*
X144310608Y-98079787D01*
X144241143Y-97837603D01*
X143717698Y-97650856D01*
X143162632Y-97678638D01*
X142778857Y-97837603D01*
X142709392Y-98079787D01*
X139877440Y-98079787D01*
X139877440Y-97520000D01*
X139833162Y-97284683D01*
X139694090Y-97068559D01*
X139481890Y-96923569D01*
X139230000Y-96872560D01*
X137630000Y-96872560D01*
X137394683Y-96916838D01*
X137178559Y-97055910D01*
X137033569Y-97268110D01*
X136982560Y-97520000D01*
X136982560Y-97760000D01*
X132620000Y-97760000D01*
X132329161Y-97817852D01*
X132082599Y-97982599D01*
X129637599Y-100427599D01*
X129472852Y-100674161D01*
X129425500Y-100912212D01*
X129205000Y-100867560D01*
X128605000Y-100867560D01*
X128369683Y-100911838D01*
X128270472Y-100975678D01*
X128186890Y-100918569D01*
X127935000Y-100867560D01*
X127335000Y-100867560D01*
X127125000Y-100907074D01*
X127125000Y-100457000D01*
X127068628Y-100173599D01*
X127067148Y-100166160D01*
X126902401Y-99919599D01*
X125601000Y-98618198D01*
X125601000Y-97215802D01*
X126078521Y-96738281D01*
X126206883Y-97048943D01*
X126469673Y-97312192D01*
X126813201Y-97454838D01*
X127080959Y-97455071D01*
X127080838Y-97594167D01*
X127222883Y-97937943D01*
X127485673Y-98201192D01*
X127829201Y-98343838D01*
X128201167Y-98344162D01*
X128223967Y-98334741D01*
X128223838Y-98483167D01*
X128365883Y-98826943D01*
X128628673Y-99090192D01*
X128972201Y-99232838D01*
X129344167Y-99233162D01*
X129687943Y-99091117D01*
X129951192Y-98828327D01*
X130093838Y-98484799D01*
X130094162Y-98112833D01*
X129952117Y-97769057D01*
X129919000Y-97735882D01*
X129919000Y-95179802D01*
X130780599Y-96041401D01*
X131027161Y-96206148D01*
X131318000Y-96264000D01*
X132400198Y-96264000D01*
X132795878Y-96659680D01*
X132795838Y-96705167D01*
X132937883Y-97048943D01*
X133200673Y-97312192D01*
X133544201Y-97454838D01*
X133916167Y-97455162D01*
X134259943Y-97313117D01*
X134523192Y-97050327D01*
X134665838Y-96706799D01*
X134666162Y-96334833D01*
X134524117Y-95991057D01*
X134261327Y-95727808D01*
X133917799Y-95585162D01*
X133870923Y-95585121D01*
X133252401Y-94966599D01*
X133005839Y-94801852D01*
X132715000Y-94744000D01*
X131632802Y-94744000D01*
X131601242Y-94712440D01*
X131745000Y-94712440D01*
X131980317Y-94668162D01*
X132079528Y-94604322D01*
X132163110Y-94661431D01*
X132415000Y-94712440D01*
X133015000Y-94712440D01*
X133250317Y-94668162D01*
X133340980Y-94609822D01*
X133558690Y-94700000D01*
X133699250Y-94700000D01*
X133858000Y-94541250D01*
X133858000Y-93217000D01*
X134112000Y-93217000D01*
X134112000Y-94541250D01*
X134270750Y-94700000D01*
X134411310Y-94700000D01*
X134644699Y-94603327D01*
X134823327Y-94424698D01*
X134920000Y-94191309D01*
X134920000Y-93375750D01*
X134761250Y-93217000D01*
X134112000Y-93217000D01*
X133858000Y-93217000D01*
X133838000Y-93217000D01*
X133838000Y-92963000D01*
X133858000Y-92963000D01*
X133858000Y-91638750D01*
X134112000Y-91638750D01*
X134112000Y-92963000D01*
X134761250Y-92963000D01*
X134920000Y-92804250D01*
X134920000Y-91988691D01*
X134823327Y-91755302D01*
X134644699Y-91576673D01*
X134411310Y-91480000D01*
X134270750Y-91480000D01*
X134112000Y-91638750D01*
X133858000Y-91638750D01*
X133699250Y-91480000D01*
X133558690Y-91480000D01*
X133442043Y-91528317D01*
X133417148Y-91403161D01*
X133417148Y-91403160D01*
X133252401Y-91156599D01*
X131728401Y-89632599D01*
X131481839Y-89467852D01*
X131191000Y-89410000D01*
X129757315Y-89410000D01*
X129767440Y-89360000D01*
X129767440Y-88645750D01*
X131865000Y-88645750D01*
X131865000Y-89486309D01*
X131961673Y-89719698D01*
X132140301Y-89898327D01*
X132373690Y-89995000D01*
X133064250Y-89995000D01*
X133223000Y-89836250D01*
X133223000Y-88487000D01*
X133477000Y-88487000D01*
X133477000Y-89836250D01*
X133635750Y-89995000D01*
X134326310Y-89995000D01*
X134559699Y-89898327D01*
X134738327Y-89719698D01*
X134835000Y-89486309D01*
X134835000Y-88645750D01*
X134676250Y-88487000D01*
X133477000Y-88487000D01*
X133223000Y-88487000D01*
X132023750Y-88487000D01*
X131865000Y-88645750D01*
X129767440Y-88645750D01*
X129767440Y-87360000D01*
X129743674Y-87233691D01*
X131865000Y-87233691D01*
X131865000Y-88074250D01*
X132023750Y-88233000D01*
X133223000Y-88233000D01*
X133223000Y-86883750D01*
X133477000Y-86883750D01*
X133477000Y-88233000D01*
X134676250Y-88233000D01*
X134835000Y-88074250D01*
X134835000Y-87233691D01*
X134738327Y-87000302D01*
X134559699Y-86821673D01*
X134326310Y-86725000D01*
X133635750Y-86725000D01*
X133477000Y-86883750D01*
X133223000Y-86883750D01*
X133064250Y-86725000D01*
X132373690Y-86725000D01*
X132140301Y-86821673D01*
X131961673Y-87000302D01*
X131865000Y-87233691D01*
X129743674Y-87233691D01*
X129723162Y-87124683D01*
X129584090Y-86908559D01*
X129371890Y-86763569D01*
X129120000Y-86712560D01*
X127420000Y-86712560D01*
X127184683Y-86756838D01*
X126968559Y-86895910D01*
X126871000Y-87038692D01*
X126871000Y-85679487D01*
X126955910Y-85811441D01*
X127168110Y-85956431D01*
X127420000Y-86007440D01*
X129120000Y-86007440D01*
X129355317Y-85963162D01*
X129571441Y-85824090D01*
X129716431Y-85611890D01*
X129767440Y-85360000D01*
X129767440Y-83360000D01*
X129723162Y-83124683D01*
X129584090Y-82908559D01*
X129371890Y-82763569D01*
X129120000Y-82712560D01*
X129030000Y-82712560D01*
X129030000Y-81465047D01*
X129194943Y-81396894D01*
X129540199Y-81052241D01*
X129882637Y-81395278D01*
X130483352Y-81644716D01*
X131133795Y-81645284D01*
X131734943Y-81396894D01*
X132080199Y-81052241D01*
X132422637Y-81395278D01*
X132590000Y-81464773D01*
X132590000Y-82712560D01*
X132500000Y-82712560D01*
X132264683Y-82756838D01*
X132048559Y-82895910D01*
X131903569Y-83108110D01*
X131852560Y-83360000D01*
X131852560Y-85360000D01*
X131896838Y-85595317D01*
X132035910Y-85811441D01*
X132248110Y-85956431D01*
X132500000Y-86007440D01*
X134200000Y-86007440D01*
X134435317Y-85963162D01*
X134651441Y-85824090D01*
X134796431Y-85611890D01*
X134847440Y-85360000D01*
X134847440Y-83360000D01*
X134803162Y-83124683D01*
X134664090Y-82908559D01*
X134451890Y-82763569D01*
X134200000Y-82712560D01*
X134110000Y-82712560D01*
X134110000Y-81465047D01*
X134274943Y-81396894D01*
X134735278Y-80937363D01*
X134984716Y-80336648D01*
X134985284Y-79686205D01*
X134736894Y-79085057D01*
X134277363Y-78624722D01*
X133676648Y-78375284D01*
X133026205Y-78374716D01*
X132425057Y-78623106D01*
X132079801Y-78967759D01*
X131737363Y-78624722D01*
X131136648Y-78375284D01*
X130486205Y-78374716D01*
X129885057Y-78623106D01*
X129539801Y-78967759D01*
X129197363Y-78624722D01*
X128596648Y-78375284D01*
X127946205Y-78374716D01*
X127345057Y-78623106D01*
X126884722Y-79082637D01*
X126635284Y-79683352D01*
X126634716Y-80333795D01*
X126883106Y-80934943D01*
X127342637Y-81395278D01*
X127510000Y-81464773D01*
X127510000Y-82712560D01*
X127420000Y-82712560D01*
X127184683Y-82756838D01*
X126968559Y-82895910D01*
X126823569Y-83108110D01*
X126772560Y-83360000D01*
X126772560Y-84103417D01*
X126648401Y-83917599D01*
X126013401Y-83282599D01*
X125766839Y-83117852D01*
X125476000Y-83060000D01*
X124750453Y-83060000D01*
X124586222Y-82814211D01*
X124124762Y-82505874D01*
X123580433Y-82397600D01*
X122799567Y-82397600D01*
X122255238Y-82505874D01*
X121793778Y-82814211D01*
X121485441Y-83275671D01*
X121377167Y-83820000D01*
X121485441Y-84364329D01*
X121793778Y-84825789D01*
X121965460Y-84940503D01*
X121811683Y-84969438D01*
X121595559Y-85108510D01*
X121450569Y-85320710D01*
X121399560Y-85572600D01*
X121399560Y-87147400D01*
X121443838Y-87382717D01*
X121582910Y-87598841D01*
X121795110Y-87743831D01*
X122047000Y-87794840D01*
X124333000Y-87794840D01*
X124568317Y-87750562D01*
X124784441Y-87611490D01*
X124929431Y-87399290D01*
X124980440Y-87147400D01*
X124980440Y-85572600D01*
X124936162Y-85337283D01*
X124797090Y-85121159D01*
X124584890Y-84976169D01*
X124413197Y-84941400D01*
X124586222Y-84825789D01*
X124750453Y-84580000D01*
X125161198Y-84580000D01*
X125351000Y-84769802D01*
X125351000Y-87503000D01*
X125408852Y-87793839D01*
X125573599Y-88040401D01*
X126430599Y-88897401D01*
X126677161Y-89062148D01*
X126772560Y-89081124D01*
X126772560Y-89360000D01*
X126816838Y-89595317D01*
X126955910Y-89811441D01*
X127168110Y-89956431D01*
X127420000Y-90007440D01*
X127553451Y-90007440D01*
X127567852Y-90079839D01*
X127732599Y-90326401D01*
X128113599Y-90707401D01*
X128360160Y-90872148D01*
X128651000Y-90930000D01*
X129113112Y-90930000D01*
X129112838Y-91244167D01*
X129205155Y-91467591D01*
X129205000Y-91467560D01*
X128605000Y-91467560D01*
X128369683Y-91511838D01*
X128270472Y-91575678D01*
X128186890Y-91518569D01*
X127935000Y-91467560D01*
X127335000Y-91467560D01*
X127099683Y-91511838D01*
X127000472Y-91575678D01*
X126916890Y-91518569D01*
X126665000Y-91467560D01*
X126065000Y-91467560D01*
X125829683Y-91511838D01*
X125730472Y-91575678D01*
X125646890Y-91518569D01*
X125395000Y-91467560D01*
X124795000Y-91467560D01*
X124559683Y-91511838D01*
X124460472Y-91575678D01*
X124376890Y-91518569D01*
X124125000Y-91467560D01*
X123525000Y-91467560D01*
X123289683Y-91511838D01*
X123190472Y-91575678D01*
X123106890Y-91518569D01*
X122855000Y-91467560D01*
X122255000Y-91467560D01*
X122120000Y-91492962D01*
X122120000Y-90216234D01*
X122219838Y-89975799D01*
X122220162Y-89603833D01*
X122078117Y-89260057D01*
X121815327Y-88996808D01*
X121471799Y-88854162D01*
X121099833Y-88853838D01*
X120756057Y-88995883D01*
X120492808Y-89258673D01*
X120350162Y-89602201D01*
X120349933Y-89864634D01*
X120315000Y-89857560D01*
X120300000Y-89857560D01*
X120300000Y-79148802D01*
X121345802Y-78103000D01*
X136337198Y-78103000D01*
X136401599Y-78167401D01*
X136648160Y-78332148D01*
X136847560Y-78371811D01*
X136847560Y-78405000D01*
X136891838Y-78640317D01*
X137030910Y-78856441D01*
X137243110Y-79001431D01*
X137495000Y-79052440D01*
X138095000Y-79052440D01*
X138330317Y-79008162D01*
X138429528Y-78944322D01*
X138513110Y-79001431D01*
X138765000Y-79052440D01*
X139365000Y-79052440D01*
X139600317Y-79008162D01*
X139625161Y-78992175D01*
X139632852Y-79030839D01*
X139797599Y-79277401D01*
X140178599Y-79658401D01*
X140425160Y-79823148D01*
X140716000Y-79881000D01*
X146304000Y-79881000D01*
X146594839Y-79823148D01*
X146841401Y-79658401D01*
X147095827Y-79403975D01*
X147203538Y-79664655D01*
X147662927Y-80124846D01*
X147830000Y-80194221D01*
X147830000Y-85369214D01*
X147574641Y-85539839D01*
X145075885Y-83041083D01*
X145144206Y-82876547D01*
X145144774Y-82226306D01*
X144896462Y-81625345D01*
X144437073Y-81165154D01*
X143836547Y-80915794D01*
X143186306Y-80915226D01*
X142585345Y-81163538D01*
X142125154Y-81622927D01*
X141875794Y-82223453D01*
X141875334Y-82749533D01*
X141762370Y-82636371D01*
X141249100Y-82423243D01*
X140693339Y-82422758D01*
X140179697Y-82634990D01*
X139786371Y-83027630D01*
X139573243Y-83540900D01*
X139572758Y-84096661D01*
X139784990Y-84610303D01*
X140177630Y-85003629D01*
X140690900Y-85216757D01*
X141246661Y-85217242D01*
X141760303Y-85005010D01*
X142153629Y-84612370D01*
X142167070Y-84580000D01*
X142240000Y-84580000D01*
X142530839Y-84522148D01*
X142777401Y-84357401D01*
X143018917Y-84115885D01*
X143183453Y-84184206D01*
X143833694Y-84184774D01*
X144000889Y-84115691D01*
X146755198Y-86870000D01*
X143951802Y-86870000D01*
X142904401Y-85822599D01*
X142657839Y-85657852D01*
X142367000Y-85600000D01*
X139627531Y-85600000D01*
X139615010Y-85569697D01*
X139222370Y-85176371D01*
X138709100Y-84963243D01*
X138153339Y-84962758D01*
X137639697Y-85174990D01*
X137246371Y-85567630D01*
X137033243Y-86080900D01*
X137032758Y-86636661D01*
X137244990Y-87150303D01*
X137637630Y-87543629D01*
X138150900Y-87756757D01*
X138706661Y-87757242D01*
X139220303Y-87545010D01*
X139613629Y-87152370D01*
X139627070Y-87120000D01*
X142052198Y-87120000D01*
X142997198Y-88065000D01*
X142110391Y-88065000D01*
X141762370Y-87716371D01*
X141249100Y-87503243D01*
X140693339Y-87502758D01*
X140179697Y-87714990D01*
X139829075Y-88065000D01*
X139700000Y-88065000D01*
X139380459Y-88128561D01*
X139265839Y-88205148D01*
X139109566Y-88309566D01*
X137839566Y-89579566D01*
X137658561Y-89850459D01*
X137595000Y-90170000D01*
X137595000Y-92879146D01*
X137394683Y-92916838D01*
X137178559Y-93055910D01*
X137033569Y-93268110D01*
X136982560Y-93520000D01*
X136982560Y-95520000D01*
X137026838Y-95755317D01*
X137165910Y-95971441D01*
X137378110Y-96116431D01*
X137630000Y-96167440D01*
X139230000Y-96167440D01*
X139465317Y-96123162D01*
X139681441Y-95984090D01*
X139826431Y-95771890D01*
X139877440Y-95520000D01*
X139877440Y-94723631D01*
X146223646Y-94723631D01*
X146525209Y-95453469D01*
X147083114Y-96012349D01*
X147812425Y-96315185D01*
X148602111Y-96315874D01*
X149331949Y-96014311D01*
X149890829Y-95456406D01*
X150011615Y-95165520D01*
X155351480Y-95165520D01*
X155671021Y-95101959D01*
X155941914Y-94920954D01*
X158070434Y-92792434D01*
X158095737Y-92754566D01*
X158251439Y-92521541D01*
X158315000Y-92202000D01*
X158315000Y-91757240D01*
X158380430Y-91757240D01*
X158615747Y-91712962D01*
X158831871Y-91573890D01*
X158976861Y-91361690D01*
X159027870Y-91109800D01*
X159027870Y-87609680D01*
X158983592Y-87374363D01*
X158844520Y-87158239D01*
X158632320Y-87013249D01*
X158380430Y-86962240D01*
X156579570Y-86962240D01*
X156344253Y-87006518D01*
X156128129Y-87145590D01*
X155983139Y-87357790D01*
X155932130Y-87609680D01*
X155932130Y-91109800D01*
X155976408Y-91345117D01*
X156115480Y-91561241D01*
X156327680Y-91706231D01*
X156579570Y-91757240D01*
X156645000Y-91757240D01*
X156645000Y-91856132D01*
X155005612Y-93495520D01*
X150011769Y-93495520D01*
X149892791Y-93207571D01*
X149334886Y-92648691D01*
X148605575Y-92345855D01*
X147815889Y-92345166D01*
X147086051Y-92646729D01*
X146527171Y-93204634D01*
X146224335Y-93933945D01*
X146223646Y-94723631D01*
X139877440Y-94723631D01*
X139877440Y-93520000D01*
X139833162Y-93284683D01*
X139694090Y-93068559D01*
X139481890Y-92923569D01*
X139265000Y-92879648D01*
X139265000Y-90515868D01*
X139937644Y-89843224D01*
X140177630Y-90083629D01*
X140690900Y-90296757D01*
X141246661Y-90297242D01*
X141760303Y-90085010D01*
X142110925Y-89735000D01*
X147596849Y-89735000D01*
X147846814Y-89902021D01*
X148261865Y-89984580D01*
X148918135Y-89984580D01*
X149333186Y-89902021D01*
X149685049Y-89666914D01*
X149920156Y-89315051D01*
X150002715Y-88900000D01*
X149920156Y-88484949D01*
X149773191Y-88265000D01*
X149920156Y-88045051D01*
X150002715Y-87630000D01*
X149920156Y-87214949D01*
X149773191Y-86995000D01*
X149920156Y-86775051D01*
X150002715Y-86360000D01*
X149920156Y-85944949D01*
X149685049Y-85593086D01*
X149350000Y-85369214D01*
X149350000Y-83702163D01*
X152697443Y-83702163D01*
X152796042Y-83968965D01*
X153405582Y-84195401D01*
X154055377Y-84171341D01*
X154543958Y-83968965D01*
X154642557Y-83702163D01*
X154586405Y-83646010D01*
X155944570Y-83646010D01*
X155944570Y-85236629D01*
X156041243Y-85470018D01*
X156219871Y-85648647D01*
X156453260Y-85745320D01*
X157194250Y-85745320D01*
X157353000Y-85586570D01*
X157353000Y-83487260D01*
X157607000Y-83487260D01*
X157607000Y-85586570D01*
X157765750Y-85745320D01*
X158506740Y-85745320D01*
X158740129Y-85648647D01*
X158918757Y-85470018D01*
X159015430Y-85236629D01*
X159015430Y-83646010D01*
X158856680Y-83487260D01*
X157607000Y-83487260D01*
X157353000Y-83487260D01*
X156103320Y-83487260D01*
X155944570Y-83646010D01*
X154586405Y-83646010D01*
X153670000Y-82729605D01*
X152697443Y-83702163D01*
X149350000Y-83702163D01*
X149350000Y-82285582D01*
X152024599Y-82285582D01*
X152048659Y-82935377D01*
X152251035Y-83423958D01*
X152517837Y-83522557D01*
X153490395Y-82550000D01*
X153849605Y-82550000D01*
X154822163Y-83522557D01*
X155088965Y-83423958D01*
X155315401Y-82814418D01*
X155291341Y-82164623D01*
X155088965Y-81676042D01*
X154822163Y-81577443D01*
X153849605Y-82550000D01*
X153490395Y-82550000D01*
X152517837Y-81577443D01*
X152251035Y-81676042D01*
X152024599Y-82285582D01*
X149350000Y-82285582D01*
X149350000Y-81397837D01*
X152697443Y-81397837D01*
X153670000Y-82370395D01*
X154556503Y-81483891D01*
X155944570Y-81483891D01*
X155944570Y-83074510D01*
X156103320Y-83233260D01*
X157353000Y-83233260D01*
X157353000Y-81133950D01*
X157607000Y-81133950D01*
X157607000Y-83233260D01*
X158856680Y-83233260D01*
X159015430Y-83074510D01*
X159015430Y-81483891D01*
X158918757Y-81250502D01*
X158740129Y-81071873D01*
X158506740Y-80975200D01*
X157765750Y-80975200D01*
X157607000Y-81133950D01*
X157353000Y-81133950D01*
X157194250Y-80975200D01*
X156453260Y-80975200D01*
X156219871Y-81071873D01*
X156041243Y-81250502D01*
X155944570Y-81483891D01*
X154556503Y-81483891D01*
X154642557Y-81397837D01*
X154543958Y-81131035D01*
X153934418Y-80904599D01*
X153284623Y-80928659D01*
X152796042Y-81131035D01*
X152697443Y-81397837D01*
X149350000Y-81397837D01*
X149350000Y-80194496D01*
X149514655Y-80126462D01*
X149974846Y-79667073D01*
X150224206Y-79066547D01*
X150224774Y-78416306D01*
X149990368Y-77849000D01*
X150434198Y-77849000D01*
X150834115Y-78248917D01*
X150765794Y-78413453D01*
X150765226Y-79063694D01*
X151013538Y-79664655D01*
X151472927Y-80124846D01*
X152073453Y-80374206D01*
X152723694Y-80374774D01*
X153324655Y-80126462D01*
X153784846Y-79667073D01*
X154034206Y-79066547D01*
X154034208Y-79063694D01*
X154575226Y-79063694D01*
X154823538Y-79664655D01*
X155282927Y-80124846D01*
X155883453Y-80374206D01*
X156533694Y-80374774D01*
X157134655Y-80126462D01*
X157594846Y-79667073D01*
X157844206Y-79066547D01*
X157844774Y-78416306D01*
X157596462Y-77815345D01*
X157137073Y-77355154D01*
X156536547Y-77105794D01*
X155886306Y-77105226D01*
X155285345Y-77353538D01*
X154825154Y-77812927D01*
X154575794Y-78413453D01*
X154575226Y-79063694D01*
X154034208Y-79063694D01*
X154034774Y-78416306D01*
X153786462Y-77815345D01*
X153327073Y-77355154D01*
X152726547Y-77105794D01*
X152076306Y-77105226D01*
X151909111Y-77174309D01*
X151286401Y-76551599D01*
X151039839Y-76386852D01*
X150749000Y-76329000D01*
X147447000Y-76329000D01*
X147156161Y-76386852D01*
X146909599Y-76551599D01*
X146274599Y-77186599D01*
X146227440Y-77257178D01*
X146227440Y-75930000D01*
X146183162Y-75694683D01*
X146044090Y-75478559D01*
X145831890Y-75333569D01*
X145580000Y-75282560D01*
X143980000Y-75282560D01*
X143744683Y-75326838D01*
X143528559Y-75465910D01*
X143383569Y-75678110D01*
X143332560Y-75930000D01*
X143332560Y-76136660D01*
X143222459Y-76158561D01*
X143149127Y-76207560D01*
X142951565Y-76339566D01*
X142534021Y-76757111D01*
X142508162Y-76619683D01*
X142440000Y-76513756D01*
X142440000Y-75992234D01*
X142539838Y-75751799D01*
X142540162Y-75379833D01*
X142398117Y-75036057D01*
X142135327Y-74772808D01*
X141791799Y-74630162D01*
X141419833Y-74629838D01*
X141076057Y-74771883D01*
X140812808Y-75034673D01*
X140670162Y-75378201D01*
X140669838Y-75750167D01*
X140770000Y-75992578D01*
X140770000Y-76234898D01*
X140635000Y-76207560D01*
X140035000Y-76207560D01*
X139799683Y-76251838D01*
X139700472Y-76315678D01*
X139616890Y-76258569D01*
X139365000Y-76207560D01*
X138765000Y-76207560D01*
X138529683Y-76251838D01*
X138430472Y-76315678D01*
X138346890Y-76258569D01*
X138095000Y-76207560D01*
X137495000Y-76207560D01*
X137259683Y-76251838D01*
X137043559Y-76390910D01*
X136898569Y-76603110D01*
X136892936Y-76630926D01*
X136652000Y-76583000D01*
X135565802Y-76583000D01*
X136839802Y-75309000D01*
X139065000Y-75309000D01*
X139355839Y-75251148D01*
X139602401Y-75086401D01*
X140872401Y-73816401D01*
X141027659Y-73584041D01*
X141053110Y-73601431D01*
X141305000Y-73652440D01*
X141905000Y-73652440D01*
X142140317Y-73608162D01*
X142356441Y-73469090D01*
X142501431Y-73256890D01*
X142509762Y-73215750D01*
X143345000Y-73215750D01*
X143345000Y-74056309D01*
X143441673Y-74289698D01*
X143620301Y-74468327D01*
X143853690Y-74565000D01*
X144494250Y-74565000D01*
X144653000Y-74406250D01*
X144653000Y-73057000D01*
X144907000Y-73057000D01*
X144907000Y-74406250D01*
X145065750Y-74565000D01*
X145706310Y-74565000D01*
X145939699Y-74468327D01*
X146118327Y-74289698D01*
X146215000Y-74056309D01*
X146215000Y-73215750D01*
X146056250Y-73057000D01*
X144907000Y-73057000D01*
X144653000Y-73057000D01*
X143503750Y-73057000D01*
X143345000Y-73215750D01*
X142509762Y-73215750D01*
X142552440Y-73005000D01*
X142552440Y-71626000D01*
X143418602Y-71626000D01*
X143345000Y-71803691D01*
X143345000Y-72644250D01*
X143503750Y-72803000D01*
X144653000Y-72803000D01*
X144653000Y-72783000D01*
X144907000Y-72783000D01*
X144907000Y-72803000D01*
X146056250Y-72803000D01*
X146215000Y-72644250D01*
X146215000Y-71803691D01*
X146141398Y-71626000D01*
X157099000Y-71626000D01*
X157389839Y-71568148D01*
X157636401Y-71403401D01*
X158525401Y-70514401D01*
X158690148Y-70267839D01*
X158748000Y-69977000D01*
X158748000Y-66929000D01*
X158690148Y-66638161D01*
X158690148Y-66638160D01*
X158525401Y-66391599D01*
X155826401Y-63692599D01*
X155579839Y-63527852D01*
X155289000Y-63470000D01*
X155167440Y-63470000D01*
X155167440Y-63230000D01*
X155123162Y-62994683D01*
X154984090Y-62778559D01*
X154771890Y-62633569D01*
X154520000Y-62582560D01*
X152820000Y-62582560D01*
X152652000Y-62614171D01*
X152652000Y-61976000D01*
X152624195Y-61836214D01*
X152693690Y-61865000D01*
X153384250Y-61865000D01*
X153543000Y-61706250D01*
X153543000Y-60357000D01*
X153797000Y-60357000D01*
X153797000Y-61706250D01*
X153955750Y-61865000D01*
X154646310Y-61865000D01*
X154879699Y-61768327D01*
X155058327Y-61589698D01*
X155155000Y-61356309D01*
X155155000Y-60515750D01*
X154996250Y-60357000D01*
X153797000Y-60357000D01*
X153543000Y-60357000D01*
X152343750Y-60357000D01*
X152185000Y-60515750D01*
X152185000Y-61194198D01*
X151667401Y-60676599D01*
X151420839Y-60511852D01*
X151130000Y-60454000D01*
X150400000Y-60454000D01*
X150400000Y-60365750D01*
X150241250Y-60207000D01*
X149762440Y-60207000D01*
X149762440Y-59953000D01*
X150241250Y-59953000D01*
X150400000Y-59794250D01*
X150400000Y-59403691D01*
X150303327Y-59170302D01*
X150236717Y-59103691D01*
X152185000Y-59103691D01*
X152185000Y-59944250D01*
X152343750Y-60103000D01*
X153543000Y-60103000D01*
X153543000Y-58753750D01*
X153797000Y-58753750D01*
X153797000Y-60103000D01*
X154996250Y-60103000D01*
X155155000Y-59944250D01*
X155155000Y-59103691D01*
X155058327Y-58870302D01*
X154879699Y-58691673D01*
X154646310Y-58595000D01*
X153955750Y-58595000D01*
X153797000Y-58753750D01*
X153543000Y-58753750D01*
X153384250Y-58595000D01*
X152693690Y-58595000D01*
X152460301Y-58691673D01*
X152281673Y-58870302D01*
X152185000Y-59103691D01*
X150236717Y-59103691D01*
X150124699Y-58991673D01*
X149891310Y-58895000D01*
X149823750Y-58895000D01*
X149665000Y-59053750D01*
X149665000Y-59212067D01*
X149579090Y-59078559D01*
X149366890Y-58933569D01*
X149339215Y-58927965D01*
X149306250Y-58895000D01*
X149238690Y-58895000D01*
X149218247Y-58903468D01*
X149115000Y-58882560D01*
X148715000Y-58882560D01*
X148609295Y-58902450D01*
X148591310Y-58895000D01*
X148523750Y-58895000D01*
X148494746Y-58924004D01*
X148479683Y-58926838D01*
X148263559Y-59065910D01*
X148262610Y-59067299D01*
X148066890Y-58933569D01*
X148039215Y-58927965D01*
X148006250Y-58895000D01*
X147938690Y-58895000D01*
X147918247Y-58903468D01*
X147815000Y-58882560D01*
X147415000Y-58882560D01*
X147179683Y-58926838D01*
X146963559Y-59065910D01*
X146841192Y-59245000D01*
X144957440Y-59245000D01*
X144957440Y-59230000D01*
X144913162Y-58994683D01*
X144774090Y-58778559D01*
X144561890Y-58633569D01*
X144310000Y-58582560D01*
X142710000Y-58582560D01*
X142474683Y-58626838D01*
X142258559Y-58765910D01*
X142113569Y-58978110D01*
X142062560Y-59230000D01*
X142062560Y-59395000D01*
X139877440Y-59395000D01*
X139877440Y-59230000D01*
X139833162Y-58994683D01*
X139694090Y-58778559D01*
X139481890Y-58633569D01*
X139230000Y-58582560D01*
X137630000Y-58582560D01*
X137394683Y-58626838D01*
X137178559Y-58765910D01*
X137033569Y-58978110D01*
X136982560Y-59230000D01*
X136982560Y-61230000D01*
X137026838Y-61465317D01*
X137165910Y-61681441D01*
X137378110Y-61826431D01*
X137630000Y-61877440D01*
X139230000Y-61877440D01*
X139465317Y-61833162D01*
X139681441Y-61694090D01*
X139826431Y-61481890D01*
X139877440Y-61230000D01*
X139877440Y-61065000D01*
X142062560Y-61065000D01*
X142062560Y-61230000D01*
X142106838Y-61465317D01*
X142245910Y-61681441D01*
X142458110Y-61826431D01*
X142710000Y-61877440D01*
X144310000Y-61877440D01*
X144545317Y-61833162D01*
X144761441Y-61694090D01*
X144906431Y-61481890D01*
X144957440Y-61230000D01*
X144957440Y-60915000D01*
X146822369Y-60915000D01*
X146780000Y-61128000D01*
X146780000Y-61509000D01*
X146843561Y-61828541D01*
X146937125Y-61968569D01*
X147024566Y-62099434D01*
X147872566Y-62947434D01*
X148143459Y-63128439D01*
X148415542Y-63182560D01*
X148065000Y-63182560D01*
X147935411Y-63206944D01*
X147815000Y-63182560D01*
X147415000Y-63182560D01*
X147179683Y-63226838D01*
X146963559Y-63365910D01*
X146818569Y-63578110D01*
X146810086Y-63620000D01*
X145684749Y-63620000D01*
X145546839Y-63527852D01*
X145256000Y-63470000D01*
X144957440Y-63470000D01*
X144957440Y-63230000D01*
X144913162Y-62994683D01*
X144774090Y-62778559D01*
X144561890Y-62633569D01*
X144310000Y-62582560D01*
X142710000Y-62582560D01*
X142474683Y-62626838D01*
X142258559Y-62765910D01*
X142113569Y-62978110D01*
X142062560Y-63230000D01*
X142062560Y-65230000D01*
X142106838Y-65465317D01*
X142245910Y-65681441D01*
X142458110Y-65826431D01*
X142710000Y-65877440D01*
X144310000Y-65877440D01*
X144545317Y-65833162D01*
X144761441Y-65694090D01*
X144906431Y-65481890D01*
X144957440Y-65230000D01*
X144957440Y-64990000D01*
X144977251Y-64990000D01*
X145115161Y-65082148D01*
X145406000Y-65140000D01*
X146807074Y-65140000D01*
X146811838Y-65165317D01*
X146855000Y-65232393D01*
X146855000Y-65954000D01*
X146912852Y-66244839D01*
X147077599Y-66491401D01*
X147746290Y-67160092D01*
X147665345Y-67193538D01*
X147205154Y-67652927D01*
X146955794Y-68253453D01*
X146955226Y-68903694D01*
X147203538Y-69504655D01*
X147662927Y-69964846D01*
X148002864Y-70106000D01*
X143631950Y-70106000D01*
X143672148Y-70045839D01*
X143675808Y-70027440D01*
X143970000Y-70027440D01*
X144205317Y-69983162D01*
X144421441Y-69844090D01*
X144566431Y-69631890D01*
X144617440Y-69380000D01*
X144617440Y-67780000D01*
X144573162Y-67544683D01*
X144434090Y-67328559D01*
X144221890Y-67183569D01*
X143970000Y-67132560D01*
X141970000Y-67132560D01*
X141734683Y-67176838D01*
X141518559Y-67315910D01*
X141373569Y-67528110D01*
X141322560Y-67780000D01*
X141322560Y-69380000D01*
X141339683Y-69471000D01*
X141097000Y-69471000D01*
X140806161Y-69528852D01*
X140559599Y-69693599D01*
X140448047Y-69805151D01*
X140566431Y-69631890D01*
X140617440Y-69380000D01*
X140617440Y-67780000D01*
X140573162Y-67544683D01*
X140434090Y-67328559D01*
X140221890Y-67183569D01*
X139970000Y-67132560D01*
X137970000Y-67132560D01*
X137734683Y-67176838D01*
X137518559Y-67315910D01*
X137373569Y-67528110D01*
X137322560Y-67780000D01*
X137322560Y-69380000D01*
X137366838Y-69615317D01*
X137505910Y-69831441D01*
X137718110Y-69976431D01*
X137970000Y-70027440D01*
X138210000Y-70027440D01*
X138210000Y-70390000D01*
X138267852Y-70680839D01*
X138305000Y-70736435D01*
X138305000Y-70854666D01*
X138221310Y-70820000D01*
X138080750Y-70820000D01*
X137922000Y-70978750D01*
X137922000Y-72103000D01*
X137942000Y-72103000D01*
X137942000Y-72357000D01*
X137922000Y-72357000D01*
X137922000Y-72377000D01*
X137668000Y-72377000D01*
X137668000Y-72357000D01*
X137018750Y-72357000D01*
X136860000Y-72515750D01*
X136860000Y-72900000D01*
X134620000Y-72900000D01*
X134329160Y-72957852D01*
X134082599Y-73122599D01*
X133841083Y-73364115D01*
X133676547Y-73295794D01*
X133026306Y-73295226D01*
X132425345Y-73543538D01*
X131965154Y-74002927D01*
X131715794Y-74603453D01*
X131715226Y-75253694D01*
X131949632Y-75821000D01*
X130235802Y-75821000D01*
X129835885Y-75421083D01*
X129904206Y-75256547D01*
X129904774Y-74606306D01*
X129656462Y-74005345D01*
X129197073Y-73545154D01*
X128596547Y-73295794D01*
X127946306Y-73295226D01*
X127345345Y-73543538D01*
X126885154Y-74002927D01*
X126635794Y-74603453D01*
X126635226Y-75253694D01*
X126883538Y-75854655D01*
X127342927Y-76314846D01*
X127943453Y-76564206D01*
X128593694Y-76564774D01*
X128760889Y-76495691D01*
X128848198Y-76583000D01*
X121031000Y-76583000D01*
X120788414Y-76631254D01*
X120740160Y-76640852D01*
X120493599Y-76805599D01*
X120300000Y-76999198D01*
X120300000Y-68480802D01*
X121183056Y-67597746D01*
X121305000Y-67622440D01*
X122855000Y-67622440D01*
X123090317Y-67578162D01*
X123306441Y-67439090D01*
X123451431Y-67226890D01*
X123502440Y-66975000D01*
X123502440Y-66375000D01*
X123458162Y-66139683D01*
X123442175Y-66114839D01*
X123480839Y-66107148D01*
X123727401Y-65942401D01*
X124362401Y-65307401D01*
X124527148Y-65060839D01*
X124585000Y-64770000D01*
X124585000Y-61196316D01*
X124790200Y-61237870D01*
X125705260Y-61237870D01*
X125705260Y-62089872D01*
X125266566Y-62528566D01*
X125085561Y-62799459D01*
X125022000Y-63119000D01*
X125022000Y-72425132D01*
X124669014Y-72778118D01*
X124586222Y-72654211D01*
X124190801Y-72390000D01*
X124586222Y-72125789D01*
X124894559Y-71664329D01*
X125002833Y-71120000D01*
X124894559Y-70575671D01*
X124586222Y-70114211D01*
X124124762Y-69805874D01*
X123580433Y-69697600D01*
X122799567Y-69697600D01*
X122255238Y-69805874D01*
X121793778Y-70114211D01*
X121485441Y-70575671D01*
X121377167Y-71120000D01*
X121485441Y-71664329D01*
X121793778Y-72125789D01*
X122189199Y-72390000D01*
X121793778Y-72654211D01*
X121485441Y-73115671D01*
X121377167Y-73660000D01*
X121485441Y-74204329D01*
X121793778Y-74665789D01*
X122255238Y-74974126D01*
X122799567Y-75082400D01*
X123580433Y-75082400D01*
X124124762Y-74974126D01*
X124586222Y-74665789D01*
X124700339Y-74495000D01*
X124968000Y-74495000D01*
X125287541Y-74431439D01*
X125558434Y-74250434D01*
X126447434Y-73361434D01*
X126491673Y-73295226D01*
X126628439Y-73090541D01*
X126692000Y-72771000D01*
X126692000Y-71328691D01*
X136860000Y-71328691D01*
X136860000Y-71944250D01*
X137018750Y-72103000D01*
X137668000Y-72103000D01*
X137668000Y-70978750D01*
X137509250Y-70820000D01*
X137368690Y-70820000D01*
X137135301Y-70916673D01*
X136956673Y-71095302D01*
X136860000Y-71328691D01*
X126692000Y-71328691D01*
X126692000Y-65231098D01*
X126883538Y-65694655D01*
X127342927Y-66154846D01*
X127943453Y-66404206D01*
X128593694Y-66404774D01*
X129194655Y-66156462D01*
X129654846Y-65697073D01*
X129904206Y-65096547D01*
X129904774Y-64446306D01*
X129656462Y-63845345D01*
X129197073Y-63385154D01*
X128596547Y-63135794D01*
X127946306Y-63135226D01*
X127345345Y-63383538D01*
X126885154Y-63842927D01*
X126692000Y-64308094D01*
X126692000Y-63464868D01*
X127130694Y-63026174D01*
X127311700Y-62755280D01*
X127375260Y-62435740D01*
X127375260Y-61237870D01*
X128290320Y-61237870D01*
X128525637Y-61193592D01*
X128741761Y-61054520D01*
X128886751Y-60842320D01*
X128937760Y-60590430D01*
X128937760Y-58789570D01*
X130142240Y-58789570D01*
X130142240Y-60590430D01*
X130186518Y-60825747D01*
X130325590Y-61041871D01*
X130537790Y-61186861D01*
X130789680Y-61237870D01*
X132590000Y-61237870D01*
X132590000Y-63315504D01*
X132425345Y-63383538D01*
X131965154Y-63842927D01*
X131715794Y-64443453D01*
X131715226Y-65093694D01*
X131963538Y-65694655D01*
X132422927Y-66154846D01*
X133023453Y-66404206D01*
X133673694Y-66404774D01*
X134274655Y-66156462D01*
X134734846Y-65697073D01*
X134984206Y-65096547D01*
X134984713Y-64515750D01*
X136995000Y-64515750D01*
X136995000Y-65356309D01*
X137091673Y-65589698D01*
X137270301Y-65768327D01*
X137503690Y-65865000D01*
X138144250Y-65865000D01*
X138303000Y-65706250D01*
X138303000Y-64357000D01*
X138557000Y-64357000D01*
X138557000Y-65706250D01*
X138715750Y-65865000D01*
X139356310Y-65865000D01*
X139589699Y-65768327D01*
X139768327Y-65589698D01*
X139865000Y-65356309D01*
X139865000Y-64515750D01*
X139706250Y-64357000D01*
X138557000Y-64357000D01*
X138303000Y-64357000D01*
X137153750Y-64357000D01*
X136995000Y-64515750D01*
X134984713Y-64515750D01*
X134984774Y-64446306D01*
X134736462Y-63845345D01*
X134277073Y-63385154D01*
X134110000Y-63315779D01*
X134110000Y-63103691D01*
X136995000Y-63103691D01*
X136995000Y-63944250D01*
X137153750Y-64103000D01*
X138303000Y-64103000D01*
X138303000Y-62753750D01*
X138557000Y-62753750D01*
X138557000Y-64103000D01*
X139706250Y-64103000D01*
X139865000Y-63944250D01*
X139865000Y-63103691D01*
X139768327Y-62870302D01*
X139589699Y-62691673D01*
X139356310Y-62595000D01*
X138715750Y-62595000D01*
X138557000Y-62753750D01*
X138303000Y-62753750D01*
X138144250Y-62595000D01*
X137503690Y-62595000D01*
X137270301Y-62691673D01*
X137091673Y-62870302D01*
X136995000Y-63103691D01*
X134110000Y-63103691D01*
X134110000Y-61237870D01*
X134289800Y-61237870D01*
X134525117Y-61193592D01*
X134741241Y-61054520D01*
X134886231Y-60842320D01*
X134937240Y-60590430D01*
X134937240Y-58789570D01*
X134892962Y-58554253D01*
X134753890Y-58338129D01*
X134541690Y-58193139D01*
X134289800Y-58142130D01*
X130789680Y-58142130D01*
X130554363Y-58186408D01*
X130338239Y-58325480D01*
X130193249Y-58537680D01*
X130142240Y-58789570D01*
X128937760Y-58789570D01*
X128893482Y-58554253D01*
X128754410Y-58338129D01*
X128542210Y-58193139D01*
X128290320Y-58142130D01*
X124790200Y-58142130D01*
X124554883Y-58186408D01*
X124338759Y-58325480D01*
X124193769Y-58537680D01*
X124142760Y-58789570D01*
X124142760Y-59059958D01*
X122330401Y-57247599D01*
X122083839Y-57082852D01*
X121793000Y-57025000D01*
X103378000Y-57025000D01*
X103087161Y-57082852D01*
X103087159Y-57082853D01*
X103087160Y-57082853D01*
X102840599Y-57247599D01*
X102332599Y-57755599D01*
X102167852Y-58002161D01*
X102120931Y-58238048D01*
X101810330Y-58445585D01*
X101800757Y-58459913D01*
X101796762Y-58438683D01*
X101657690Y-58222559D01*
X101445490Y-58077569D01*
X101193600Y-58026560D01*
X99466400Y-58026560D01*
X99231083Y-58070838D01*
X99014959Y-58209910D01*
X98869969Y-58422110D01*
X98818960Y-58674000D01*
X95066582Y-58674000D01*
X94822594Y-58429586D01*
X94277127Y-58203088D01*
X93686504Y-58202572D01*
X93140643Y-58428118D01*
X92722646Y-58845386D01*
X92496148Y-59390853D01*
X92495632Y-59981476D01*
X92499148Y-59989984D01*
X90849566Y-61639566D01*
X90668561Y-61910459D01*
X90605000Y-62230000D01*
X90605000Y-63046343D01*
X90425302Y-63166414D01*
X90114233Y-63631961D01*
X90005000Y-64181112D01*
X87795000Y-64181112D01*
X87685767Y-63631961D01*
X87374698Y-63166414D01*
X87120000Y-62996230D01*
X87120000Y-62484000D01*
X87062148Y-62193161D01*
X86897401Y-61946599D01*
X86135401Y-61184599D01*
X85888839Y-61019852D01*
X85598000Y-60962000D01*
X85148362Y-60962000D01*
X85266581Y-60788980D01*
X85317590Y-60537090D01*
X85317590Y-58837830D01*
X85273312Y-58602513D01*
X85134240Y-58386389D01*
X84922040Y-58241399D01*
X84670150Y-58190390D01*
X82970890Y-58190390D01*
X82735573Y-58234668D01*
X82519449Y-58373740D01*
X82374459Y-58585940D01*
X82323450Y-58837830D01*
X82323450Y-58927460D01*
X79758540Y-58927460D01*
X79467700Y-58985312D01*
X79221139Y-59150059D01*
X77948599Y-60422599D01*
X77783852Y-60669161D01*
X77726000Y-60960000D01*
X77726000Y-70424198D01*
X77607099Y-70543099D01*
X77514090Y-70398559D01*
X77301890Y-70253569D01*
X77050000Y-70202560D01*
X75350000Y-70202560D01*
X75114683Y-70246838D01*
X74898559Y-70385910D01*
X74753569Y-70598110D01*
X74702560Y-70850000D01*
X69265000Y-70850000D01*
X69265000Y-59960000D01*
X73282560Y-59960000D01*
X73282560Y-61960000D01*
X73326838Y-62195317D01*
X73465910Y-62411441D01*
X73608561Y-62508910D01*
X73544722Y-62572637D01*
X73295284Y-63173352D01*
X73294716Y-63823795D01*
X73543106Y-64424943D01*
X74002637Y-64885278D01*
X74170000Y-64954773D01*
X74170000Y-65024000D01*
X74227852Y-65314839D01*
X74392599Y-65561401D01*
X75092385Y-66261187D01*
X74898559Y-66385910D01*
X74753569Y-66598110D01*
X74702560Y-66850000D01*
X74702560Y-68850000D01*
X74746838Y-69085317D01*
X74885910Y-69301441D01*
X75098110Y-69446431D01*
X75350000Y-69497440D01*
X77050000Y-69497440D01*
X77285317Y-69453162D01*
X77501441Y-69314090D01*
X77646431Y-69101890D01*
X77697440Y-68850000D01*
X77697440Y-66850000D01*
X77653162Y-66614683D01*
X77514090Y-66398559D01*
X77301890Y-66253569D01*
X77050000Y-66202560D01*
X76941811Y-66202560D01*
X76925389Y-66120000D01*
X76902148Y-66003160D01*
X76737401Y-65756599D01*
X75861325Y-64880523D01*
X76315278Y-64427363D01*
X76564716Y-63826648D01*
X76565284Y-63176205D01*
X76316894Y-62575057D01*
X76250379Y-62508426D01*
X76381441Y-62424090D01*
X76526431Y-62211890D01*
X76577440Y-61960000D01*
X76577440Y-59960000D01*
X76533162Y-59724683D01*
X76394090Y-59508559D01*
X76181890Y-59363569D01*
X75930000Y-59312560D01*
X73930000Y-59312560D01*
X73694683Y-59356838D01*
X73478559Y-59495910D01*
X73333569Y-59708110D01*
X73282560Y-59960000D01*
X69265000Y-59960000D01*
X69265000Y-56819000D01*
X160605000Y-56819000D01*
X160605000Y-110059000D01*
X160605000Y-110059000D01*
G37*
X160605000Y-110059000D02*
X69265000Y-110059000D01*
X69265000Y-105733694D01*
X74565226Y-105733694D01*
X74813538Y-106334655D01*
X75272927Y-106794846D01*
X75873453Y-107044206D01*
X76523694Y-107044774D01*
X77124655Y-106796462D01*
X77584846Y-106337073D01*
X77654221Y-106170000D01*
X79832560Y-106170000D01*
X79832560Y-106760000D01*
X79876838Y-106995317D01*
X80015910Y-107211441D01*
X80228110Y-107356431D01*
X80480000Y-107407440D01*
X82080000Y-107407440D01*
X82315317Y-107363162D01*
X82531441Y-107224090D01*
X82676431Y-107011890D01*
X82727440Y-106760000D01*
X82727440Y-104060000D01*
X82683162Y-103824683D01*
X82544090Y-103608559D01*
X82331890Y-103463569D01*
X82080000Y-103412560D01*
X80480000Y-103412560D01*
X80244683Y-103456838D01*
X80028559Y-103595910D01*
X79883569Y-103808110D01*
X79832560Y-104060000D01*
X79832560Y-104650000D01*
X77654496Y-104650000D01*
X77586462Y-104485345D01*
X77127073Y-104025154D01*
X76526547Y-103775794D01*
X75876306Y-103775226D01*
X75275345Y-104023538D01*
X74815154Y-104482927D01*
X74565794Y-105083453D01*
X74565226Y-105733694D01*
X69265000Y-105733694D01*
X69265000Y-100653694D01*
X70755226Y-100653694D01*
X71003538Y-101254655D01*
X71462927Y-101714846D01*
X72063453Y-101964206D01*
X72713694Y-101964774D01*
X73314655Y-101716462D01*
X73774846Y-101257073D01*
X73844221Y-101090000D01*
X74549000Y-101090000D01*
X74839839Y-101032148D01*
X75086401Y-100867401D01*
X76475972Y-99477830D01*
X82323450Y-99477830D01*
X82323450Y-101177090D01*
X82367728Y-101412407D01*
X82506800Y-101628531D01*
X82719000Y-101773521D01*
X82970890Y-101824530D01*
X83105079Y-101824530D01*
X83118372Y-101891359D01*
X83283119Y-102137921D01*
X84044599Y-102899401D01*
X84291160Y-103064148D01*
X84582000Y-103122000D01*
X85283198Y-103122000D01*
X85600000Y-103438802D01*
X85600000Y-103636230D01*
X85345302Y-103806414D01*
X85034233Y-104271961D01*
X84925000Y-104821112D01*
X84925000Y-105998888D01*
X85034233Y-106548039D01*
X85345302Y-107013586D01*
X85810849Y-107324655D01*
X86360000Y-107433888D01*
X86909151Y-107324655D01*
X87374698Y-107013586D01*
X87685767Y-106548039D01*
X87795000Y-105998888D01*
X87795000Y-104821112D01*
X90005000Y-104821112D01*
X90005000Y-105998888D01*
X90114233Y-106548039D01*
X90425302Y-107013586D01*
X90890849Y-107324655D01*
X91440000Y-107433888D01*
X91989151Y-107324655D01*
X92454698Y-107013586D01*
X92765767Y-106548039D01*
X92875000Y-105998888D01*
X92875000Y-104821112D01*
X92765767Y-104271961D01*
X92454698Y-103806414D01*
X91989151Y-103495345D01*
X91440000Y-103386112D01*
X90890849Y-103495345D01*
X90425302Y-103806414D01*
X90114233Y-104271961D01*
X90005000Y-104821112D01*
X87795000Y-104821112D01*
X87685767Y-104271961D01*
X87374698Y-103806414D01*
X87120000Y-103636230D01*
X87120000Y-103124000D01*
X87062148Y-102833161D01*
X86897401Y-102586599D01*
X86135401Y-101824599D01*
X85888839Y-101659852D01*
X85598000Y-101602000D01*
X85148362Y-101602000D01*
X85266581Y-101428980D01*
X85317590Y-101177090D01*
X85317590Y-100621476D01*
X92495632Y-100621476D01*
X92721178Y-101167337D01*
X93138446Y-101585334D01*
X93683913Y-101811832D01*
X94274536Y-101812348D01*
X94820397Y-101586802D01*
X95238394Y-101169534D01*
X95464892Y-100624067D01*
X95465408Y-100033444D01*
X95239862Y-99487583D01*
X94822594Y-99069586D01*
X94277127Y-98843088D01*
X93686504Y-98842572D01*
X93140643Y-99068118D01*
X92722646Y-99485386D01*
X92496148Y-100030853D01*
X92495632Y-100621476D01*
X85317590Y-100621476D01*
X85317590Y-99477830D01*
X85273312Y-99242513D01*
X85134240Y-99026389D01*
X84922040Y-98881399D01*
X84670150Y-98830390D01*
X82970890Y-98830390D01*
X82735573Y-98874668D01*
X82519449Y-99013740D01*
X82374459Y-99225940D01*
X82323450Y-99477830D01*
X76475972Y-99477830D01*
X79832560Y-96121242D01*
X79832560Y-96600000D01*
X79876838Y-96835317D01*
X80015910Y-97051441D01*
X80228110Y-97196431D01*
X80480000Y-97247440D01*
X82080000Y-97247440D01*
X82315317Y-97203162D01*
X82531441Y-97064090D01*
X82676431Y-96851890D01*
X82727440Y-96600000D01*
X82727440Y-93900000D01*
X82683162Y-93664683D01*
X82544090Y-93448559D01*
X82331890Y-93303569D01*
X82080000Y-93252560D01*
X80480000Y-93252560D01*
X80244683Y-93296838D01*
X80028559Y-93435910D01*
X79883569Y-93648110D01*
X79832560Y-93900000D01*
X79832560Y-94490000D01*
X79629000Y-94490000D01*
X79338161Y-94547852D01*
X79091599Y-94712599D01*
X74234198Y-99570000D01*
X73844496Y-99570000D01*
X73776462Y-99405345D01*
X73317073Y-98945154D01*
X72716547Y-98695794D01*
X72066306Y-98695226D01*
X71465345Y-98943538D01*
X71005154Y-99402927D01*
X70755794Y-100003453D01*
X70755226Y-100653694D01*
X69265000Y-100653694D01*
X69265000Y-80333694D01*
X74565226Y-80333694D01*
X74813538Y-80934655D01*
X75272927Y-81394846D01*
X75873453Y-81644206D01*
X76523694Y-81644774D01*
X77124655Y-81396462D01*
X77580555Y-80941357D01*
X78107000Y-81467802D01*
X78107000Y-84074000D01*
X78164852Y-84364839D01*
X78329599Y-84611401D01*
X79345599Y-85627401D01*
X79592161Y-85792148D01*
X79832560Y-85839967D01*
X79832560Y-86440000D01*
X79876838Y-86675317D01*
X80015910Y-86891441D01*
X80228110Y-87036431D01*
X80480000Y-87087440D01*
X82080000Y-87087440D01*
X82315317Y-87043162D01*
X82531441Y-86904090D01*
X82676431Y-86691890D01*
X82727440Y-86440000D01*
X82727440Y-83740000D01*
X82683162Y-83504683D01*
X82544090Y-83288559D01*
X82331890Y-83143569D01*
X82080000Y-83092560D01*
X80480000Y-83092560D01*
X80244683Y-83136838D01*
X80028559Y-83275910D01*
X79883569Y-83488110D01*
X79832560Y-83740000D01*
X79832560Y-83964758D01*
X79627000Y-83759198D01*
X79627000Y-81153000D01*
X79569148Y-80862161D01*
X79404401Y-80615599D01*
X78261401Y-79472599D01*
X78014839Y-79307852D01*
X77724000Y-79250000D01*
X77654496Y-79250000D01*
X77616413Y-79157830D01*
X82323450Y-79157830D01*
X82323450Y-80857090D01*
X82367728Y-81092407D01*
X82506800Y-81308531D01*
X82719000Y-81453521D01*
X82970890Y-81504530D01*
X83105079Y-81504530D01*
X83118372Y-81571359D01*
X83283119Y-81817921D01*
X84044599Y-82579401D01*
X84291160Y-82744148D01*
X84582000Y-82802000D01*
X85283198Y-82802000D01*
X85600000Y-83118802D01*
X85600000Y-83316230D01*
X85345302Y-83486414D01*
X85034233Y-83951961D01*
X84925000Y-84501112D01*
X84925000Y-85678888D01*
X85034233Y-86228039D01*
X85345302Y-86693586D01*
X85810849Y-87004655D01*
X86360000Y-87113888D01*
X86909151Y-87004655D01*
X87374698Y-86693586D01*
X87685767Y-86228039D01*
X87795000Y-85678888D01*
X87795000Y-84501112D01*
X87685767Y-83951961D01*
X87374698Y-83486414D01*
X87120000Y-83316230D01*
X87120000Y-82804000D01*
X87062148Y-82513161D01*
X86897401Y-82266599D01*
X86135401Y-81504599D01*
X85888839Y-81339852D01*
X85598000Y-81282000D01*
X85148362Y-81282000D01*
X85266581Y-81108980D01*
X85317590Y-80857090D01*
X85317590Y-79157830D01*
X85273312Y-78922513D01*
X85134240Y-78706389D01*
X84922040Y-78561399D01*
X84670150Y-78510390D01*
X82970890Y-78510390D01*
X82735573Y-78554668D01*
X82519449Y-78693740D01*
X82374459Y-78905940D01*
X82323450Y-79157830D01*
X77616413Y-79157830D01*
X77586462Y-79085345D01*
X77127073Y-78625154D01*
X76526547Y-78375794D01*
X75876306Y-78375226D01*
X75275345Y-78623538D01*
X74815154Y-79082927D01*
X74565794Y-79683453D01*
X74565226Y-80333694D01*
X69265000Y-80333694D01*
X69265000Y-75253694D01*
X70755226Y-75253694D01*
X71003538Y-75854655D01*
X71462927Y-76314846D01*
X72063453Y-76564206D01*
X72713694Y-76564774D01*
X73314655Y-76316462D01*
X73774846Y-75857073D01*
X73844221Y-75690000D01*
X79832560Y-75690000D01*
X79832560Y-76280000D01*
X79876838Y-76515317D01*
X80015910Y-76731441D01*
X80228110Y-76876431D01*
X80480000Y-76927440D01*
X82080000Y-76927440D01*
X82315317Y-76883162D01*
X82531441Y-76744090D01*
X82676431Y-76531890D01*
X82727440Y-76280000D01*
X82727440Y-73580000D01*
X82683162Y-73344683D01*
X82681864Y-73342666D01*
X83314000Y-73974802D01*
X83314000Y-76454000D01*
X83371852Y-76744839D01*
X83536599Y-76991401D01*
X88870599Y-82325401D01*
X89117161Y-82490148D01*
X89408000Y-82548000D01*
X89478198Y-82548000D01*
X88616599Y-83409599D01*
X88451852Y-83656161D01*
X88394000Y-83947000D01*
X88394000Y-86426198D01*
X87442198Y-87378000D01*
X79502000Y-87378000D01*
X79211161Y-87435852D01*
X78964599Y-87600599D01*
X77453274Y-89111924D01*
X77127073Y-88785154D01*
X76526547Y-88535794D01*
X75876306Y-88535226D01*
X75275345Y-88783538D01*
X74815154Y-89242927D01*
X74745779Y-89410000D01*
X73844496Y-89410000D01*
X73776462Y-89245345D01*
X73317073Y-88785154D01*
X73150000Y-88715779D01*
X73150000Y-86544496D01*
X73314655Y-86476462D01*
X73774846Y-86017073D01*
X74024206Y-85416547D01*
X74024774Y-84766306D01*
X73776462Y-84165345D01*
X73317073Y-83705154D01*
X72716547Y-83455794D01*
X72066306Y-83455226D01*
X71465345Y-83703538D01*
X71005154Y-84162927D01*
X70755794Y-84763453D01*
X70755226Y-85413694D01*
X71003538Y-86014655D01*
X71462927Y-86474846D01*
X71630000Y-86544221D01*
X71630000Y-88715504D01*
X71465345Y-88783538D01*
X71005154Y-89242927D01*
X70755794Y-89843453D01*
X70755226Y-90493694D01*
X71003538Y-91094655D01*
X71462927Y-91554846D01*
X72063453Y-91804206D01*
X72713694Y-91804774D01*
X73314655Y-91556462D01*
X73774846Y-91097073D01*
X73844221Y-90930000D01*
X74745504Y-90930000D01*
X74813538Y-91094655D01*
X75272927Y-91554846D01*
X75440000Y-91624221D01*
X75440000Y-93795504D01*
X75275345Y-93863538D01*
X74815154Y-94322927D01*
X74565794Y-94923453D01*
X74565226Y-95573694D01*
X74813538Y-96174655D01*
X75272927Y-96634846D01*
X75873453Y-96884206D01*
X76523694Y-96884774D01*
X77124655Y-96636462D01*
X77584846Y-96177073D01*
X77834206Y-95576547D01*
X77834774Y-94926306D01*
X77586462Y-94325345D01*
X77127073Y-93865154D01*
X76960000Y-93795779D01*
X76960000Y-91624496D01*
X77124655Y-91556462D01*
X77584846Y-91097073D01*
X77670807Y-90890057D01*
X77760839Y-90872148D01*
X78007401Y-90707401D01*
X79816802Y-88898000D01*
X82489207Y-88898000D01*
X82374459Y-89065940D01*
X82323450Y-89317830D01*
X82323450Y-91017090D01*
X82367728Y-91252407D01*
X82506800Y-91468531D01*
X82719000Y-91613521D01*
X82970890Y-91664530D01*
X83105079Y-91664530D01*
X83118372Y-91731359D01*
X83283119Y-91977921D01*
X84044599Y-92739401D01*
X84291160Y-92904148D01*
X84582000Y-92962000D01*
X85283198Y-92962000D01*
X85600000Y-93278802D01*
X85600000Y-93476230D01*
X85345302Y-93646414D01*
X85034233Y-94111961D01*
X84925000Y-94661112D01*
X84925000Y-95838888D01*
X85034233Y-96388039D01*
X85345302Y-96853586D01*
X85810849Y-97164655D01*
X86360000Y-97273888D01*
X86909151Y-97164655D01*
X87374698Y-96853586D01*
X87685767Y-96388039D01*
X87795000Y-95838888D01*
X87795000Y-94661112D01*
X90005000Y-94661112D01*
X90005000Y-95838888D01*
X90114233Y-96388039D01*
X90425302Y-96853586D01*
X90890849Y-97164655D01*
X91440000Y-97273888D01*
X91989151Y-97164655D01*
X92454698Y-96853586D01*
X92765767Y-96388039D01*
X92875000Y-95838888D01*
X92875000Y-94661112D01*
X92765767Y-94111961D01*
X92454698Y-93646414D01*
X91989151Y-93335345D01*
X91440000Y-93226112D01*
X90890849Y-93335345D01*
X90425302Y-93646414D01*
X90114233Y-94111961D01*
X90005000Y-94661112D01*
X87795000Y-94661112D01*
X87685767Y-94111961D01*
X87374698Y-93646414D01*
X87120000Y-93476230D01*
X87120000Y-92964000D01*
X87062148Y-92673161D01*
X86897401Y-92426599D01*
X86135401Y-91664599D01*
X85888839Y-91499852D01*
X85598000Y-91442000D01*
X85148362Y-91442000D01*
X85266581Y-91268980D01*
X85317590Y-91017090D01*
X85317590Y-90461476D01*
X92495632Y-90461476D01*
X92721178Y-91007337D01*
X93138446Y-91425334D01*
X93683913Y-91651832D01*
X94274536Y-91652348D01*
X94820397Y-91426802D01*
X95238394Y-91009534D01*
X95464892Y-90464067D01*
X95465408Y-89873444D01*
X95239862Y-89327583D01*
X94822594Y-88909586D01*
X94277127Y-88683088D01*
X93686504Y-88682572D01*
X93140643Y-88908118D01*
X92722646Y-89325386D01*
X92496148Y-89870853D01*
X92495632Y-90461476D01*
X85317590Y-90461476D01*
X85317590Y-89317830D01*
X85273312Y-89082513D01*
X85154581Y-88898000D01*
X87757000Y-88898000D01*
X88047839Y-88840148D01*
X88294401Y-88675401D01*
X89691401Y-87278401D01*
X89856148Y-87031840D01*
X89914000Y-86741000D01*
X89914000Y-84261802D01*
X90087017Y-84088785D01*
X90005000Y-84501112D01*
X90005000Y-85678888D01*
X90114233Y-86228039D01*
X90425302Y-86693586D01*
X90890849Y-87004655D01*
X91440000Y-87113888D01*
X91989151Y-87004655D01*
X92454698Y-86693586D01*
X92765767Y-86228039D01*
X92875000Y-85678888D01*
X92875000Y-84501112D01*
X92765767Y-83951961D01*
X92454698Y-83486414D01*
X92380745Y-83437000D01*
X95579255Y-83437000D01*
X95505302Y-83486414D01*
X95194233Y-83951961D01*
X95085000Y-84501112D01*
X95085000Y-85678888D01*
X95194233Y-86228039D01*
X95505302Y-86693586D01*
X95760000Y-86863770D01*
X95760000Y-93476230D01*
X95505302Y-93646414D01*
X95194233Y-94111961D01*
X95085000Y-94661112D01*
X95085000Y-95838888D01*
X95194233Y-96388039D01*
X95505302Y-96853586D01*
X95760000Y-97023770D01*
X95760000Y-103636230D01*
X95505302Y-103806414D01*
X95194233Y-104271961D01*
X95085000Y-104821112D01*
X95085000Y-105998888D01*
X95194233Y-106548039D01*
X95505302Y-107013586D01*
X95970849Y-107324655D01*
X96520000Y-107433888D01*
X97069151Y-107324655D01*
X97534698Y-107013586D01*
X97541307Y-107003694D01*
X102505226Y-107003694D01*
X102753538Y-107604655D01*
X103212927Y-108064846D01*
X103813453Y-108314206D01*
X104463694Y-108314774D01*
X105064655Y-108066462D01*
X105524846Y-107607073D01*
X105774206Y-107006547D01*
X105774774Y-106356306D01*
X105526462Y-105755345D01*
X105067073Y-105295154D01*
X104466547Y-105045794D01*
X103816306Y-105045226D01*
X103215345Y-105293538D01*
X102755154Y-105752927D01*
X102505794Y-106353453D01*
X102505226Y-107003694D01*
X97541307Y-107003694D01*
X97845767Y-106548039D01*
X97955000Y-105998888D01*
X97955000Y-104821112D01*
X97845767Y-104271961D01*
X97534698Y-103806414D01*
X97280000Y-103636230D01*
X97280000Y-97023770D01*
X97534698Y-96853586D01*
X97845767Y-96388039D01*
X97955000Y-95838888D01*
X97955000Y-94661112D01*
X97845767Y-94111961D01*
X97534698Y-93646414D01*
X97280000Y-93476230D01*
X97280000Y-86863770D01*
X97534698Y-86693586D01*
X97845767Y-86228039D01*
X97955000Y-85678888D01*
X97955000Y-84501112D01*
X97845767Y-83951961D01*
X97534698Y-83486414D01*
X97460745Y-83437000D01*
X98116537Y-83437000D01*
X98148673Y-83469192D01*
X98492201Y-83611838D01*
X98864167Y-83612162D01*
X99207943Y-83470117D01*
X99471192Y-83207327D01*
X99613838Y-82863799D01*
X99614113Y-82548000D01*
X101346000Y-82548000D01*
X101636839Y-82490148D01*
X101883401Y-82325401D01*
X102872000Y-81336802D01*
X102872000Y-81534000D01*
X102929852Y-81824839D01*
X103084447Y-82056208D01*
X102755154Y-82384927D01*
X102505794Y-82985453D01*
X102505226Y-83635694D01*
X102753538Y-84236655D01*
X103212927Y-84696846D01*
X103813453Y-84946206D01*
X104463694Y-84946774D01*
X105064655Y-84698462D01*
X105524846Y-84239073D01*
X105774206Y-83638547D01*
X105774774Y-82988306D01*
X105526462Y-82387345D01*
X105067073Y-81927154D01*
X104860057Y-81841193D01*
X104842148Y-81751161D01*
X104677401Y-81504599D01*
X104392000Y-81219198D01*
X104392000Y-75438000D01*
X104334148Y-75147161D01*
X104169401Y-74900599D01*
X103563802Y-74295000D01*
X103990112Y-73868690D01*
X105430000Y-73868690D01*
X105430000Y-74009250D01*
X105588750Y-74168000D01*
X106713000Y-74168000D01*
X106713000Y-73518750D01*
X106554250Y-73360000D01*
X105938691Y-73360000D01*
X105705302Y-73456673D01*
X105526673Y-73635301D01*
X105430000Y-73868690D01*
X103990112Y-73868690D01*
X104677401Y-73181401D01*
X104842148Y-72934839D01*
X104900000Y-72644000D01*
X104900000Y-71237908D01*
X105013691Y-71285000D01*
X105854250Y-71285000D01*
X106013000Y-71126250D01*
X106013000Y-69977000D01*
X105993000Y-69977000D01*
X105993000Y-69723000D01*
X106013000Y-69723000D01*
X106013000Y-68573750D01*
X105854250Y-68415000D01*
X105013691Y-68415000D01*
X104900000Y-68462092D01*
X104900000Y-67310000D01*
X104842148Y-67019161D01*
X104842148Y-67019160D01*
X104677401Y-66772599D01*
X104435885Y-66531083D01*
X104504206Y-66366547D01*
X104504774Y-65716306D01*
X104256462Y-65115345D01*
X103797073Y-64655154D01*
X103196547Y-64405794D01*
X102546306Y-64405226D01*
X101945345Y-64653538D01*
X101485154Y-65112927D01*
X101235794Y-65713453D01*
X101235226Y-66363694D01*
X101483538Y-66964655D01*
X101942927Y-67424846D01*
X102543453Y-67674206D01*
X103193694Y-67674774D01*
X103360889Y-67605691D01*
X103380000Y-67624802D01*
X103380000Y-68451161D01*
X103140000Y-68402560D01*
X101140000Y-68402560D01*
X100904683Y-68446838D01*
X100688559Y-68585910D01*
X100543569Y-68798110D01*
X100492560Y-69050000D01*
X100492560Y-69058451D01*
X100391459Y-69078561D01*
X100183374Y-69217599D01*
X100120566Y-69259566D01*
X98977566Y-70402566D01*
X98796561Y-70673459D01*
X98733000Y-70993000D01*
X98733000Y-77343000D01*
X98796561Y-77662541D01*
X98947100Y-77887839D01*
X98977566Y-77933434D01*
X99739566Y-78695434D01*
X100010460Y-78876440D01*
X100025667Y-78879465D01*
X99732672Y-79172460D01*
X95241877Y-79172460D01*
X95239862Y-79167583D01*
X94822594Y-78749586D01*
X94277127Y-78523088D01*
X93686504Y-78522572D01*
X93140643Y-78748118D01*
X92722646Y-79165386D01*
X92496148Y-79710853D01*
X92495632Y-80301476D01*
X92721178Y-80847337D01*
X92901526Y-81028000D01*
X89722802Y-81028000D01*
X84834000Y-76139198D01*
X84834000Y-73660000D01*
X84776148Y-73369161D01*
X84611401Y-73122599D01*
X82802000Y-71313198D01*
X82802000Y-71310329D01*
X82970890Y-71344530D01*
X83105079Y-71344530D01*
X83118372Y-71411359D01*
X83283119Y-71657921D01*
X84044599Y-72419401D01*
X84291160Y-72584148D01*
X84582000Y-72642000D01*
X85283198Y-72642000D01*
X85600000Y-72958802D01*
X85600000Y-73156230D01*
X85345302Y-73326414D01*
X85034233Y-73791961D01*
X84925000Y-74341112D01*
X84925000Y-75518888D01*
X85034233Y-76068039D01*
X85345302Y-76533586D01*
X85810849Y-76844655D01*
X86360000Y-76953888D01*
X86909151Y-76844655D01*
X87374698Y-76533586D01*
X87685767Y-76068039D01*
X87795000Y-75518888D01*
X87795000Y-74341112D01*
X90005000Y-74341112D01*
X90005000Y-75518888D01*
X90114233Y-76068039D01*
X90425302Y-76533586D01*
X90890849Y-76844655D01*
X91440000Y-76953888D01*
X91989151Y-76844655D01*
X92454698Y-76533586D01*
X92765767Y-76068039D01*
X92875000Y-75518888D01*
X92875000Y-74341112D01*
X95085000Y-74341112D01*
X95085000Y-75518888D01*
X95194233Y-76068039D01*
X95505302Y-76533586D01*
X95970849Y-76844655D01*
X96520000Y-76953888D01*
X97069151Y-76844655D01*
X97534698Y-76533586D01*
X97845767Y-76068039D01*
X97955000Y-75518888D01*
X97955000Y-74341112D01*
X97845767Y-73791961D01*
X97534698Y-73326414D01*
X97069151Y-73015345D01*
X96520000Y-72906112D01*
X95970849Y-73015345D01*
X95505302Y-73326414D01*
X95194233Y-73791961D01*
X95085000Y-74341112D01*
X92875000Y-74341112D01*
X92765767Y-73791961D01*
X92454698Y-73326414D01*
X91989151Y-73015345D01*
X91440000Y-72906112D01*
X90890849Y-73015345D01*
X90425302Y-73326414D01*
X90114233Y-73791961D01*
X90005000Y-74341112D01*
X87795000Y-74341112D01*
X87685767Y-73791961D01*
X87374698Y-73326414D01*
X87120000Y-73156230D01*
X87120000Y-72644000D01*
X87062148Y-72353161D01*
X86897401Y-72106599D01*
X86135401Y-71344599D01*
X85888839Y-71179852D01*
X85598000Y-71122000D01*
X85148362Y-71122000D01*
X85266581Y-70948980D01*
X85317590Y-70697090D01*
X85317590Y-70141476D01*
X92495632Y-70141476D01*
X92721178Y-70687337D01*
X93138446Y-71105334D01*
X93683913Y-71331832D01*
X94274536Y-71332348D01*
X94820397Y-71106802D01*
X95238394Y-70689534D01*
X95464892Y-70144067D01*
X95465408Y-69553444D01*
X95239862Y-69007583D01*
X94822594Y-68589586D01*
X94277127Y-68363088D01*
X93686504Y-68362572D01*
X93140643Y-68588118D01*
X92722646Y-69005386D01*
X92496148Y-69550853D01*
X92495632Y-70141476D01*
X85317590Y-70141476D01*
X85317590Y-68997830D01*
X85273312Y-68762513D01*
X85134240Y-68546389D01*
X84922040Y-68401399D01*
X84670150Y-68350390D01*
X82970890Y-68350390D01*
X82802000Y-68382169D01*
X82802000Y-67564000D01*
X82744148Y-67273161D01*
X82579401Y-67026599D01*
X82282196Y-66729394D01*
X82315317Y-66723162D01*
X82531441Y-66584090D01*
X82676431Y-66371890D01*
X82727440Y-66120000D01*
X82727440Y-63420000D01*
X82683162Y-63184683D01*
X82544090Y-62968559D01*
X82331890Y-62823569D01*
X82080000Y-62772560D01*
X80480000Y-62772560D01*
X80244683Y-62816838D01*
X80028559Y-62955910D01*
X79883569Y-63168110D01*
X79832560Y-63420000D01*
X79832560Y-66120000D01*
X79876838Y-66355317D01*
X80015910Y-66571441D01*
X80228110Y-66716431D01*
X80480000Y-66767440D01*
X80520000Y-66767440D01*
X80520000Y-66802000D01*
X80577852Y-67092839D01*
X80742599Y-67339401D01*
X81282000Y-67878802D01*
X81282000Y-71628000D01*
X81339852Y-71918839D01*
X81504599Y-72165401D01*
X82320450Y-72981252D01*
X82080000Y-72932560D01*
X80480000Y-72932560D01*
X80244683Y-72976838D01*
X80028559Y-73115910D01*
X79883569Y-73328110D01*
X79832560Y-73580000D01*
X79832560Y-74170000D01*
X73844496Y-74170000D01*
X73776462Y-74005345D01*
X73317073Y-73545154D01*
X72716547Y-73295794D01*
X72066306Y-73295226D01*
X71465345Y-73543538D01*
X71005154Y-74002927D01*
X70755794Y-74603453D01*
X70755226Y-75253694D01*
X69265000Y-75253694D01*
X69265000Y-70850000D01*
X74702560Y-70850000D01*
X74702560Y-72850000D01*
X74746838Y-73085317D01*
X74885910Y-73301441D01*
X75098110Y-73446431D01*
X75350000Y-73497440D01*
X77050000Y-73497440D01*
X77285317Y-73453162D01*
X77501441Y-73314090D01*
X77646431Y-73101890D01*
X77697440Y-72850000D01*
X77697440Y-72531033D01*
X77912401Y-72387401D01*
X79023401Y-71276401D01*
X79188148Y-71029840D01*
X79246000Y-70739000D01*
X79246000Y-61274802D01*
X80073342Y-60447460D01*
X82323450Y-60447460D01*
X82323450Y-60537090D01*
X82367728Y-60772407D01*
X82506800Y-60988531D01*
X82719000Y-61133521D01*
X82970890Y-61184530D01*
X83105079Y-61184530D01*
X83118372Y-61251359D01*
X83283119Y-61497921D01*
X84044599Y-62259401D01*
X84291160Y-62424148D01*
X84582000Y-62482000D01*
X85283198Y-62482000D01*
X85600000Y-62798802D01*
X85600000Y-62996230D01*
X85345302Y-63166414D01*
X85034233Y-63631961D01*
X84925000Y-64181112D01*
X84925000Y-65358888D01*
X85034233Y-65908039D01*
X85345302Y-66373586D01*
X85810849Y-66684655D01*
X86360000Y-66793888D01*
X86909151Y-66684655D01*
X87374698Y-66373586D01*
X87685767Y-65908039D01*
X87795000Y-65358888D01*
X87795000Y-64181112D01*
X90005000Y-64181112D01*
X90005000Y-65358888D01*
X90114233Y-65908039D01*
X90425302Y-66373586D01*
X90890849Y-66684655D01*
X91440000Y-66793888D01*
X91989151Y-66684655D01*
X92454698Y-66373586D01*
X92765767Y-65908039D01*
X92875000Y-65358888D01*
X92875000Y-64181112D01*
X95085000Y-64181112D01*
X95085000Y-65358888D01*
X95194233Y-65908039D01*
X95505302Y-66373586D01*
X95970849Y-66684655D01*
X96520000Y-66793888D01*
X97069151Y-66684655D01*
X97534698Y-66373586D01*
X97845767Y-65908039D01*
X97955000Y-65358888D01*
X97955000Y-64181112D01*
X97845767Y-63631961D01*
X97534698Y-63166414D01*
X97069151Y-62855345D01*
X96520000Y-62746112D01*
X95970849Y-62855345D01*
X95505302Y-63166414D01*
X95194233Y-63631961D01*
X95085000Y-64181112D01*
X92875000Y-64181112D01*
X92765767Y-63631961D01*
X92454698Y-63166414D01*
X92275000Y-63046343D01*
X92275000Y-62575868D01*
X93680467Y-61170401D01*
X93683913Y-61171832D01*
X94274536Y-61172348D01*
X94820397Y-60946802D01*
X95238394Y-60529534D01*
X95464892Y-59984067D01*
X95465408Y-59393444D01*
X95239862Y-58847583D01*
X95066582Y-58674000D01*
X98818960Y-58674000D01*
X98818960Y-60706000D01*
X98863238Y-60941317D01*
X99002310Y-61157441D01*
X99214510Y-61302431D01*
X99466400Y-61353440D01*
X101193600Y-61353440D01*
X101428917Y-61309162D01*
X101645041Y-61170090D01*
X101790031Y-60957890D01*
X101798400Y-60916561D01*
X101810330Y-60934415D01*
X102296511Y-61259271D01*
X102870000Y-61373345D01*
X103443489Y-61259271D01*
X103929670Y-60934415D01*
X104140000Y-60619634D01*
X104350330Y-60934415D01*
X104836511Y-61259271D01*
X105410000Y-61373345D01*
X105983489Y-61259271D01*
X106469670Y-60934415D01*
X106793346Y-60450000D01*
X107254198Y-60450000D01*
X107698000Y-60893802D01*
X107698000Y-68737796D01*
X107678327Y-68690301D01*
X107499698Y-68511673D01*
X107266309Y-68415000D01*
X106425750Y-68415000D01*
X106267000Y-68573750D01*
X106267000Y-69723000D01*
X106287000Y-69723000D01*
X106287000Y-69977000D01*
X106267000Y-69977000D01*
X106267000Y-71126250D01*
X106425750Y-71285000D01*
X107266309Y-71285000D01*
X107499698Y-71188327D01*
X107678327Y-71009699D01*
X107698000Y-70962204D01*
X107698000Y-73360000D01*
X107125750Y-73360000D01*
X106967000Y-73518750D01*
X106967000Y-74168000D01*
X106987000Y-74168000D01*
X106987000Y-74422000D01*
X106967000Y-74422000D01*
X106967000Y-74442000D01*
X106713000Y-74442000D01*
X106713000Y-74422000D01*
X105588750Y-74422000D01*
X105430000Y-74580750D01*
X105430000Y-74721310D01*
X105519806Y-74938122D01*
X105468569Y-75013110D01*
X105417560Y-75265000D01*
X105417560Y-75865000D01*
X105461838Y-76100317D01*
X105470335Y-76113522D01*
X105373160Y-76132852D01*
X105126599Y-76297599D01*
X104872599Y-76551599D01*
X104707852Y-76798161D01*
X104650000Y-77089000D01*
X104650000Y-79629000D01*
X104707852Y-79919839D01*
X104872599Y-80166401D01*
X106523599Y-81817401D01*
X106770161Y-81982148D01*
X107061000Y-82040000D01*
X109035504Y-82040000D01*
X109103538Y-82204655D01*
X109448480Y-82550199D01*
X109105154Y-82892927D01*
X108855794Y-83493453D01*
X108855226Y-84143694D01*
X109103538Y-84744655D01*
X109562927Y-85204846D01*
X110163453Y-85454206D01*
X110813694Y-85454774D01*
X111414655Y-85206462D01*
X111508000Y-85113280D01*
X111508000Y-86680197D01*
X106015599Y-92172599D01*
X105559908Y-92628290D01*
X105526462Y-92547345D01*
X105067073Y-92087154D01*
X104466547Y-91837794D01*
X103816306Y-91837226D01*
X103215345Y-92085538D01*
X102755154Y-92544927D01*
X102505794Y-93145453D01*
X102505226Y-93795694D01*
X102753538Y-94396655D01*
X103212927Y-94856846D01*
X103380000Y-94926221D01*
X103380000Y-95065504D01*
X103215345Y-95133538D01*
X102755154Y-95592927D01*
X102505794Y-96193453D01*
X102505226Y-96843694D01*
X102753538Y-97444655D01*
X103212927Y-97904846D01*
X103813453Y-98154206D01*
X104463694Y-98154774D01*
X105064655Y-97906462D01*
X105524846Y-97447073D01*
X105774206Y-96846547D01*
X105774774Y-96196306D01*
X105526462Y-95595345D01*
X105067073Y-95135154D01*
X104900000Y-95065779D01*
X104900000Y-94926496D01*
X105064655Y-94858462D01*
X105524846Y-94399073D01*
X105594221Y-94232000D01*
X105791000Y-94232000D01*
X106081839Y-94174148D01*
X106328401Y-94009401D01*
X107090401Y-93247401D01*
X107715431Y-92622372D01*
X107698000Y-92710000D01*
X107698000Y-104648000D01*
X107755852Y-104938839D01*
X107920599Y-105185401D01*
X108924115Y-106188917D01*
X108855794Y-106353453D01*
X108855226Y-107003694D01*
X109103538Y-107604655D01*
X109562927Y-108064846D01*
X110163453Y-108314206D01*
X110813694Y-108314774D01*
X111414655Y-108066462D01*
X111874846Y-107607073D01*
X112124206Y-107006547D01*
X112124713Y-106425750D01*
X112815000Y-106425750D01*
X112815000Y-107266309D01*
X112911673Y-107499698D01*
X113090301Y-107678327D01*
X113323690Y-107775000D01*
X114014250Y-107775000D01*
X114173000Y-107616250D01*
X114173000Y-106267000D01*
X114427000Y-106267000D01*
X114427000Y-107616250D01*
X114585750Y-107775000D01*
X115276310Y-107775000D01*
X115509699Y-107678327D01*
X115688327Y-107499698D01*
X115785000Y-107266309D01*
X115785000Y-106425750D01*
X115626250Y-106267000D01*
X114427000Y-106267000D01*
X114173000Y-106267000D01*
X112973750Y-106267000D01*
X112815000Y-106425750D01*
X112124713Y-106425750D01*
X112124774Y-106356306D01*
X111876462Y-105755345D01*
X111417073Y-105295154D01*
X110816547Y-105045794D01*
X110166306Y-105045226D01*
X109999111Y-105114309D01*
X109898493Y-105013691D01*
X112815000Y-105013691D01*
X112815000Y-105854250D01*
X112973750Y-106013000D01*
X114173000Y-106013000D01*
X114173000Y-104663750D01*
X114427000Y-104663750D01*
X114427000Y-106013000D01*
X115626250Y-106013000D01*
X115785000Y-105854250D01*
X115785000Y-105013691D01*
X115688327Y-104780302D01*
X115509699Y-104601673D01*
X115276310Y-104505000D01*
X114585750Y-104505000D01*
X114427000Y-104663750D01*
X114173000Y-104663750D01*
X114014250Y-104505000D01*
X113323690Y-104505000D01*
X113090301Y-104601673D01*
X112911673Y-104780302D01*
X112815000Y-105013691D01*
X109898493Y-105013691D01*
X109218000Y-104333198D01*
X109218000Y-97559317D01*
X109562927Y-97904846D01*
X110163453Y-98154206D01*
X110813694Y-98154774D01*
X111414655Y-97906462D01*
X111874846Y-97447073D01*
X112124206Y-96846547D01*
X112124774Y-96196306D01*
X111876462Y-95595345D01*
X111531520Y-95249801D01*
X111874846Y-94907073D01*
X112124206Y-94306547D01*
X112124774Y-93656306D01*
X112055691Y-93489111D01*
X112709802Y-92835000D01*
X112764666Y-92835000D01*
X112730000Y-92918690D01*
X112730000Y-93059250D01*
X112888750Y-93218000D01*
X114013000Y-93218000D01*
X114013000Y-93198000D01*
X114267000Y-93198000D01*
X114267000Y-93218000D01*
X115391250Y-93218000D01*
X115550000Y-93059250D01*
X115550000Y-92918690D01*
X115460194Y-92701878D01*
X115511431Y-92626890D01*
X115562440Y-92375000D01*
X115562440Y-91775000D01*
X115518162Y-91539683D01*
X115454322Y-91440472D01*
X115511431Y-91356890D01*
X115562440Y-91105000D01*
X115562440Y-90505000D01*
X115518162Y-90269683D01*
X115379090Y-90053559D01*
X115166890Y-89908569D01*
X114915000Y-89857560D01*
X114900000Y-89857560D01*
X114900000Y-89492952D01*
X115032599Y-89691401D01*
X117953599Y-92612401D01*
X118185959Y-92767659D01*
X118168569Y-92793110D01*
X118117560Y-93045000D01*
X118117560Y-93645000D01*
X118161838Y-93880317D01*
X118225678Y-93979528D01*
X118168569Y-94063110D01*
X118117560Y-94315000D01*
X118117560Y-94915000D01*
X118161838Y-95150317D01*
X118300910Y-95366441D01*
X118513110Y-95511431D01*
X118545257Y-95517941D01*
X117572599Y-96490599D01*
X117444335Y-96682560D01*
X117260000Y-96682560D01*
X117024683Y-96726838D01*
X116808559Y-96865910D01*
X116663569Y-97078110D01*
X116612560Y-97330000D01*
X116612560Y-99330000D01*
X116656838Y-99565317D01*
X116659851Y-99570000D01*
X116586000Y-99570000D01*
X116295161Y-99627852D01*
X116127969Y-99739566D01*
X116048599Y-99792599D01*
X115540599Y-100300599D01*
X115381069Y-100539353D01*
X115150000Y-100492560D01*
X114900000Y-100492560D01*
X114900000Y-95562440D01*
X114915000Y-95562440D01*
X115150317Y-95518162D01*
X115366441Y-95379090D01*
X115511431Y-95166890D01*
X115562440Y-94915000D01*
X115562440Y-94315000D01*
X115518162Y-94079683D01*
X115459822Y-93989020D01*
X115550000Y-93771310D01*
X115550000Y-93630750D01*
X115391250Y-93472000D01*
X114267000Y-93472000D01*
X114267000Y-93492000D01*
X114013000Y-93492000D01*
X114013000Y-93472000D01*
X112888750Y-93472000D01*
X112730000Y-93630750D01*
X112730000Y-93771310D01*
X112819806Y-93988122D01*
X112768569Y-94063110D01*
X112717560Y-94315000D01*
X112717560Y-94915000D01*
X112761838Y-95150317D01*
X112900910Y-95366441D01*
X113113110Y-95511431D01*
X113365000Y-95562440D01*
X113380000Y-95562440D01*
X113380000Y-100505731D01*
X113214683Y-100536838D01*
X112998559Y-100675910D01*
X112853569Y-100888110D01*
X112802560Y-101140000D01*
X112802560Y-103140000D01*
X112846838Y-103375317D01*
X112985910Y-103591441D01*
X113198110Y-103736431D01*
X113450000Y-103787440D01*
X115150000Y-103787440D01*
X115385317Y-103743162D01*
X115601441Y-103604090D01*
X115746431Y-103391890D01*
X115797440Y-103140000D01*
X115797440Y-102848394D01*
X115828839Y-102842148D01*
X116075401Y-102677401D01*
X116137052Y-102615750D01*
X116625000Y-102615750D01*
X116625000Y-103456309D01*
X116721673Y-103689698D01*
X116900301Y-103868327D01*
X117133690Y-103965000D01*
X117824250Y-103965000D01*
X117983000Y-103806250D01*
X117983000Y-102457000D01*
X116783750Y-102457000D01*
X116625000Y-102615750D01*
X116137052Y-102615750D01*
X116615401Y-102137401D01*
X116656557Y-102075807D01*
X116783750Y-102203000D01*
X117983000Y-102203000D01*
X117983000Y-102183000D01*
X118237000Y-102183000D01*
X118237000Y-102203000D01*
X118257000Y-102203000D01*
X118257000Y-102457000D01*
X118237000Y-102457000D01*
X118237000Y-103806250D01*
X118395750Y-103965000D01*
X119086310Y-103965000D01*
X119319699Y-103868327D01*
X119382000Y-103806026D01*
X119382000Y-103886000D01*
X119439852Y-104176839D01*
X119604599Y-104423401D01*
X120256187Y-105074989D01*
X120076511Y-105110729D01*
X119590330Y-105435585D01*
X119265474Y-105921766D01*
X119151400Y-106495255D01*
X119151400Y-106864745D01*
X119265474Y-107438234D01*
X119590330Y-107924415D01*
X120076511Y-108249271D01*
X120650000Y-108363345D01*
X121223489Y-108249271D01*
X121709670Y-107924415D01*
X121920000Y-107609634D01*
X122130330Y-107924415D01*
X122616511Y-108249271D01*
X123190000Y-108363345D01*
X123763489Y-108249271D01*
X124249670Y-107924415D01*
X124460000Y-107609634D01*
X124670330Y-107924415D01*
X125156511Y-108249271D01*
X125730000Y-108363345D01*
X126303489Y-108249271D01*
X126789670Y-107924415D01*
X127000000Y-107609634D01*
X127210330Y-107924415D01*
X127696511Y-108249271D01*
X128270000Y-108363345D01*
X128843489Y-108249271D01*
X129329670Y-107924415D01*
X129536461Y-107614931D01*
X129907964Y-108030732D01*
X130435209Y-108284709D01*
X130450974Y-108287358D01*
X130683000Y-108166217D01*
X130683000Y-106807000D01*
X130663000Y-106807000D01*
X130663000Y-106553000D01*
X130683000Y-106553000D01*
X130683000Y-105193783D01*
X130450974Y-105072642D01*
X130435209Y-105075291D01*
X129907964Y-105329268D01*
X129536461Y-105745069D01*
X129329670Y-105435585D01*
X128843489Y-105110729D01*
X128663813Y-105074989D01*
X129442401Y-104296401D01*
X129606833Y-104050310D01*
X129623110Y-104061431D01*
X129875000Y-104112440D01*
X130475000Y-104112440D01*
X130696490Y-104070764D01*
X130742852Y-104303839D01*
X130907599Y-104550401D01*
X131542599Y-105185401D01*
X131789161Y-105350148D01*
X131915178Y-105375215D01*
X131889969Y-105412110D01*
X131870768Y-105506927D01*
X131712036Y-105329268D01*
X131184791Y-105075291D01*
X131169026Y-105072642D01*
X130937000Y-105193783D01*
X130937000Y-106553000D01*
X130957000Y-106553000D01*
X130957000Y-106807000D01*
X130937000Y-106807000D01*
X130937000Y-108166217D01*
X131169026Y-108287358D01*
X131184791Y-108284709D01*
X131712036Y-108030732D01*
X131868907Y-107855155D01*
X131883238Y-107931317D01*
X132022310Y-108147441D01*
X132234510Y-108292431D01*
X132486400Y-108343440D01*
X134213600Y-108343440D01*
X134448917Y-108299162D01*
X134665041Y-108160090D01*
X134810031Y-107947890D01*
X134861040Y-107696000D01*
X134861040Y-106425750D01*
X136995000Y-106425750D01*
X136995000Y-107266309D01*
X137091673Y-107499698D01*
X137270301Y-107678327D01*
X137503690Y-107775000D01*
X138144250Y-107775000D01*
X138303000Y-107616250D01*
X138303000Y-106267000D01*
X138557000Y-106267000D01*
X138557000Y-107616250D01*
X138715750Y-107775000D01*
X139356310Y-107775000D01*
X139589699Y-107678327D01*
X139768327Y-107499698D01*
X139865000Y-107266309D01*
X139865000Y-106722591D01*
X146223646Y-106722591D01*
X146525209Y-107452429D01*
X147083114Y-108011309D01*
X147812425Y-108314145D01*
X148602111Y-108314834D01*
X149331949Y-108013271D01*
X149890829Y-107455366D01*
X150193665Y-106726055D01*
X150194354Y-105936369D01*
X149892791Y-105206531D01*
X149334886Y-104647651D01*
X148605575Y-104344815D01*
X147815889Y-104344126D01*
X147086051Y-104645689D01*
X146527171Y-105203594D01*
X146224335Y-105932905D01*
X146223646Y-106722591D01*
X139865000Y-106722591D01*
X139865000Y-106425750D01*
X139706250Y-106267000D01*
X138557000Y-106267000D01*
X138303000Y-106267000D01*
X137153750Y-106267000D01*
X136995000Y-106425750D01*
X134861040Y-106425750D01*
X134861040Y-105664000D01*
X134816762Y-105428683D01*
X134803453Y-105408000D01*
X135382000Y-105408000D01*
X135672839Y-105350148D01*
X135776327Y-105281000D01*
X136995000Y-105281000D01*
X136995000Y-105854250D01*
X137153750Y-106013000D01*
X138303000Y-106013000D01*
X138303000Y-105993000D01*
X138557000Y-105993000D01*
X138557000Y-106013000D01*
X139706250Y-106013000D01*
X139865000Y-105854250D01*
X139865000Y-105281000D01*
X140528198Y-105281000D01*
X140559599Y-105312401D01*
X140806160Y-105477148D01*
X141097000Y-105535000D01*
X144399000Y-105535000D01*
X144689839Y-105477148D01*
X144936401Y-105312401D01*
X147476401Y-102772401D01*
X147641148Y-102525840D01*
X147660045Y-102430839D01*
X147699000Y-102235000D01*
X147699000Y-100838000D01*
X147666410Y-100674161D01*
X147641148Y-100547160D01*
X147476401Y-100300599D01*
X147095401Y-99919599D01*
X146848839Y-99754852D01*
X146741932Y-99733587D01*
X146905737Y-99339100D01*
X146906222Y-98783339D01*
X146693990Y-98269697D01*
X146301350Y-97876371D01*
X145788080Y-97663243D01*
X145232319Y-97662758D01*
X144718677Y-97874990D01*
X144325351Y-98267630D01*
X144214134Y-98535471D01*
X143689605Y-99060000D01*
X143703748Y-99074143D01*
X143524143Y-99253748D01*
X143510000Y-99239605D01*
X143495858Y-99253748D01*
X143316253Y-99074143D01*
X143330395Y-99060000D01*
X142529787Y-98259392D01*
X142287603Y-98328857D01*
X142100856Y-98852302D01*
X142128638Y-99407368D01*
X142180317Y-99532133D01*
X142047460Y-99558560D01*
X141776566Y-99739566D01*
X140211132Y-101305000D01*
X139877440Y-101305000D01*
X139877440Y-101140000D01*
X139833162Y-100904683D01*
X139694090Y-100688559D01*
X139481890Y-100543569D01*
X139230000Y-100492560D01*
X137630000Y-100492560D01*
X137394683Y-100536838D01*
X137178559Y-100675910D01*
X137033569Y-100888110D01*
X136982560Y-101140000D01*
X136982560Y-101305000D01*
X136493000Y-101305000D01*
X136173460Y-101368560D01*
X135902566Y-101549566D01*
X135797132Y-101655000D01*
X134932440Y-101655000D01*
X134932440Y-101515000D01*
X134888162Y-101279683D01*
X134749090Y-101063559D01*
X134536890Y-100918569D01*
X134285000Y-100867560D01*
X133685000Y-100867560D01*
X133449683Y-100911838D01*
X133350472Y-100975678D01*
X133266890Y-100918569D01*
X133015000Y-100867560D01*
X132415000Y-100867560D01*
X132179683Y-100911838D01*
X132080472Y-100975678D01*
X131996890Y-100918569D01*
X131745000Y-100867560D01*
X131347242Y-100867560D01*
X132934802Y-99280000D01*
X136982560Y-99280000D01*
X136982560Y-99520000D01*
X137026838Y-99755317D01*
X137165910Y-99971441D01*
X137378110Y-100116431D01*
X137630000Y-100167440D01*
X139230000Y-100167440D01*
X139465317Y-100123162D01*
X139681441Y-99984090D01*
X139826431Y-99771890D01*
X139877440Y-99520000D01*
X139877440Y-98079787D01*
X142709392Y-98079787D01*
X143510000Y-98880395D01*
X144310608Y-98079787D01*
X144241143Y-97837603D01*
X143717698Y-97650856D01*
X143162632Y-97678638D01*
X142778857Y-97837603D01*
X142709392Y-98079787D01*
X139877440Y-98079787D01*
X139877440Y-97520000D01*
X139833162Y-97284683D01*
X139694090Y-97068559D01*
X139481890Y-96923569D01*
X139230000Y-96872560D01*
X137630000Y-96872560D01*
X137394683Y-96916838D01*
X137178559Y-97055910D01*
X137033569Y-97268110D01*
X136982560Y-97520000D01*
X136982560Y-97760000D01*
X132620000Y-97760000D01*
X132329161Y-97817852D01*
X132082599Y-97982599D01*
X129637599Y-100427599D01*
X129472852Y-100674161D01*
X129425500Y-100912212D01*
X129205000Y-100867560D01*
X128605000Y-100867560D01*
X128369683Y-100911838D01*
X128270472Y-100975678D01*
X128186890Y-100918569D01*
X127935000Y-100867560D01*
X127335000Y-100867560D01*
X127125000Y-100907074D01*
X127125000Y-100457000D01*
X127068628Y-100173599D01*
X127067148Y-100166160D01*
X126902401Y-99919599D01*
X125601000Y-98618198D01*
X125601000Y-97215802D01*
X126078521Y-96738281D01*
X126206883Y-97048943D01*
X126469673Y-97312192D01*
X126813201Y-97454838D01*
X127080959Y-97455071D01*
X127080838Y-97594167D01*
X127222883Y-97937943D01*
X127485673Y-98201192D01*
X127829201Y-98343838D01*
X128201167Y-98344162D01*
X128223967Y-98334741D01*
X128223838Y-98483167D01*
X128365883Y-98826943D01*
X128628673Y-99090192D01*
X128972201Y-99232838D01*
X129344167Y-99233162D01*
X129687943Y-99091117D01*
X129951192Y-98828327D01*
X130093838Y-98484799D01*
X130094162Y-98112833D01*
X129952117Y-97769057D01*
X129919000Y-97735882D01*
X129919000Y-95179802D01*
X130780599Y-96041401D01*
X131027161Y-96206148D01*
X131318000Y-96264000D01*
X132400198Y-96264000D01*
X132795878Y-96659680D01*
X132795838Y-96705167D01*
X132937883Y-97048943D01*
X133200673Y-97312192D01*
X133544201Y-97454838D01*
X133916167Y-97455162D01*
X134259943Y-97313117D01*
X134523192Y-97050327D01*
X134665838Y-96706799D01*
X134666162Y-96334833D01*
X134524117Y-95991057D01*
X134261327Y-95727808D01*
X133917799Y-95585162D01*
X133870923Y-95585121D01*
X133252401Y-94966599D01*
X133005839Y-94801852D01*
X132715000Y-94744000D01*
X131632802Y-94744000D01*
X131601242Y-94712440D01*
X131745000Y-94712440D01*
X131980317Y-94668162D01*
X132079528Y-94604322D01*
X132163110Y-94661431D01*
X132415000Y-94712440D01*
X133015000Y-94712440D01*
X133250317Y-94668162D01*
X133340980Y-94609822D01*
X133558690Y-94700000D01*
X133699250Y-94700000D01*
X133858000Y-94541250D01*
X133858000Y-93217000D01*
X134112000Y-93217000D01*
X134112000Y-94541250D01*
X134270750Y-94700000D01*
X134411310Y-94700000D01*
X134644699Y-94603327D01*
X134823327Y-94424698D01*
X134920000Y-94191309D01*
X134920000Y-93375750D01*
X134761250Y-93217000D01*
X134112000Y-93217000D01*
X133858000Y-93217000D01*
X133838000Y-93217000D01*
X133838000Y-92963000D01*
X133858000Y-92963000D01*
X133858000Y-91638750D01*
X134112000Y-91638750D01*
X134112000Y-92963000D01*
X134761250Y-92963000D01*
X134920000Y-92804250D01*
X134920000Y-91988691D01*
X134823327Y-91755302D01*
X134644699Y-91576673D01*
X134411310Y-91480000D01*
X134270750Y-91480000D01*
X134112000Y-91638750D01*
X133858000Y-91638750D01*
X133699250Y-91480000D01*
X133558690Y-91480000D01*
X133442043Y-91528317D01*
X133417148Y-91403161D01*
X133417148Y-91403160D01*
X133252401Y-91156599D01*
X131728401Y-89632599D01*
X131481839Y-89467852D01*
X131191000Y-89410000D01*
X129757315Y-89410000D01*
X129767440Y-89360000D01*
X129767440Y-88645750D01*
X131865000Y-88645750D01*
X131865000Y-89486309D01*
X131961673Y-89719698D01*
X132140301Y-89898327D01*
X132373690Y-89995000D01*
X133064250Y-89995000D01*
X133223000Y-89836250D01*
X133223000Y-88487000D01*
X133477000Y-88487000D01*
X133477000Y-89836250D01*
X133635750Y-89995000D01*
X134326310Y-89995000D01*
X134559699Y-89898327D01*
X134738327Y-89719698D01*
X134835000Y-89486309D01*
X134835000Y-88645750D01*
X134676250Y-88487000D01*
X133477000Y-88487000D01*
X133223000Y-88487000D01*
X132023750Y-88487000D01*
X131865000Y-88645750D01*
X129767440Y-88645750D01*
X129767440Y-87360000D01*
X129743674Y-87233691D01*
X131865000Y-87233691D01*
X131865000Y-88074250D01*
X132023750Y-88233000D01*
X133223000Y-88233000D01*
X133223000Y-86883750D01*
X133477000Y-86883750D01*
X133477000Y-88233000D01*
X134676250Y-88233000D01*
X134835000Y-88074250D01*
X134835000Y-87233691D01*
X134738327Y-87000302D01*
X134559699Y-86821673D01*
X134326310Y-86725000D01*
X133635750Y-86725000D01*
X133477000Y-86883750D01*
X133223000Y-86883750D01*
X133064250Y-86725000D01*
X132373690Y-86725000D01*
X132140301Y-86821673D01*
X131961673Y-87000302D01*
X131865000Y-87233691D01*
X129743674Y-87233691D01*
X129723162Y-87124683D01*
X129584090Y-86908559D01*
X129371890Y-86763569D01*
X129120000Y-86712560D01*
X127420000Y-86712560D01*
X127184683Y-86756838D01*
X126968559Y-86895910D01*
X126871000Y-87038692D01*
X126871000Y-85679487D01*
X126955910Y-85811441D01*
X127168110Y-85956431D01*
X127420000Y-86007440D01*
X129120000Y-86007440D01*
X129355317Y-85963162D01*
X129571441Y-85824090D01*
X129716431Y-85611890D01*
X129767440Y-85360000D01*
X129767440Y-83360000D01*
X129723162Y-83124683D01*
X129584090Y-82908559D01*
X129371890Y-82763569D01*
X129120000Y-82712560D01*
X129030000Y-82712560D01*
X129030000Y-81465047D01*
X129194943Y-81396894D01*
X129540199Y-81052241D01*
X129882637Y-81395278D01*
X130483352Y-81644716D01*
X131133795Y-81645284D01*
X131734943Y-81396894D01*
X132080199Y-81052241D01*
X132422637Y-81395278D01*
X132590000Y-81464773D01*
X132590000Y-82712560D01*
X132500000Y-82712560D01*
X132264683Y-82756838D01*
X132048559Y-82895910D01*
X131903569Y-83108110D01*
X131852560Y-83360000D01*
X131852560Y-85360000D01*
X131896838Y-85595317D01*
X132035910Y-85811441D01*
X132248110Y-85956431D01*
X132500000Y-86007440D01*
X134200000Y-86007440D01*
X134435317Y-85963162D01*
X134651441Y-85824090D01*
X134796431Y-85611890D01*
X134847440Y-85360000D01*
X134847440Y-83360000D01*
X134803162Y-83124683D01*
X134664090Y-82908559D01*
X134451890Y-82763569D01*
X134200000Y-82712560D01*
X134110000Y-82712560D01*
X134110000Y-81465047D01*
X134274943Y-81396894D01*
X134735278Y-80937363D01*
X134984716Y-80336648D01*
X134985284Y-79686205D01*
X134736894Y-79085057D01*
X134277363Y-78624722D01*
X133676648Y-78375284D01*
X133026205Y-78374716D01*
X132425057Y-78623106D01*
X132079801Y-78967759D01*
X131737363Y-78624722D01*
X131136648Y-78375284D01*
X130486205Y-78374716D01*
X129885057Y-78623106D01*
X129539801Y-78967759D01*
X129197363Y-78624722D01*
X128596648Y-78375284D01*
X127946205Y-78374716D01*
X127345057Y-78623106D01*
X126884722Y-79082637D01*
X126635284Y-79683352D01*
X126634716Y-80333795D01*
X126883106Y-80934943D01*
X127342637Y-81395278D01*
X127510000Y-81464773D01*
X127510000Y-82712560D01*
X127420000Y-82712560D01*
X127184683Y-82756838D01*
X126968559Y-82895910D01*
X126823569Y-83108110D01*
X126772560Y-83360000D01*
X126772560Y-84103417D01*
X126648401Y-83917599D01*
X126013401Y-83282599D01*
X125766839Y-83117852D01*
X125476000Y-83060000D01*
X124750453Y-83060000D01*
X124586222Y-82814211D01*
X124124762Y-82505874D01*
X123580433Y-82397600D01*
X122799567Y-82397600D01*
X122255238Y-82505874D01*
X121793778Y-82814211D01*
X121485441Y-83275671D01*
X121377167Y-83820000D01*
X121485441Y-84364329D01*
X121793778Y-84825789D01*
X121965460Y-84940503D01*
X121811683Y-84969438D01*
X121595559Y-85108510D01*
X121450569Y-85320710D01*
X121399560Y-85572600D01*
X121399560Y-87147400D01*
X121443838Y-87382717D01*
X121582910Y-87598841D01*
X121795110Y-87743831D01*
X122047000Y-87794840D01*
X124333000Y-87794840D01*
X124568317Y-87750562D01*
X124784441Y-87611490D01*
X124929431Y-87399290D01*
X124980440Y-87147400D01*
X124980440Y-85572600D01*
X124936162Y-85337283D01*
X124797090Y-85121159D01*
X124584890Y-84976169D01*
X124413197Y-84941400D01*
X124586222Y-84825789D01*
X124750453Y-84580000D01*
X125161198Y-84580000D01*
X125351000Y-84769802D01*
X125351000Y-87503000D01*
X125408852Y-87793839D01*
X125573599Y-88040401D01*
X126430599Y-88897401D01*
X126677161Y-89062148D01*
X126772560Y-89081124D01*
X126772560Y-89360000D01*
X126816838Y-89595317D01*
X126955910Y-89811441D01*
X127168110Y-89956431D01*
X127420000Y-90007440D01*
X127553451Y-90007440D01*
X127567852Y-90079839D01*
X127732599Y-90326401D01*
X128113599Y-90707401D01*
X128360160Y-90872148D01*
X128651000Y-90930000D01*
X129113112Y-90930000D01*
X129112838Y-91244167D01*
X129205155Y-91467591D01*
X129205000Y-91467560D01*
X128605000Y-91467560D01*
X128369683Y-91511838D01*
X128270472Y-91575678D01*
X128186890Y-91518569D01*
X127935000Y-91467560D01*
X127335000Y-91467560D01*
X127099683Y-91511838D01*
X127000472Y-91575678D01*
X126916890Y-91518569D01*
X126665000Y-91467560D01*
X126065000Y-91467560D01*
X125829683Y-91511838D01*
X125730472Y-91575678D01*
X125646890Y-91518569D01*
X125395000Y-91467560D01*
X124795000Y-91467560D01*
X124559683Y-91511838D01*
X124460472Y-91575678D01*
X124376890Y-91518569D01*
X124125000Y-91467560D01*
X123525000Y-91467560D01*
X123289683Y-91511838D01*
X123190472Y-91575678D01*
X123106890Y-91518569D01*
X122855000Y-91467560D01*
X122255000Y-91467560D01*
X122120000Y-91492962D01*
X122120000Y-90216234D01*
X122219838Y-89975799D01*
X122220162Y-89603833D01*
X122078117Y-89260057D01*
X121815327Y-88996808D01*
X121471799Y-88854162D01*
X121099833Y-88853838D01*
X120756057Y-88995883D01*
X120492808Y-89258673D01*
X120350162Y-89602201D01*
X120349933Y-89864634D01*
X120315000Y-89857560D01*
X120300000Y-89857560D01*
X120300000Y-79148802D01*
X121345802Y-78103000D01*
X136337198Y-78103000D01*
X136401599Y-78167401D01*
X136648160Y-78332148D01*
X136847560Y-78371811D01*
X136847560Y-78405000D01*
X136891838Y-78640317D01*
X137030910Y-78856441D01*
X137243110Y-79001431D01*
X137495000Y-79052440D01*
X138095000Y-79052440D01*
X138330317Y-79008162D01*
X138429528Y-78944322D01*
X138513110Y-79001431D01*
X138765000Y-79052440D01*
X139365000Y-79052440D01*
X139600317Y-79008162D01*
X139625161Y-78992175D01*
X139632852Y-79030839D01*
X139797599Y-79277401D01*
X140178599Y-79658401D01*
X140425160Y-79823148D01*
X140716000Y-79881000D01*
X146304000Y-79881000D01*
X146594839Y-79823148D01*
X146841401Y-79658401D01*
X147095827Y-79403975D01*
X147203538Y-79664655D01*
X147662927Y-80124846D01*
X147830000Y-80194221D01*
X147830000Y-85369214D01*
X147574641Y-85539839D01*
X145075885Y-83041083D01*
X145144206Y-82876547D01*
X145144774Y-82226306D01*
X144896462Y-81625345D01*
X144437073Y-81165154D01*
X143836547Y-80915794D01*
X143186306Y-80915226D01*
X142585345Y-81163538D01*
X142125154Y-81622927D01*
X141875794Y-82223453D01*
X141875334Y-82749533D01*
X141762370Y-82636371D01*
X141249100Y-82423243D01*
X140693339Y-82422758D01*
X140179697Y-82634990D01*
X139786371Y-83027630D01*
X139573243Y-83540900D01*
X139572758Y-84096661D01*
X139784990Y-84610303D01*
X140177630Y-85003629D01*
X140690900Y-85216757D01*
X141246661Y-85217242D01*
X141760303Y-85005010D01*
X142153629Y-84612370D01*
X142167070Y-84580000D01*
X142240000Y-84580000D01*
X142530839Y-84522148D01*
X142777401Y-84357401D01*
X143018917Y-84115885D01*
X143183453Y-84184206D01*
X143833694Y-84184774D01*
X144000889Y-84115691D01*
X146755198Y-86870000D01*
X143951802Y-86870000D01*
X142904401Y-85822599D01*
X142657839Y-85657852D01*
X142367000Y-85600000D01*
X139627531Y-85600000D01*
X139615010Y-85569697D01*
X139222370Y-85176371D01*
X138709100Y-84963243D01*
X138153339Y-84962758D01*
X137639697Y-85174990D01*
X137246371Y-85567630D01*
X137033243Y-86080900D01*
X137032758Y-86636661D01*
X137244990Y-87150303D01*
X137637630Y-87543629D01*
X138150900Y-87756757D01*
X138706661Y-87757242D01*
X139220303Y-87545010D01*
X139613629Y-87152370D01*
X139627070Y-87120000D01*
X142052198Y-87120000D01*
X142997198Y-88065000D01*
X142110391Y-88065000D01*
X141762370Y-87716371D01*
X141249100Y-87503243D01*
X140693339Y-87502758D01*
X140179697Y-87714990D01*
X139829075Y-88065000D01*
X139700000Y-88065000D01*
X139380459Y-88128561D01*
X139265839Y-88205148D01*
X139109566Y-88309566D01*
X137839566Y-89579566D01*
X137658561Y-89850459D01*
X137595000Y-90170000D01*
X137595000Y-92879146D01*
X137394683Y-92916838D01*
X137178559Y-93055910D01*
X137033569Y-93268110D01*
X136982560Y-93520000D01*
X136982560Y-95520000D01*
X137026838Y-95755317D01*
X137165910Y-95971441D01*
X137378110Y-96116431D01*
X137630000Y-96167440D01*
X139230000Y-96167440D01*
X139465317Y-96123162D01*
X139681441Y-95984090D01*
X139826431Y-95771890D01*
X139877440Y-95520000D01*
X139877440Y-94723631D01*
X146223646Y-94723631D01*
X146525209Y-95453469D01*
X147083114Y-96012349D01*
X147812425Y-96315185D01*
X148602111Y-96315874D01*
X149331949Y-96014311D01*
X149890829Y-95456406D01*
X150011615Y-95165520D01*
X155351480Y-95165520D01*
X155671021Y-95101959D01*
X155941914Y-94920954D01*
X158070434Y-92792434D01*
X158095737Y-92754566D01*
X158251439Y-92521541D01*
X158315000Y-92202000D01*
X158315000Y-91757240D01*
X158380430Y-91757240D01*
X158615747Y-91712962D01*
X158831871Y-91573890D01*
X158976861Y-91361690D01*
X159027870Y-91109800D01*
X159027870Y-87609680D01*
X158983592Y-87374363D01*
X158844520Y-87158239D01*
X158632320Y-87013249D01*
X158380430Y-86962240D01*
X156579570Y-86962240D01*
X156344253Y-87006518D01*
X156128129Y-87145590D01*
X155983139Y-87357790D01*
X155932130Y-87609680D01*
X155932130Y-91109800D01*
X155976408Y-91345117D01*
X156115480Y-91561241D01*
X156327680Y-91706231D01*
X156579570Y-91757240D01*
X156645000Y-91757240D01*
X156645000Y-91856132D01*
X155005612Y-93495520D01*
X150011769Y-93495520D01*
X149892791Y-93207571D01*
X149334886Y-92648691D01*
X148605575Y-92345855D01*
X147815889Y-92345166D01*
X147086051Y-92646729D01*
X146527171Y-93204634D01*
X146224335Y-93933945D01*
X146223646Y-94723631D01*
X139877440Y-94723631D01*
X139877440Y-93520000D01*
X139833162Y-93284683D01*
X139694090Y-93068559D01*
X139481890Y-92923569D01*
X139265000Y-92879648D01*
X139265000Y-90515868D01*
X139937644Y-89843224D01*
X140177630Y-90083629D01*
X140690900Y-90296757D01*
X141246661Y-90297242D01*
X141760303Y-90085010D01*
X142110925Y-89735000D01*
X147596849Y-89735000D01*
X147846814Y-89902021D01*
X148261865Y-89984580D01*
X148918135Y-89984580D01*
X149333186Y-89902021D01*
X149685049Y-89666914D01*
X149920156Y-89315051D01*
X150002715Y-88900000D01*
X149920156Y-88484949D01*
X149773191Y-88265000D01*
X149920156Y-88045051D01*
X150002715Y-87630000D01*
X149920156Y-87214949D01*
X149773191Y-86995000D01*
X149920156Y-86775051D01*
X150002715Y-86360000D01*
X149920156Y-85944949D01*
X149685049Y-85593086D01*
X149350000Y-85369214D01*
X149350000Y-83702163D01*
X152697443Y-83702163D01*
X152796042Y-83968965D01*
X153405582Y-84195401D01*
X154055377Y-84171341D01*
X154543958Y-83968965D01*
X154642557Y-83702163D01*
X154586405Y-83646010D01*
X155944570Y-83646010D01*
X155944570Y-85236629D01*
X156041243Y-85470018D01*
X156219871Y-85648647D01*
X156453260Y-85745320D01*
X157194250Y-85745320D01*
X157353000Y-85586570D01*
X157353000Y-83487260D01*
X157607000Y-83487260D01*
X157607000Y-85586570D01*
X157765750Y-85745320D01*
X158506740Y-85745320D01*
X158740129Y-85648647D01*
X158918757Y-85470018D01*
X159015430Y-85236629D01*
X159015430Y-83646010D01*
X158856680Y-83487260D01*
X157607000Y-83487260D01*
X157353000Y-83487260D01*
X156103320Y-83487260D01*
X155944570Y-83646010D01*
X154586405Y-83646010D01*
X153670000Y-82729605D01*
X152697443Y-83702163D01*
X149350000Y-83702163D01*
X149350000Y-82285582D01*
X152024599Y-82285582D01*
X152048659Y-82935377D01*
X152251035Y-83423958D01*
X152517837Y-83522557D01*
X153490395Y-82550000D01*
X153849605Y-82550000D01*
X154822163Y-83522557D01*
X155088965Y-83423958D01*
X155315401Y-82814418D01*
X155291341Y-82164623D01*
X155088965Y-81676042D01*
X154822163Y-81577443D01*
X153849605Y-82550000D01*
X153490395Y-82550000D01*
X152517837Y-81577443D01*
X152251035Y-81676042D01*
X152024599Y-82285582D01*
X149350000Y-82285582D01*
X149350000Y-81397837D01*
X152697443Y-81397837D01*
X153670000Y-82370395D01*
X154556503Y-81483891D01*
X155944570Y-81483891D01*
X155944570Y-83074510D01*
X156103320Y-83233260D01*
X157353000Y-83233260D01*
X157353000Y-81133950D01*
X157607000Y-81133950D01*
X157607000Y-83233260D01*
X158856680Y-83233260D01*
X159015430Y-83074510D01*
X159015430Y-81483891D01*
X158918757Y-81250502D01*
X158740129Y-81071873D01*
X158506740Y-80975200D01*
X157765750Y-80975200D01*
X157607000Y-81133950D01*
X157353000Y-81133950D01*
X157194250Y-80975200D01*
X156453260Y-80975200D01*
X156219871Y-81071873D01*
X156041243Y-81250502D01*
X155944570Y-81483891D01*
X154556503Y-81483891D01*
X154642557Y-81397837D01*
X154543958Y-81131035D01*
X153934418Y-80904599D01*
X153284623Y-80928659D01*
X152796042Y-81131035D01*
X152697443Y-81397837D01*
X149350000Y-81397837D01*
X149350000Y-80194496D01*
X149514655Y-80126462D01*
X149974846Y-79667073D01*
X150224206Y-79066547D01*
X150224774Y-78416306D01*
X149990368Y-77849000D01*
X150434198Y-77849000D01*
X150834115Y-78248917D01*
X150765794Y-78413453D01*
X150765226Y-79063694D01*
X151013538Y-79664655D01*
X151472927Y-80124846D01*
X152073453Y-80374206D01*
X152723694Y-80374774D01*
X153324655Y-80126462D01*
X153784846Y-79667073D01*
X154034206Y-79066547D01*
X154034208Y-79063694D01*
X154575226Y-79063694D01*
X154823538Y-79664655D01*
X155282927Y-80124846D01*
X155883453Y-80374206D01*
X156533694Y-80374774D01*
X157134655Y-80126462D01*
X157594846Y-79667073D01*
X157844206Y-79066547D01*
X157844774Y-78416306D01*
X157596462Y-77815345D01*
X157137073Y-77355154D01*
X156536547Y-77105794D01*
X155886306Y-77105226D01*
X155285345Y-77353538D01*
X154825154Y-77812927D01*
X154575794Y-78413453D01*
X154575226Y-79063694D01*
X154034208Y-79063694D01*
X154034774Y-78416306D01*
X153786462Y-77815345D01*
X153327073Y-77355154D01*
X152726547Y-77105794D01*
X152076306Y-77105226D01*
X151909111Y-77174309D01*
X151286401Y-76551599D01*
X151039839Y-76386852D01*
X150749000Y-76329000D01*
X147447000Y-76329000D01*
X147156161Y-76386852D01*
X146909599Y-76551599D01*
X146274599Y-77186599D01*
X146227440Y-77257178D01*
X146227440Y-75930000D01*
X146183162Y-75694683D01*
X146044090Y-75478559D01*
X145831890Y-75333569D01*
X145580000Y-75282560D01*
X143980000Y-75282560D01*
X143744683Y-75326838D01*
X143528559Y-75465910D01*
X143383569Y-75678110D01*
X143332560Y-75930000D01*
X143332560Y-76136660D01*
X143222459Y-76158561D01*
X143149127Y-76207560D01*
X142951565Y-76339566D01*
X142534021Y-76757111D01*
X142508162Y-76619683D01*
X142440000Y-76513756D01*
X142440000Y-75992234D01*
X142539838Y-75751799D01*
X142540162Y-75379833D01*
X142398117Y-75036057D01*
X142135327Y-74772808D01*
X141791799Y-74630162D01*
X141419833Y-74629838D01*
X141076057Y-74771883D01*
X140812808Y-75034673D01*
X140670162Y-75378201D01*
X140669838Y-75750167D01*
X140770000Y-75992578D01*
X140770000Y-76234898D01*
X140635000Y-76207560D01*
X140035000Y-76207560D01*
X139799683Y-76251838D01*
X139700472Y-76315678D01*
X139616890Y-76258569D01*
X139365000Y-76207560D01*
X138765000Y-76207560D01*
X138529683Y-76251838D01*
X138430472Y-76315678D01*
X138346890Y-76258569D01*
X138095000Y-76207560D01*
X137495000Y-76207560D01*
X137259683Y-76251838D01*
X137043559Y-76390910D01*
X136898569Y-76603110D01*
X136892936Y-76630926D01*
X136652000Y-76583000D01*
X135565802Y-76583000D01*
X136839802Y-75309000D01*
X139065000Y-75309000D01*
X139355839Y-75251148D01*
X139602401Y-75086401D01*
X140872401Y-73816401D01*
X141027659Y-73584041D01*
X141053110Y-73601431D01*
X141305000Y-73652440D01*
X141905000Y-73652440D01*
X142140317Y-73608162D01*
X142356441Y-73469090D01*
X142501431Y-73256890D01*
X142509762Y-73215750D01*
X143345000Y-73215750D01*
X143345000Y-74056309D01*
X143441673Y-74289698D01*
X143620301Y-74468327D01*
X143853690Y-74565000D01*
X144494250Y-74565000D01*
X144653000Y-74406250D01*
X144653000Y-73057000D01*
X144907000Y-73057000D01*
X144907000Y-74406250D01*
X145065750Y-74565000D01*
X145706310Y-74565000D01*
X145939699Y-74468327D01*
X146118327Y-74289698D01*
X146215000Y-74056309D01*
X146215000Y-73215750D01*
X146056250Y-73057000D01*
X144907000Y-73057000D01*
X144653000Y-73057000D01*
X143503750Y-73057000D01*
X143345000Y-73215750D01*
X142509762Y-73215750D01*
X142552440Y-73005000D01*
X142552440Y-71626000D01*
X143418602Y-71626000D01*
X143345000Y-71803691D01*
X143345000Y-72644250D01*
X143503750Y-72803000D01*
X144653000Y-72803000D01*
X144653000Y-72783000D01*
X144907000Y-72783000D01*
X144907000Y-72803000D01*
X146056250Y-72803000D01*
X146215000Y-72644250D01*
X146215000Y-71803691D01*
X146141398Y-71626000D01*
X157099000Y-71626000D01*
X157389839Y-71568148D01*
X157636401Y-71403401D01*
X158525401Y-70514401D01*
X158690148Y-70267839D01*
X158748000Y-69977000D01*
X158748000Y-66929000D01*
X158690148Y-66638161D01*
X158690148Y-66638160D01*
X158525401Y-66391599D01*
X155826401Y-63692599D01*
X155579839Y-63527852D01*
X155289000Y-63470000D01*
X155167440Y-63470000D01*
X155167440Y-63230000D01*
X155123162Y-62994683D01*
X154984090Y-62778559D01*
X154771890Y-62633569D01*
X154520000Y-62582560D01*
X152820000Y-62582560D01*
X152652000Y-62614171D01*
X152652000Y-61976000D01*
X152624195Y-61836214D01*
X152693690Y-61865000D01*
X153384250Y-61865000D01*
X153543000Y-61706250D01*
X153543000Y-60357000D01*
X153797000Y-60357000D01*
X153797000Y-61706250D01*
X153955750Y-61865000D01*
X154646310Y-61865000D01*
X154879699Y-61768327D01*
X155058327Y-61589698D01*
X155155000Y-61356309D01*
X155155000Y-60515750D01*
X154996250Y-60357000D01*
X153797000Y-60357000D01*
X153543000Y-60357000D01*
X152343750Y-60357000D01*
X152185000Y-60515750D01*
X152185000Y-61194198D01*
X151667401Y-60676599D01*
X151420839Y-60511852D01*
X151130000Y-60454000D01*
X150400000Y-60454000D01*
X150400000Y-60365750D01*
X150241250Y-60207000D01*
X149762440Y-60207000D01*
X149762440Y-59953000D01*
X150241250Y-59953000D01*
X150400000Y-59794250D01*
X150400000Y-59403691D01*
X150303327Y-59170302D01*
X150236717Y-59103691D01*
X152185000Y-59103691D01*
X152185000Y-59944250D01*
X152343750Y-60103000D01*
X153543000Y-60103000D01*
X153543000Y-58753750D01*
X153797000Y-58753750D01*
X153797000Y-60103000D01*
X154996250Y-60103000D01*
X155155000Y-59944250D01*
X155155000Y-59103691D01*
X155058327Y-58870302D01*
X154879699Y-58691673D01*
X154646310Y-58595000D01*
X153955750Y-58595000D01*
X153797000Y-58753750D01*
X153543000Y-58753750D01*
X153384250Y-58595000D01*
X152693690Y-58595000D01*
X152460301Y-58691673D01*
X152281673Y-58870302D01*
X152185000Y-59103691D01*
X150236717Y-59103691D01*
X150124699Y-58991673D01*
X149891310Y-58895000D01*
X149823750Y-58895000D01*
X149665000Y-59053750D01*
X149665000Y-59212067D01*
X149579090Y-59078559D01*
X149366890Y-58933569D01*
X149339215Y-58927965D01*
X149306250Y-58895000D01*
X149238690Y-58895000D01*
X149218247Y-58903468D01*
X149115000Y-58882560D01*
X148715000Y-58882560D01*
X148609295Y-58902450D01*
X148591310Y-58895000D01*
X148523750Y-58895000D01*
X148494746Y-58924004D01*
X148479683Y-58926838D01*
X148263559Y-59065910D01*
X148262610Y-59067299D01*
X148066890Y-58933569D01*
X148039215Y-58927965D01*
X148006250Y-58895000D01*
X147938690Y-58895000D01*
X147918247Y-58903468D01*
X147815000Y-58882560D01*
X147415000Y-58882560D01*
X147179683Y-58926838D01*
X146963559Y-59065910D01*
X146841192Y-59245000D01*
X144957440Y-59245000D01*
X144957440Y-59230000D01*
X144913162Y-58994683D01*
X144774090Y-58778559D01*
X144561890Y-58633569D01*
X144310000Y-58582560D01*
X142710000Y-58582560D01*
X142474683Y-58626838D01*
X142258559Y-58765910D01*
X142113569Y-58978110D01*
X142062560Y-59230000D01*
X142062560Y-59395000D01*
X139877440Y-59395000D01*
X139877440Y-59230000D01*
X139833162Y-58994683D01*
X139694090Y-58778559D01*
X139481890Y-58633569D01*
X139230000Y-58582560D01*
X137630000Y-58582560D01*
X137394683Y-58626838D01*
X137178559Y-58765910D01*
X137033569Y-58978110D01*
X136982560Y-59230000D01*
X136982560Y-61230000D01*
X137026838Y-61465317D01*
X137165910Y-61681441D01*
X137378110Y-61826431D01*
X137630000Y-61877440D01*
X139230000Y-61877440D01*
X139465317Y-61833162D01*
X139681441Y-61694090D01*
X139826431Y-61481890D01*
X139877440Y-61230000D01*
X139877440Y-61065000D01*
X142062560Y-61065000D01*
X142062560Y-61230000D01*
X142106838Y-61465317D01*
X142245910Y-61681441D01*
X142458110Y-61826431D01*
X142710000Y-61877440D01*
X144310000Y-61877440D01*
X144545317Y-61833162D01*
X144761441Y-61694090D01*
X144906431Y-61481890D01*
X144957440Y-61230000D01*
X144957440Y-60915000D01*
X146822369Y-60915000D01*
X146780000Y-61128000D01*
X146780000Y-61509000D01*
X146843561Y-61828541D01*
X146937125Y-61968569D01*
X147024566Y-62099434D01*
X147872566Y-62947434D01*
X148143459Y-63128439D01*
X148415542Y-63182560D01*
X148065000Y-63182560D01*
X147935411Y-63206944D01*
X147815000Y-63182560D01*
X147415000Y-63182560D01*
X147179683Y-63226838D01*
X146963559Y-63365910D01*
X146818569Y-63578110D01*
X146810086Y-63620000D01*
X145684749Y-63620000D01*
X145546839Y-63527852D01*
X145256000Y-63470000D01*
X144957440Y-63470000D01*
X144957440Y-63230000D01*
X144913162Y-62994683D01*
X144774090Y-62778559D01*
X144561890Y-62633569D01*
X144310000Y-62582560D01*
X142710000Y-62582560D01*
X142474683Y-62626838D01*
X142258559Y-62765910D01*
X142113569Y-62978110D01*
X142062560Y-63230000D01*
X142062560Y-65230000D01*
X142106838Y-65465317D01*
X142245910Y-65681441D01*
X142458110Y-65826431D01*
X142710000Y-65877440D01*
X144310000Y-65877440D01*
X144545317Y-65833162D01*
X144761441Y-65694090D01*
X144906431Y-65481890D01*
X144957440Y-65230000D01*
X144957440Y-64990000D01*
X144977251Y-64990000D01*
X145115161Y-65082148D01*
X145406000Y-65140000D01*
X146807074Y-65140000D01*
X146811838Y-65165317D01*
X146855000Y-65232393D01*
X146855000Y-65954000D01*
X146912852Y-66244839D01*
X147077599Y-66491401D01*
X147746290Y-67160092D01*
X147665345Y-67193538D01*
X147205154Y-67652927D01*
X146955794Y-68253453D01*
X146955226Y-68903694D01*
X147203538Y-69504655D01*
X147662927Y-69964846D01*
X148002864Y-70106000D01*
X143631950Y-70106000D01*
X143672148Y-70045839D01*
X143675808Y-70027440D01*
X143970000Y-70027440D01*
X144205317Y-69983162D01*
X144421441Y-69844090D01*
X144566431Y-69631890D01*
X144617440Y-69380000D01*
X144617440Y-67780000D01*
X144573162Y-67544683D01*
X144434090Y-67328559D01*
X144221890Y-67183569D01*
X143970000Y-67132560D01*
X141970000Y-67132560D01*
X141734683Y-67176838D01*
X141518559Y-67315910D01*
X141373569Y-67528110D01*
X141322560Y-67780000D01*
X141322560Y-69380000D01*
X141339683Y-69471000D01*
X141097000Y-69471000D01*
X140806161Y-69528852D01*
X140559599Y-69693599D01*
X140448047Y-69805151D01*
X140566431Y-69631890D01*
X140617440Y-69380000D01*
X140617440Y-67780000D01*
X140573162Y-67544683D01*
X140434090Y-67328559D01*
X140221890Y-67183569D01*
X139970000Y-67132560D01*
X137970000Y-67132560D01*
X137734683Y-67176838D01*
X137518559Y-67315910D01*
X137373569Y-67528110D01*
X137322560Y-67780000D01*
X137322560Y-69380000D01*
X137366838Y-69615317D01*
X137505910Y-69831441D01*
X137718110Y-69976431D01*
X137970000Y-70027440D01*
X138210000Y-70027440D01*
X138210000Y-70390000D01*
X138267852Y-70680839D01*
X138305000Y-70736435D01*
X138305000Y-70854666D01*
X138221310Y-70820000D01*
X138080750Y-70820000D01*
X137922000Y-70978750D01*
X137922000Y-72103000D01*
X137942000Y-72103000D01*
X137942000Y-72357000D01*
X137922000Y-72357000D01*
X137922000Y-72377000D01*
X137668000Y-72377000D01*
X137668000Y-72357000D01*
X137018750Y-72357000D01*
X136860000Y-72515750D01*
X136860000Y-72900000D01*
X134620000Y-72900000D01*
X134329160Y-72957852D01*
X134082599Y-73122599D01*
X133841083Y-73364115D01*
X133676547Y-73295794D01*
X133026306Y-73295226D01*
X132425345Y-73543538D01*
X131965154Y-74002927D01*
X131715794Y-74603453D01*
X131715226Y-75253694D01*
X131949632Y-75821000D01*
X130235802Y-75821000D01*
X129835885Y-75421083D01*
X129904206Y-75256547D01*
X129904774Y-74606306D01*
X129656462Y-74005345D01*
X129197073Y-73545154D01*
X128596547Y-73295794D01*
X127946306Y-73295226D01*
X127345345Y-73543538D01*
X126885154Y-74002927D01*
X126635794Y-74603453D01*
X126635226Y-75253694D01*
X126883538Y-75854655D01*
X127342927Y-76314846D01*
X127943453Y-76564206D01*
X128593694Y-76564774D01*
X128760889Y-76495691D01*
X128848198Y-76583000D01*
X121031000Y-76583000D01*
X120788414Y-76631254D01*
X120740160Y-76640852D01*
X120493599Y-76805599D01*
X120300000Y-76999198D01*
X120300000Y-68480802D01*
X121183056Y-67597746D01*
X121305000Y-67622440D01*
X122855000Y-67622440D01*
X123090317Y-67578162D01*
X123306441Y-67439090D01*
X123451431Y-67226890D01*
X123502440Y-66975000D01*
X123502440Y-66375000D01*
X123458162Y-66139683D01*
X123442175Y-66114839D01*
X123480839Y-66107148D01*
X123727401Y-65942401D01*
X124362401Y-65307401D01*
X124527148Y-65060839D01*
X124585000Y-64770000D01*
X124585000Y-61196316D01*
X124790200Y-61237870D01*
X125705260Y-61237870D01*
X125705260Y-62089872D01*
X125266566Y-62528566D01*
X125085561Y-62799459D01*
X125022000Y-63119000D01*
X125022000Y-72425132D01*
X124669014Y-72778118D01*
X124586222Y-72654211D01*
X124190801Y-72390000D01*
X124586222Y-72125789D01*
X124894559Y-71664329D01*
X125002833Y-71120000D01*
X124894559Y-70575671D01*
X124586222Y-70114211D01*
X124124762Y-69805874D01*
X123580433Y-69697600D01*
X122799567Y-69697600D01*
X122255238Y-69805874D01*
X121793778Y-70114211D01*
X121485441Y-70575671D01*
X121377167Y-71120000D01*
X121485441Y-71664329D01*
X121793778Y-72125789D01*
X122189199Y-72390000D01*
X121793778Y-72654211D01*
X121485441Y-73115671D01*
X121377167Y-73660000D01*
X121485441Y-74204329D01*
X121793778Y-74665789D01*
X122255238Y-74974126D01*
X122799567Y-75082400D01*
X123580433Y-75082400D01*
X124124762Y-74974126D01*
X124586222Y-74665789D01*
X124700339Y-74495000D01*
X124968000Y-74495000D01*
X125287541Y-74431439D01*
X125558434Y-74250434D01*
X126447434Y-73361434D01*
X126491673Y-73295226D01*
X126628439Y-73090541D01*
X126692000Y-72771000D01*
X126692000Y-71328691D01*
X136860000Y-71328691D01*
X136860000Y-71944250D01*
X137018750Y-72103000D01*
X137668000Y-72103000D01*
X137668000Y-70978750D01*
X137509250Y-70820000D01*
X137368690Y-70820000D01*
X137135301Y-70916673D01*
X136956673Y-71095302D01*
X136860000Y-71328691D01*
X126692000Y-71328691D01*
X126692000Y-65231098D01*
X126883538Y-65694655D01*
X127342927Y-66154846D01*
X127943453Y-66404206D01*
X128593694Y-66404774D01*
X129194655Y-66156462D01*
X129654846Y-65697073D01*
X129904206Y-65096547D01*
X129904774Y-64446306D01*
X129656462Y-63845345D01*
X129197073Y-63385154D01*
X128596547Y-63135794D01*
X127946306Y-63135226D01*
X127345345Y-63383538D01*
X126885154Y-63842927D01*
X126692000Y-64308094D01*
X126692000Y-63464868D01*
X127130694Y-63026174D01*
X127311700Y-62755280D01*
X127375260Y-62435740D01*
X127375260Y-61237870D01*
X128290320Y-61237870D01*
X128525637Y-61193592D01*
X128741761Y-61054520D01*
X128886751Y-60842320D01*
X128937760Y-60590430D01*
X128937760Y-58789570D01*
X130142240Y-58789570D01*
X130142240Y-60590430D01*
X130186518Y-60825747D01*
X130325590Y-61041871D01*
X130537790Y-61186861D01*
X130789680Y-61237870D01*
X132590000Y-61237870D01*
X132590000Y-63315504D01*
X132425345Y-63383538D01*
X131965154Y-63842927D01*
X131715794Y-64443453D01*
X131715226Y-65093694D01*
X131963538Y-65694655D01*
X132422927Y-66154846D01*
X133023453Y-66404206D01*
X133673694Y-66404774D01*
X134274655Y-66156462D01*
X134734846Y-65697073D01*
X134984206Y-65096547D01*
X134984713Y-64515750D01*
X136995000Y-64515750D01*
X136995000Y-65356309D01*
X137091673Y-65589698D01*
X137270301Y-65768327D01*
X137503690Y-65865000D01*
X138144250Y-65865000D01*
X138303000Y-65706250D01*
X138303000Y-64357000D01*
X138557000Y-64357000D01*
X138557000Y-65706250D01*
X138715750Y-65865000D01*
X139356310Y-65865000D01*
X139589699Y-65768327D01*
X139768327Y-65589698D01*
X139865000Y-65356309D01*
X139865000Y-64515750D01*
X139706250Y-64357000D01*
X138557000Y-64357000D01*
X138303000Y-64357000D01*
X137153750Y-64357000D01*
X136995000Y-64515750D01*
X134984713Y-64515750D01*
X134984774Y-64446306D01*
X134736462Y-63845345D01*
X134277073Y-63385154D01*
X134110000Y-63315779D01*
X134110000Y-63103691D01*
X136995000Y-63103691D01*
X136995000Y-63944250D01*
X137153750Y-64103000D01*
X138303000Y-64103000D01*
X138303000Y-62753750D01*
X138557000Y-62753750D01*
X138557000Y-64103000D01*
X139706250Y-64103000D01*
X139865000Y-63944250D01*
X139865000Y-63103691D01*
X139768327Y-62870302D01*
X139589699Y-62691673D01*
X139356310Y-62595000D01*
X138715750Y-62595000D01*
X138557000Y-62753750D01*
X138303000Y-62753750D01*
X138144250Y-62595000D01*
X137503690Y-62595000D01*
X137270301Y-62691673D01*
X137091673Y-62870302D01*
X136995000Y-63103691D01*
X134110000Y-63103691D01*
X134110000Y-61237870D01*
X134289800Y-61237870D01*
X134525117Y-61193592D01*
X134741241Y-61054520D01*
X134886231Y-60842320D01*
X134937240Y-60590430D01*
X134937240Y-58789570D01*
X134892962Y-58554253D01*
X134753890Y-58338129D01*
X134541690Y-58193139D01*
X134289800Y-58142130D01*
X130789680Y-58142130D01*
X130554363Y-58186408D01*
X130338239Y-58325480D01*
X130193249Y-58537680D01*
X130142240Y-58789570D01*
X128937760Y-58789570D01*
X128893482Y-58554253D01*
X128754410Y-58338129D01*
X128542210Y-58193139D01*
X128290320Y-58142130D01*
X124790200Y-58142130D01*
X124554883Y-58186408D01*
X124338759Y-58325480D01*
X124193769Y-58537680D01*
X124142760Y-58789570D01*
X124142760Y-59059958D01*
X122330401Y-57247599D01*
X122083839Y-57082852D01*
X121793000Y-57025000D01*
X103378000Y-57025000D01*
X103087161Y-57082852D01*
X103087159Y-57082853D01*
X103087160Y-57082853D01*
X102840599Y-57247599D01*
X102332599Y-57755599D01*
X102167852Y-58002161D01*
X102120931Y-58238048D01*
X101810330Y-58445585D01*
X101800757Y-58459913D01*
X101796762Y-58438683D01*
X101657690Y-58222559D01*
X101445490Y-58077569D01*
X101193600Y-58026560D01*
X99466400Y-58026560D01*
X99231083Y-58070838D01*
X99014959Y-58209910D01*
X98869969Y-58422110D01*
X98818960Y-58674000D01*
X95066582Y-58674000D01*
X94822594Y-58429586D01*
X94277127Y-58203088D01*
X93686504Y-58202572D01*
X93140643Y-58428118D01*
X92722646Y-58845386D01*
X92496148Y-59390853D01*
X92495632Y-59981476D01*
X92499148Y-59989984D01*
X90849566Y-61639566D01*
X90668561Y-61910459D01*
X90605000Y-62230000D01*
X90605000Y-63046343D01*
X90425302Y-63166414D01*
X90114233Y-63631961D01*
X90005000Y-64181112D01*
X87795000Y-64181112D01*
X87685767Y-63631961D01*
X87374698Y-63166414D01*
X87120000Y-62996230D01*
X87120000Y-62484000D01*
X87062148Y-62193161D01*
X86897401Y-61946599D01*
X86135401Y-61184599D01*
X85888839Y-61019852D01*
X85598000Y-60962000D01*
X85148362Y-60962000D01*
X85266581Y-60788980D01*
X85317590Y-60537090D01*
X85317590Y-58837830D01*
X85273312Y-58602513D01*
X85134240Y-58386389D01*
X84922040Y-58241399D01*
X84670150Y-58190390D01*
X82970890Y-58190390D01*
X82735573Y-58234668D01*
X82519449Y-58373740D01*
X82374459Y-58585940D01*
X82323450Y-58837830D01*
X82323450Y-58927460D01*
X79758540Y-58927460D01*
X79467700Y-58985312D01*
X79221139Y-59150059D01*
X77948599Y-60422599D01*
X77783852Y-60669161D01*
X77726000Y-60960000D01*
X77726000Y-70424198D01*
X77607099Y-70543099D01*
X77514090Y-70398559D01*
X77301890Y-70253569D01*
X77050000Y-70202560D01*
X75350000Y-70202560D01*
X75114683Y-70246838D01*
X74898559Y-70385910D01*
X74753569Y-70598110D01*
X74702560Y-70850000D01*
X69265000Y-70850000D01*
X69265000Y-59960000D01*
X73282560Y-59960000D01*
X73282560Y-61960000D01*
X73326838Y-62195317D01*
X73465910Y-62411441D01*
X73608561Y-62508910D01*
X73544722Y-62572637D01*
X73295284Y-63173352D01*
X73294716Y-63823795D01*
X73543106Y-64424943D01*
X74002637Y-64885278D01*
X74170000Y-64954773D01*
X74170000Y-65024000D01*
X74227852Y-65314839D01*
X74392599Y-65561401D01*
X75092385Y-66261187D01*
X74898559Y-66385910D01*
X74753569Y-66598110D01*
X74702560Y-66850000D01*
X74702560Y-68850000D01*
X74746838Y-69085317D01*
X74885910Y-69301441D01*
X75098110Y-69446431D01*
X75350000Y-69497440D01*
X77050000Y-69497440D01*
X77285317Y-69453162D01*
X77501441Y-69314090D01*
X77646431Y-69101890D01*
X77697440Y-68850000D01*
X77697440Y-66850000D01*
X77653162Y-66614683D01*
X77514090Y-66398559D01*
X77301890Y-66253569D01*
X77050000Y-66202560D01*
X76941811Y-66202560D01*
X76925389Y-66120000D01*
X76902148Y-66003160D01*
X76737401Y-65756599D01*
X75861325Y-64880523D01*
X76315278Y-64427363D01*
X76564716Y-63826648D01*
X76565284Y-63176205D01*
X76316894Y-62575057D01*
X76250379Y-62508426D01*
X76381441Y-62424090D01*
X76526431Y-62211890D01*
X76577440Y-61960000D01*
X76577440Y-59960000D01*
X76533162Y-59724683D01*
X76394090Y-59508559D01*
X76181890Y-59363569D01*
X75930000Y-59312560D01*
X73930000Y-59312560D01*
X73694683Y-59356838D01*
X73478559Y-59495910D01*
X73333569Y-59708110D01*
X73282560Y-59960000D01*
X69265000Y-59960000D01*
X69265000Y-56819000D01*
X160605000Y-56819000D01*
X160605000Y-110059000D01*
G36*
X123065000Y-60131802D02*
X123065000Y-61964666D01*
X122981309Y-61930000D01*
X122365750Y-61930000D01*
X122207000Y-62088750D01*
X122207000Y-62738000D01*
X122227000Y-62738000D01*
X122227000Y-62992000D01*
X122207000Y-62992000D01*
X122207000Y-63012000D01*
X121953000Y-63012000D01*
X121953000Y-62992000D01*
X120828750Y-62992000D01*
X120670000Y-63150750D01*
X120670000Y-63291310D01*
X120731128Y-63438887D01*
X120493599Y-63597599D01*
X118016406Y-66074792D01*
X117994322Y-66040472D01*
X118051431Y-65956890D01*
X118102440Y-65705000D01*
X118102440Y-65105000D01*
X118058162Y-64869683D01*
X118031998Y-64829023D01*
X118266401Y-64672401D01*
X119155401Y-63783401D01*
X119320148Y-63536839D01*
X119378000Y-63246000D01*
X119378000Y-62438690D01*
X120670000Y-62438690D01*
X120670000Y-62579250D01*
X120828750Y-62738000D01*
X121953000Y-62738000D01*
X121953000Y-62088750D01*
X121794250Y-61930000D01*
X121178691Y-61930000D01*
X120945302Y-62026673D01*
X120766673Y-62205301D01*
X120670000Y-62438690D01*
X119378000Y-62438690D01*
X119378000Y-62290802D01*
X120412917Y-61255885D01*
X120577453Y-61324206D01*
X121227694Y-61324774D01*
X121828655Y-61076462D01*
X122288846Y-60617073D01*
X122538206Y-60016547D01*
X122538565Y-59605367D01*
X123065000Y-60131802D01*
X123065000Y-60131802D01*
G37*
X123065000Y-60131802D02*
X123065000Y-61964666D01*
X122981309Y-61930000D01*
X122365750Y-61930000D01*
X122207000Y-62088750D01*
X122207000Y-62738000D01*
X122227000Y-62738000D01*
X122227000Y-62992000D01*
X122207000Y-62992000D01*
X122207000Y-63012000D01*
X121953000Y-63012000D01*
X121953000Y-62992000D01*
X120828750Y-62992000D01*
X120670000Y-63150750D01*
X120670000Y-63291310D01*
X120731128Y-63438887D01*
X120493599Y-63597599D01*
X118016406Y-66074792D01*
X117994322Y-66040472D01*
X118051431Y-65956890D01*
X118102440Y-65705000D01*
X118102440Y-65105000D01*
X118058162Y-64869683D01*
X118031998Y-64829023D01*
X118266401Y-64672401D01*
X119155401Y-63783401D01*
X119320148Y-63536839D01*
X119378000Y-63246000D01*
X119378000Y-62438690D01*
X120670000Y-62438690D01*
X120670000Y-62579250D01*
X120828750Y-62738000D01*
X121953000Y-62738000D01*
X121953000Y-62088750D01*
X121794250Y-61930000D01*
X121178691Y-61930000D01*
X120945302Y-62026673D01*
X120766673Y-62205301D01*
X120670000Y-62438690D01*
X119378000Y-62438690D01*
X119378000Y-62290802D01*
X120412917Y-61255885D01*
X120577453Y-61324206D01*
X121227694Y-61324774D01*
X121828655Y-61076462D01*
X122288846Y-60617073D01*
X122538206Y-60016547D01*
X122538565Y-59605367D01*
X123065000Y-60131802D01*
M02*
