G04 #@! TF.FileFunction,Legend,Top*
%FSLAX46Y46*%
G04 Gerber Fmt 4.6, Leading zero omitted, Abs format (unit mm)*
G04 Created by KiCad (PCBNEW 0.201508090901+6074~28~ubuntu14.04.1-product) date Wed 12 Aug 2015 15:55:11 CEST*
%MOMM*%
G01*
G04 APERTURE LIST*
%ADD10C,0.100000*%
%ADD11C,0.200000*%
%ADD12C,0.150000*%
G04 APERTURE END LIST*
D10*
D11*
X135564619Y-105394095D02*
X136564619Y-105394095D01*
X135659857Y-106441714D02*
X135612238Y-106394095D01*
X135564619Y-106251238D01*
X135564619Y-106156000D01*
X135612238Y-106013142D01*
X135707476Y-105917904D01*
X135802714Y-105870285D01*
X135993190Y-105822666D01*
X136136048Y-105822666D01*
X136326524Y-105870285D01*
X136421762Y-105917904D01*
X136517000Y-106013142D01*
X136564619Y-106156000D01*
X136564619Y-106251238D01*
X136517000Y-106394095D01*
X136469381Y-106441714D01*
X135612238Y-106822666D02*
X135564619Y-106965523D01*
X135564619Y-107203619D01*
X135612238Y-107298857D01*
X135659857Y-107346476D01*
X135755095Y-107394095D01*
X135850333Y-107394095D01*
X135945571Y-107346476D01*
X135993190Y-107298857D01*
X136040810Y-107203619D01*
X136088429Y-107013142D01*
X136136048Y-106917904D01*
X136183667Y-106870285D01*
X136278905Y-106822666D01*
X136374143Y-106822666D01*
X136469381Y-106870285D01*
X136517000Y-106917904D01*
X136564619Y-107013142D01*
X136564619Y-107251238D01*
X136517000Y-107394095D01*
X135564619Y-107822666D02*
X136564619Y-107822666D01*
X136564619Y-108203619D01*
X136517000Y-108298857D01*
X136469381Y-108346476D01*
X136374143Y-108394095D01*
X136231286Y-108394095D01*
X136136048Y-108346476D01*
X136088429Y-108298857D01*
X136040810Y-108203619D01*
X136040810Y-107822666D01*
X99195381Y-57110381D02*
X99433476Y-58110381D01*
X99623953Y-57396095D01*
X99814429Y-58110381D01*
X100052524Y-57110381D01*
X100433476Y-57586571D02*
X100766810Y-57586571D01*
X100909667Y-58110381D02*
X100433476Y-58110381D01*
X100433476Y-57110381D01*
X100909667Y-57110381D01*
X102671572Y-58015143D02*
X102623953Y-58062762D01*
X102481096Y-58110381D01*
X102385858Y-58110381D01*
X102243000Y-58062762D01*
X102147762Y-57967524D01*
X102100143Y-57872286D01*
X102052524Y-57681810D01*
X102052524Y-57538952D01*
X102100143Y-57348476D01*
X102147762Y-57253238D01*
X102243000Y-57158000D01*
X102385858Y-57110381D01*
X102481096Y-57110381D01*
X102623953Y-57158000D01*
X102671572Y-57205619D01*
X103100143Y-57586571D02*
X103433477Y-57586571D01*
X103576334Y-58110381D02*
X103100143Y-58110381D01*
X103100143Y-57110381D01*
X103576334Y-57110381D01*
X105338239Y-58110381D02*
X105004905Y-57634190D01*
X104766810Y-58110381D02*
X104766810Y-57110381D01*
X105147763Y-57110381D01*
X105243001Y-57158000D01*
X105290620Y-57205619D01*
X105338239Y-57300857D01*
X105338239Y-57443714D01*
X105290620Y-57538952D01*
X105243001Y-57586571D01*
X105147763Y-57634190D01*
X104766810Y-57634190D01*
X105766810Y-57586571D02*
X106100144Y-57586571D01*
X106243001Y-58110381D02*
X105766810Y-58110381D01*
X105766810Y-57110381D01*
X106243001Y-57110381D01*
X123277524Y-79789381D02*
X123277524Y-78789381D01*
X123658477Y-78789381D01*
X123753715Y-78837000D01*
X123801334Y-78884619D01*
X123848953Y-78979857D01*
X123848953Y-79122714D01*
X123801334Y-79217952D01*
X123753715Y-79265571D01*
X123658477Y-79313190D01*
X123277524Y-79313190D01*
X124468000Y-78789381D02*
X124658477Y-78789381D01*
X124753715Y-78837000D01*
X124848953Y-78932238D01*
X124896572Y-79122714D01*
X124896572Y-79456048D01*
X124848953Y-79646524D01*
X124753715Y-79741762D01*
X124658477Y-79789381D01*
X124468000Y-79789381D01*
X124372762Y-79741762D01*
X124277524Y-79646524D01*
X124229905Y-79456048D01*
X124229905Y-79122714D01*
X124277524Y-78932238D01*
X124372762Y-78837000D01*
X124468000Y-78789381D01*
X125182286Y-78789381D02*
X125753715Y-78789381D01*
X125468000Y-79789381D02*
X125468000Y-78789381D01*
X126801334Y-78741762D02*
X125944191Y-80027476D01*
X123968000Y-80437000D02*
X123872762Y-80389381D01*
X123729905Y-80389381D01*
X123587047Y-80437000D01*
X123491809Y-80532238D01*
X123444190Y-80627476D01*
X123396571Y-80817952D01*
X123396571Y-80960810D01*
X123444190Y-81151286D01*
X123491809Y-81246524D01*
X123587047Y-81341762D01*
X123729905Y-81389381D01*
X123825143Y-81389381D01*
X123968000Y-81341762D01*
X124015619Y-81294143D01*
X124015619Y-80960810D01*
X123825143Y-80960810D01*
X124396571Y-81103667D02*
X124872762Y-81103667D01*
X124301333Y-81389381D02*
X124634666Y-80389381D01*
X124968000Y-81389381D01*
X125777524Y-81389381D02*
X125301333Y-81389381D01*
X125301333Y-80389381D01*
X125968000Y-80389381D02*
X126301333Y-81389381D01*
X126634667Y-80389381D01*
X72676048Y-58142143D02*
X72628429Y-58189762D01*
X72485572Y-58237381D01*
X72390334Y-58237381D01*
X72247476Y-58189762D01*
X72152238Y-58094524D01*
X72104619Y-57999286D01*
X72057000Y-57808810D01*
X72057000Y-57665952D01*
X72104619Y-57475476D01*
X72152238Y-57380238D01*
X72247476Y-57285000D01*
X72390334Y-57237381D01*
X72485572Y-57237381D01*
X72628429Y-57285000D01*
X72676048Y-57332619D01*
X73104619Y-57713571D02*
X73437953Y-57713571D01*
X73580810Y-58237381D02*
X73104619Y-58237381D01*
X73104619Y-57237381D01*
X73580810Y-57237381D01*
X74485572Y-58237381D02*
X74009381Y-58237381D01*
X74009381Y-57237381D01*
X75295096Y-58237381D02*
X74818905Y-58237381D01*
X74818905Y-57237381D01*
X76580810Y-57237381D02*
X76771287Y-57237381D01*
X76866525Y-57285000D01*
X76961763Y-57380238D01*
X77009382Y-57570714D01*
X77009382Y-57904048D01*
X76961763Y-58094524D01*
X76866525Y-58189762D01*
X76771287Y-58237381D01*
X76580810Y-58237381D01*
X76485572Y-58189762D01*
X76390334Y-58094524D01*
X76342715Y-57904048D01*
X76342715Y-57570714D01*
X76390334Y-57380238D01*
X76485572Y-57285000D01*
X76580810Y-57237381D01*
X77437953Y-58237381D02*
X77437953Y-57237381D01*
X78009382Y-58237381D01*
X78009382Y-57237381D01*
X69707095Y-109799381D02*
X69707095Y-108799381D01*
X69945190Y-108799381D01*
X70088048Y-108847000D01*
X70183286Y-108942238D01*
X70230905Y-109037476D01*
X70278524Y-109227952D01*
X70278524Y-109370810D01*
X70230905Y-109561286D01*
X70183286Y-109656524D01*
X70088048Y-109751762D01*
X69945190Y-109799381D01*
X69707095Y-109799381D01*
X70707095Y-109799381D02*
X70707095Y-109132714D01*
X70707095Y-108799381D02*
X70659476Y-108847000D01*
X70707095Y-108894619D01*
X70754714Y-108847000D01*
X70707095Y-108799381D01*
X70707095Y-108894619D01*
X71611857Y-109132714D02*
X71611857Y-109942238D01*
X71564238Y-110037476D01*
X71516619Y-110085095D01*
X71421380Y-110132714D01*
X71278523Y-110132714D01*
X71183285Y-110085095D01*
X71611857Y-109751762D02*
X71516619Y-109799381D01*
X71326142Y-109799381D01*
X71230904Y-109751762D01*
X71183285Y-109704143D01*
X71135666Y-109608905D01*
X71135666Y-109323190D01*
X71183285Y-109227952D01*
X71230904Y-109180333D01*
X71326142Y-109132714D01*
X71516619Y-109132714D01*
X71611857Y-109180333D01*
X72088047Y-109799381D02*
X72088047Y-109132714D01*
X72088047Y-108799381D02*
X72040428Y-108847000D01*
X72088047Y-108894619D01*
X72135666Y-108847000D01*
X72088047Y-108799381D01*
X72088047Y-108894619D01*
X72421380Y-109132714D02*
X72802332Y-109132714D01*
X72564237Y-108799381D02*
X72564237Y-109656524D01*
X72611856Y-109751762D01*
X72707094Y-109799381D01*
X72802332Y-109799381D01*
X73564238Y-109799381D02*
X73564238Y-109275571D01*
X73516619Y-109180333D01*
X73421381Y-109132714D01*
X73230904Y-109132714D01*
X73135666Y-109180333D01*
X73564238Y-109751762D02*
X73469000Y-109799381D01*
X73230904Y-109799381D01*
X73135666Y-109751762D01*
X73088047Y-109656524D01*
X73088047Y-109561286D01*
X73135666Y-109466048D01*
X73230904Y-109418429D01*
X73469000Y-109418429D01*
X73564238Y-109370810D01*
X74183285Y-109799381D02*
X74088047Y-109751762D01*
X74040428Y-109656524D01*
X74040428Y-108799381D01*
X75326143Y-108799381D02*
X75326143Y-109608905D01*
X75373762Y-109704143D01*
X75421381Y-109751762D01*
X75516619Y-109799381D01*
X75707096Y-109799381D01*
X75802334Y-109751762D01*
X75849953Y-109704143D01*
X75897572Y-109608905D01*
X75897572Y-108799381D01*
X76326143Y-109751762D02*
X76469000Y-109799381D01*
X76707096Y-109799381D01*
X76802334Y-109751762D01*
X76849953Y-109704143D01*
X76897572Y-109608905D01*
X76897572Y-109513667D01*
X76849953Y-109418429D01*
X76802334Y-109370810D01*
X76707096Y-109323190D01*
X76516619Y-109275571D01*
X76421381Y-109227952D01*
X76373762Y-109180333D01*
X76326143Y-109085095D01*
X76326143Y-108989857D01*
X76373762Y-108894619D01*
X76421381Y-108847000D01*
X76516619Y-108799381D01*
X76754715Y-108799381D01*
X76897572Y-108847000D01*
X77659477Y-109275571D02*
X77802334Y-109323190D01*
X77849953Y-109370810D01*
X77897572Y-109466048D01*
X77897572Y-109608905D01*
X77849953Y-109704143D01*
X77802334Y-109751762D01*
X77707096Y-109799381D01*
X77326143Y-109799381D01*
X77326143Y-108799381D01*
X77659477Y-108799381D01*
X77754715Y-108847000D01*
X77802334Y-108894619D01*
X77849953Y-108989857D01*
X77849953Y-109085095D01*
X77802334Y-109180333D01*
X77754715Y-109227952D01*
X77659477Y-109275571D01*
X77326143Y-109275571D01*
X78326143Y-109418429D02*
X79088048Y-109418429D01*
X79992810Y-109751762D02*
X79897572Y-109799381D01*
X79707095Y-109799381D01*
X79611857Y-109751762D01*
X79564238Y-109704143D01*
X79516619Y-109608905D01*
X79516619Y-109323190D01*
X79564238Y-109227952D01*
X79611857Y-109180333D01*
X79707095Y-109132714D01*
X79897572Y-109132714D01*
X79992810Y-109180333D01*
X80564238Y-109799381D02*
X80469000Y-109751762D01*
X80421381Y-109704143D01*
X80373762Y-109608905D01*
X80373762Y-109323190D01*
X80421381Y-109227952D01*
X80469000Y-109180333D01*
X80564238Y-109132714D01*
X80707096Y-109132714D01*
X80802334Y-109180333D01*
X80849953Y-109227952D01*
X80897572Y-109323190D01*
X80897572Y-109608905D01*
X80849953Y-109704143D01*
X80802334Y-109751762D01*
X80707096Y-109799381D01*
X80564238Y-109799381D01*
X81326143Y-109132714D02*
X81326143Y-109799381D01*
X81326143Y-109227952D02*
X81373762Y-109180333D01*
X81469000Y-109132714D01*
X81611858Y-109132714D01*
X81707096Y-109180333D01*
X81754715Y-109275571D01*
X81754715Y-109799381D01*
X82088048Y-109132714D02*
X82469000Y-109132714D01*
X82230905Y-108799381D02*
X82230905Y-109656524D01*
X82278524Y-109751762D01*
X82373762Y-109799381D01*
X82469000Y-109799381D01*
X82802334Y-109799381D02*
X82802334Y-109132714D01*
X82802334Y-109323190D02*
X82849953Y-109227952D01*
X82897572Y-109180333D01*
X82992810Y-109132714D01*
X83088049Y-109132714D01*
X83564239Y-109799381D02*
X83469001Y-109751762D01*
X83421382Y-109704143D01*
X83373763Y-109608905D01*
X83373763Y-109323190D01*
X83421382Y-109227952D01*
X83469001Y-109180333D01*
X83564239Y-109132714D01*
X83707097Y-109132714D01*
X83802335Y-109180333D01*
X83849954Y-109227952D01*
X83897573Y-109323190D01*
X83897573Y-109608905D01*
X83849954Y-109704143D01*
X83802335Y-109751762D01*
X83707097Y-109799381D01*
X83564239Y-109799381D01*
X84469001Y-109799381D02*
X84373763Y-109751762D01*
X84326144Y-109656524D01*
X84326144Y-108799381D01*
X84992811Y-109799381D02*
X84897573Y-109751762D01*
X84849954Y-109656524D01*
X84849954Y-108799381D01*
X85754717Y-109751762D02*
X85659479Y-109799381D01*
X85469002Y-109799381D01*
X85373764Y-109751762D01*
X85326145Y-109656524D01*
X85326145Y-109275571D01*
X85373764Y-109180333D01*
X85469002Y-109132714D01*
X85659479Y-109132714D01*
X85754717Y-109180333D01*
X85802336Y-109275571D01*
X85802336Y-109370810D01*
X85326145Y-109466048D01*
X86659479Y-109799381D02*
X86659479Y-108799381D01*
X86659479Y-109751762D02*
X86564241Y-109799381D01*
X86373764Y-109799381D01*
X86278526Y-109751762D01*
X86230907Y-109704143D01*
X86183288Y-109608905D01*
X86183288Y-109323190D01*
X86230907Y-109227952D01*
X86278526Y-109180333D01*
X86373764Y-109132714D01*
X86564241Y-109132714D01*
X86659479Y-109180333D01*
X87897574Y-109132714D02*
X87897574Y-110132714D01*
X87897574Y-109180333D02*
X87992812Y-109132714D01*
X88183289Y-109132714D01*
X88278527Y-109180333D01*
X88326146Y-109227952D01*
X88373765Y-109323190D01*
X88373765Y-109608905D01*
X88326146Y-109704143D01*
X88278527Y-109751762D01*
X88183289Y-109799381D01*
X87992812Y-109799381D01*
X87897574Y-109751762D01*
X88945193Y-109799381D02*
X88849955Y-109751762D01*
X88802336Y-109704143D01*
X88754717Y-109608905D01*
X88754717Y-109323190D01*
X88802336Y-109227952D01*
X88849955Y-109180333D01*
X88945193Y-109132714D01*
X89088051Y-109132714D01*
X89183289Y-109180333D01*
X89230908Y-109227952D01*
X89278527Y-109323190D01*
X89278527Y-109608905D01*
X89230908Y-109704143D01*
X89183289Y-109751762D01*
X89088051Y-109799381D01*
X88945193Y-109799381D01*
X89564241Y-109132714D02*
X89945193Y-109132714D01*
X89707098Y-108799381D02*
X89707098Y-109656524D01*
X89754717Y-109751762D01*
X89849955Y-109799381D01*
X89945193Y-109799381D01*
X90659480Y-109751762D02*
X90564242Y-109799381D01*
X90373765Y-109799381D01*
X90278527Y-109751762D01*
X90230908Y-109656524D01*
X90230908Y-109275571D01*
X90278527Y-109180333D01*
X90373765Y-109132714D01*
X90564242Y-109132714D01*
X90659480Y-109180333D01*
X90707099Y-109275571D01*
X90707099Y-109370810D01*
X90230908Y-109466048D01*
X91135670Y-109132714D02*
X91135670Y-109799381D01*
X91135670Y-109227952D02*
X91183289Y-109180333D01*
X91278527Y-109132714D01*
X91421385Y-109132714D01*
X91516623Y-109180333D01*
X91564242Y-109275571D01*
X91564242Y-109799381D01*
X91897575Y-109132714D02*
X92278527Y-109132714D01*
X92040432Y-108799381D02*
X92040432Y-109656524D01*
X92088051Y-109751762D01*
X92183289Y-109799381D01*
X92278527Y-109799381D01*
X92611861Y-109799381D02*
X92611861Y-109132714D01*
X92611861Y-108799381D02*
X92564242Y-108847000D01*
X92611861Y-108894619D01*
X92659480Y-108847000D01*
X92611861Y-108799381D01*
X92611861Y-108894619D01*
X93230908Y-109799381D02*
X93135670Y-109751762D01*
X93088051Y-109704143D01*
X93040432Y-109608905D01*
X93040432Y-109323190D01*
X93088051Y-109227952D01*
X93135670Y-109180333D01*
X93230908Y-109132714D01*
X93373766Y-109132714D01*
X93469004Y-109180333D01*
X93516623Y-109227952D01*
X93564242Y-109323190D01*
X93564242Y-109608905D01*
X93516623Y-109704143D01*
X93469004Y-109751762D01*
X93373766Y-109799381D01*
X93230908Y-109799381D01*
X93945194Y-109751762D02*
X94040432Y-109799381D01*
X94230908Y-109799381D01*
X94326147Y-109751762D01*
X94373766Y-109656524D01*
X94373766Y-109608905D01*
X94326147Y-109513667D01*
X94230908Y-109466048D01*
X94088051Y-109466048D01*
X93992813Y-109418429D01*
X93945194Y-109323190D01*
X93945194Y-109275571D01*
X93992813Y-109180333D01*
X94088051Y-109132714D01*
X94230908Y-109132714D01*
X94326147Y-109180333D01*
X94659480Y-109132714D02*
X95040432Y-109132714D01*
X94802337Y-108799381D02*
X94802337Y-109656524D01*
X94849956Y-109751762D01*
X94945194Y-109799381D01*
X95040432Y-109799381D01*
X95802338Y-109799381D02*
X95802338Y-109275571D01*
X95754719Y-109180333D01*
X95659481Y-109132714D01*
X95469004Y-109132714D01*
X95373766Y-109180333D01*
X95802338Y-109751762D02*
X95707100Y-109799381D01*
X95469004Y-109799381D01*
X95373766Y-109751762D01*
X95326147Y-109656524D01*
X95326147Y-109561286D01*
X95373766Y-109466048D01*
X95469004Y-109418429D01*
X95707100Y-109418429D01*
X95802338Y-109370810D01*
X96135671Y-109132714D02*
X96516623Y-109132714D01*
X96278528Y-108799381D02*
X96278528Y-109656524D01*
X96326147Y-109751762D01*
X96421385Y-109799381D01*
X96516623Y-109799381D01*
X97564243Y-108751762D02*
X96707100Y-110037476D01*
X98326148Y-109132714D02*
X98326148Y-109942238D01*
X98278529Y-110037476D01*
X98230910Y-110085095D01*
X98135671Y-110132714D01*
X97992814Y-110132714D01*
X97897576Y-110085095D01*
X98326148Y-109751762D02*
X98230910Y-109799381D01*
X98040433Y-109799381D01*
X97945195Y-109751762D01*
X97897576Y-109704143D01*
X97849957Y-109608905D01*
X97849957Y-109323190D01*
X97897576Y-109227952D01*
X97945195Y-109180333D01*
X98040433Y-109132714D01*
X98230910Y-109132714D01*
X98326148Y-109180333D01*
X99230910Y-109799381D02*
X99230910Y-109275571D01*
X99183291Y-109180333D01*
X99088053Y-109132714D01*
X98897576Y-109132714D01*
X98802338Y-109180333D01*
X99230910Y-109751762D02*
X99135672Y-109799381D01*
X98897576Y-109799381D01*
X98802338Y-109751762D01*
X98754719Y-109656524D01*
X98754719Y-109561286D01*
X98802338Y-109466048D01*
X98897576Y-109418429D01*
X99135672Y-109418429D01*
X99230910Y-109370810D01*
X99849957Y-109799381D02*
X99754719Y-109751762D01*
X99707100Y-109656524D01*
X99707100Y-108799381D01*
X100135672Y-109132714D02*
X100373767Y-109799381D01*
X100611863Y-109132714D01*
X101421387Y-109799381D02*
X101421387Y-109275571D01*
X101373768Y-109180333D01*
X101278530Y-109132714D01*
X101088053Y-109132714D01*
X100992815Y-109180333D01*
X101421387Y-109751762D02*
X101326149Y-109799381D01*
X101088053Y-109799381D01*
X100992815Y-109751762D01*
X100945196Y-109656524D01*
X100945196Y-109561286D01*
X100992815Y-109466048D01*
X101088053Y-109418429D01*
X101326149Y-109418429D01*
X101421387Y-109370810D01*
X101897577Y-109132714D02*
X101897577Y-109799381D01*
X101897577Y-109227952D02*
X101945196Y-109180333D01*
X102040434Y-109132714D01*
X102183292Y-109132714D01*
X102278530Y-109180333D01*
X102326149Y-109275571D01*
X102326149Y-109799381D01*
X102945196Y-109799381D02*
X102849958Y-109751762D01*
X102802339Y-109704143D01*
X102754720Y-109608905D01*
X102754720Y-109323190D01*
X102802339Y-109227952D01*
X102849958Y-109180333D01*
X102945196Y-109132714D01*
X103088054Y-109132714D01*
X103183292Y-109180333D01*
X103230911Y-109227952D01*
X103278530Y-109323190D01*
X103278530Y-109608905D01*
X103230911Y-109704143D01*
X103183292Y-109751762D01*
X103088054Y-109799381D01*
X102945196Y-109799381D01*
X103659482Y-109751762D02*
X103754720Y-109799381D01*
X103945196Y-109799381D01*
X104040435Y-109751762D01*
X104088054Y-109656524D01*
X104088054Y-109608905D01*
X104040435Y-109513667D01*
X103945196Y-109466048D01*
X103802339Y-109466048D01*
X103707101Y-109418429D01*
X103659482Y-109323190D01*
X103659482Y-109275571D01*
X103707101Y-109180333D01*
X103802339Y-109132714D01*
X103945196Y-109132714D01*
X104040435Y-109180333D01*
X104373768Y-109132714D02*
X104754720Y-109132714D01*
X104516625Y-108799381D02*
X104516625Y-109656524D01*
X104564244Y-109751762D01*
X104659482Y-109799381D01*
X104754720Y-109799381D01*
X105516626Y-109799381D02*
X105516626Y-109275571D01*
X105469007Y-109180333D01*
X105373769Y-109132714D01*
X105183292Y-109132714D01*
X105088054Y-109180333D01*
X105516626Y-109751762D02*
X105421388Y-109799381D01*
X105183292Y-109799381D01*
X105088054Y-109751762D01*
X105040435Y-109656524D01*
X105040435Y-109561286D01*
X105088054Y-109466048D01*
X105183292Y-109418429D01*
X105421388Y-109418429D01*
X105516626Y-109370810D01*
X105849959Y-109132714D02*
X106230911Y-109132714D01*
X105992816Y-108799381D02*
X105992816Y-109656524D01*
X106040435Y-109751762D01*
X106135673Y-109799381D01*
X106230911Y-109799381D01*
X111897580Y-109799381D02*
X111897580Y-109132714D01*
X111897580Y-109323190D02*
X111945199Y-109227952D01*
X111992818Y-109180333D01*
X112088056Y-109132714D01*
X112183295Y-109132714D01*
X112897581Y-109751762D02*
X112802343Y-109799381D01*
X112611866Y-109799381D01*
X112516628Y-109751762D01*
X112469009Y-109656524D01*
X112469009Y-109275571D01*
X112516628Y-109180333D01*
X112611866Y-109132714D01*
X112802343Y-109132714D01*
X112897581Y-109180333D01*
X112945200Y-109275571D01*
X112945200Y-109370810D01*
X112469009Y-109466048D01*
X113278533Y-109132714D02*
X113516628Y-109799381D01*
X113754724Y-109132714D01*
X114135676Y-109704143D02*
X114183295Y-109751762D01*
X114135676Y-109799381D01*
X114088057Y-109751762D01*
X114135676Y-109704143D01*
X114135676Y-109799381D01*
X115326152Y-108894619D02*
X115373771Y-108847000D01*
X115469009Y-108799381D01*
X115707105Y-108799381D01*
X115802343Y-108847000D01*
X115849962Y-108894619D01*
X115897581Y-108989857D01*
X115897581Y-109085095D01*
X115849962Y-109227952D01*
X115278533Y-109799381D01*
X115897581Y-109799381D01*
X151326163Y-109513667D02*
X151802354Y-109513667D01*
X151230925Y-109799381D02*
X151564258Y-108799381D01*
X151897592Y-109799381D01*
X152659497Y-109132714D02*
X152659497Y-109799381D01*
X152230925Y-109132714D02*
X152230925Y-109656524D01*
X152278544Y-109751762D01*
X152373782Y-109799381D01*
X152516640Y-109799381D01*
X152611878Y-109751762D01*
X152659497Y-109704143D01*
X153564259Y-109132714D02*
X153564259Y-109942238D01*
X153516640Y-110037476D01*
X153469021Y-110085095D01*
X153373782Y-110132714D01*
X153230925Y-110132714D01*
X153135687Y-110085095D01*
X153564259Y-109751762D02*
X153469021Y-109799381D01*
X153278544Y-109799381D01*
X153183306Y-109751762D01*
X153135687Y-109704143D01*
X153088068Y-109608905D01*
X153088068Y-109323190D01*
X153135687Y-109227952D01*
X153183306Y-109180333D01*
X153278544Y-109132714D01*
X153469021Y-109132714D01*
X153564259Y-109180333D01*
X154469021Y-109132714D02*
X154469021Y-109799381D01*
X154040449Y-109132714D02*
X154040449Y-109656524D01*
X154088068Y-109751762D01*
X154183306Y-109799381D01*
X154326164Y-109799381D01*
X154421402Y-109751762D01*
X154469021Y-109704143D01*
X154897592Y-109751762D02*
X154992830Y-109799381D01*
X155183306Y-109799381D01*
X155278545Y-109751762D01*
X155326164Y-109656524D01*
X155326164Y-109608905D01*
X155278545Y-109513667D01*
X155183306Y-109466048D01*
X155040449Y-109466048D01*
X154945211Y-109418429D01*
X154897592Y-109323190D01*
X154897592Y-109275571D01*
X154945211Y-109180333D01*
X155040449Y-109132714D01*
X155183306Y-109132714D01*
X155278545Y-109180333D01*
X155611878Y-109132714D02*
X155992830Y-109132714D01*
X155754735Y-108799381D02*
X155754735Y-109656524D01*
X155802354Y-109751762D01*
X155897592Y-109799381D01*
X155992830Y-109799381D01*
X157040450Y-108894619D02*
X157088069Y-108847000D01*
X157183307Y-108799381D01*
X157421403Y-108799381D01*
X157516641Y-108847000D01*
X157564260Y-108894619D01*
X157611879Y-108989857D01*
X157611879Y-109085095D01*
X157564260Y-109227952D01*
X156992831Y-109799381D01*
X157611879Y-109799381D01*
X158230926Y-108799381D02*
X158326165Y-108799381D01*
X158421403Y-108847000D01*
X158469022Y-108894619D01*
X158516641Y-108989857D01*
X158564260Y-109180333D01*
X158564260Y-109418429D01*
X158516641Y-109608905D01*
X158469022Y-109704143D01*
X158421403Y-109751762D01*
X158326165Y-109799381D01*
X158230926Y-109799381D01*
X158135688Y-109751762D01*
X158088069Y-109704143D01*
X158040450Y-109608905D01*
X157992831Y-109418429D01*
X157992831Y-109180333D01*
X158040450Y-108989857D01*
X158088069Y-108894619D01*
X158135688Y-108847000D01*
X158230926Y-108799381D01*
X159516641Y-109799381D02*
X158945212Y-109799381D01*
X159230926Y-109799381D02*
X159230926Y-108799381D01*
X159135688Y-108942238D01*
X159040450Y-109037476D01*
X158945212Y-109085095D01*
X160421403Y-108799381D02*
X159945212Y-108799381D01*
X159897593Y-109275571D01*
X159945212Y-109227952D01*
X160040450Y-109180333D01*
X160278546Y-109180333D01*
X160373784Y-109227952D01*
X160421403Y-109275571D01*
X160469022Y-109370810D01*
X160469022Y-109608905D01*
X160421403Y-109704143D01*
X160373784Y-109751762D01*
X160278546Y-109799381D01*
X160040450Y-109799381D01*
X159945212Y-109751762D01*
X159897593Y-109704143D01*
D12*
X159179260Y-81109820D02*
X155780740Y-81109820D01*
X155780740Y-89359740D02*
X155780740Y-83360260D01*
X159179260Y-89359740D02*
X159179260Y-83360260D01*
X160182560Y-80606900D02*
X159082740Y-80606900D01*
X159682180Y-80007460D02*
X159682180Y-81206340D01*
X103140000Y-70875000D02*
X105140000Y-70875000D01*
X105140000Y-68825000D02*
X103140000Y-68825000D01*
X137405000Y-103140000D02*
X137405000Y-105140000D01*
X139455000Y-105140000D02*
X139455000Y-103140000D01*
X139455000Y-97520000D02*
X139455000Y-95520000D01*
X137405000Y-95520000D02*
X137405000Y-97520000D01*
X144535000Y-63230000D02*
X144535000Y-61230000D01*
X142485000Y-61230000D02*
X142485000Y-63230000D01*
X137405000Y-61230000D02*
X137405000Y-63230000D01*
X139455000Y-63230000D02*
X139455000Y-61230000D01*
X141970000Y-67555000D02*
X139970000Y-67555000D01*
X139970000Y-69605000D02*
X141970000Y-69605000D01*
X134790180Y-61389260D02*
X134790180Y-57990740D01*
X126540260Y-57990740D02*
X132539740Y-57990740D01*
X126540260Y-61389260D02*
X132539740Y-61389260D01*
X135293100Y-62392560D02*
X135293100Y-61292740D01*
X135892540Y-61892180D02*
X134693660Y-61892180D01*
X145805000Y-75930000D02*
X145805000Y-73930000D01*
X143755000Y-73930000D02*
X143755000Y-75930000D01*
X91186520Y-59687460D02*
X92583520Y-59687460D01*
X86741520Y-59687460D02*
X85217520Y-59687460D01*
X87122520Y-58925460D02*
X87122520Y-60449460D01*
X86868520Y-58925460D02*
X86868520Y-60449460D01*
X86614520Y-59687460D02*
X86614520Y-60449460D01*
X86614520Y-60449460D02*
X91186520Y-60449460D01*
X91186520Y-60449460D02*
X91186520Y-58925460D01*
X91186520Y-58925460D02*
X86614520Y-58925460D01*
X86614520Y-58925460D02*
X86614520Y-59687460D01*
X73616000Y-60761000D02*
X73816000Y-60761000D01*
X76210000Y-60761000D02*
X76030000Y-60761000D01*
X75899643Y-63988744D02*
G75*
G03X76216000Y-60761000I-1003643J1727744D01*
G01*
X76029068Y-63313006D02*
G75*
G03X76030000Y-61210000I-1133068J1052006D01*
G01*
X73589274Y-60773780D02*
G75*
G03X73936000Y-64011000I1306726J-1497220D01*
G01*
X73816747Y-61247111D02*
G75*
G03X73836000Y-63295000I1079253J-1013889D01*
G01*
X129028974Y-81042865D02*
G75*
G03X132550000Y-81010000I1751026J1032865D01*
G01*
X129727920Y-81108070D02*
G75*
G03X131830000Y-81110000I1052080J1132070D01*
G01*
X132515829Y-78991456D02*
G75*
G03X129030000Y-79016000I-1735829J-1018544D01*
G01*
X131794063Y-78900744D02*
G75*
G03X129750000Y-78916000I-1014063J-1075256D01*
G01*
X91186520Y-69847460D02*
X92583520Y-69847460D01*
X86741520Y-69847460D02*
X85217520Y-69847460D01*
X87122520Y-69085460D02*
X87122520Y-70609460D01*
X86868520Y-69085460D02*
X86868520Y-70609460D01*
X86614520Y-69847460D02*
X86614520Y-70609460D01*
X86614520Y-70609460D02*
X91186520Y-70609460D01*
X91186520Y-70609460D02*
X91186520Y-69085460D01*
X91186520Y-69085460D02*
X86614520Y-69085460D01*
X86614520Y-69085460D02*
X86614520Y-69847460D01*
X91186520Y-80007460D02*
X92583520Y-80007460D01*
X86741520Y-80007460D02*
X85217520Y-80007460D01*
X87122520Y-79245460D02*
X87122520Y-80769460D01*
X86868520Y-79245460D02*
X86868520Y-80769460D01*
X86614520Y-80007460D02*
X86614520Y-80769460D01*
X86614520Y-80769460D02*
X91186520Y-80769460D01*
X91186520Y-80769460D02*
X91186520Y-79245460D01*
X91186520Y-79245460D02*
X86614520Y-79245460D01*
X86614520Y-79245460D02*
X86614520Y-80007460D01*
X91186520Y-90167460D02*
X92583520Y-90167460D01*
X86741520Y-90167460D02*
X85217520Y-90167460D01*
X87122520Y-89405460D02*
X87122520Y-90929460D01*
X86868520Y-89405460D02*
X86868520Y-90929460D01*
X86614520Y-90167460D02*
X86614520Y-90929460D01*
X86614520Y-90929460D02*
X91186520Y-90929460D01*
X91186520Y-90929460D02*
X91186520Y-89405460D01*
X91186520Y-89405460D02*
X86614520Y-89405460D01*
X86614520Y-89405460D02*
X86614520Y-90167460D01*
X91186520Y-100327460D02*
X92583520Y-100327460D01*
X86741520Y-100327460D02*
X85217520Y-100327460D01*
X87122520Y-99565460D02*
X87122520Y-101089460D01*
X86868520Y-99565460D02*
X86868520Y-101089460D01*
X86614520Y-100327460D02*
X86614520Y-101089460D01*
X86614520Y-101089460D02*
X91186520Y-101089460D01*
X91186520Y-101089460D02*
X91186520Y-99565460D01*
X91186520Y-99565460D02*
X86614520Y-99565460D01*
X86614520Y-99565460D02*
X86614520Y-100327460D01*
X83820000Y-67270000D02*
X83820000Y-66670000D01*
X83820000Y-62270000D02*
X83820000Y-62870000D01*
X98640000Y-67270000D02*
X79240000Y-67270000D01*
X79240000Y-67270000D02*
X79240000Y-66970000D01*
X98640000Y-67270000D02*
X98640000Y-66670000D01*
X98640000Y-62270000D02*
X79240000Y-62270000D01*
X79240000Y-62270000D02*
X79240000Y-62570000D01*
X98640000Y-62270000D02*
X98640000Y-62870000D01*
X116840000Y-88900000D02*
X116840000Y-68580000D01*
X121920000Y-68580000D02*
X121920000Y-88900000D01*
X121920000Y-88900000D02*
X116840000Y-88900000D01*
X118110000Y-88900000D02*
X118110000Y-87630000D01*
X118110000Y-87630000D02*
X120650000Y-87630000D01*
X120650000Y-87630000D02*
X120650000Y-88900000D01*
X116840000Y-68580000D02*
X121920000Y-68580000D01*
X83820000Y-77430000D02*
X83820000Y-76830000D01*
X83820000Y-72430000D02*
X83820000Y-73030000D01*
X98640000Y-77430000D02*
X79240000Y-77430000D01*
X79240000Y-77430000D02*
X79240000Y-77130000D01*
X98640000Y-77430000D02*
X98640000Y-76830000D01*
X98640000Y-72430000D02*
X79240000Y-72430000D01*
X79240000Y-72430000D02*
X79240000Y-72730000D01*
X98640000Y-72430000D02*
X98640000Y-73030000D01*
X83820000Y-87590000D02*
X83820000Y-86990000D01*
X83820000Y-82590000D02*
X83820000Y-83190000D01*
X98640000Y-87590000D02*
X79240000Y-87590000D01*
X79240000Y-87590000D02*
X79240000Y-87290000D01*
X98640000Y-87590000D02*
X98640000Y-86990000D01*
X98640000Y-82590000D02*
X79240000Y-82590000D01*
X79240000Y-82590000D02*
X79240000Y-82890000D01*
X98640000Y-82590000D02*
X98640000Y-83190000D01*
X83820000Y-97750000D02*
X83820000Y-97150000D01*
X83820000Y-92750000D02*
X83820000Y-93350000D01*
X98640000Y-97750000D02*
X79240000Y-97750000D01*
X79240000Y-97750000D02*
X79240000Y-97450000D01*
X98640000Y-97750000D02*
X98640000Y-97150000D01*
X98640000Y-92750000D02*
X79240000Y-92750000D01*
X79240000Y-92750000D02*
X79240000Y-93050000D01*
X98640000Y-92750000D02*
X98640000Y-93350000D01*
X83820000Y-107910000D02*
X83820000Y-107310000D01*
X83820000Y-102910000D02*
X83820000Y-103510000D01*
X98640000Y-107910000D02*
X79240000Y-107910000D01*
X79240000Y-107910000D02*
X79240000Y-107610000D01*
X98640000Y-107910000D02*
X98640000Y-107310000D01*
X98640000Y-102910000D02*
X79240000Y-102910000D01*
X79240000Y-102910000D02*
X79240000Y-103210000D01*
X98640000Y-102910000D02*
X98640000Y-103510000D01*
X149860000Y-106426000D02*
X158496000Y-106426000D01*
X141478000Y-106426000D02*
X146558000Y-106426000D01*
X149860000Y-94234000D02*
X158496000Y-94234000D01*
X141478000Y-94234000D02*
X146558000Y-94234000D01*
X158496000Y-94234000D02*
X158496000Y-106426000D01*
X141478000Y-106426000D02*
X141478000Y-94234000D01*
X101600000Y-60960000D02*
X106680000Y-60960000D01*
X106680000Y-60960000D02*
X106680000Y-58420000D01*
X106680000Y-58420000D02*
X101600000Y-58420000D01*
X98780000Y-58140000D02*
X100330000Y-58140000D01*
X101600000Y-58420000D02*
X101600000Y-60960000D01*
X100330000Y-61240000D02*
X98780000Y-61240000D01*
X98780000Y-61240000D02*
X98780000Y-58140000D01*
X132080000Y-107950000D02*
X119380000Y-107950000D01*
X119380000Y-107950000D02*
X119380000Y-105410000D01*
X119380000Y-105410000D02*
X132080000Y-105410000D01*
X134900000Y-108230000D02*
X133350000Y-108230000D01*
X132080000Y-107950000D02*
X132080000Y-105410000D01*
X133350000Y-105130000D02*
X134900000Y-105130000D01*
X134900000Y-105130000D02*
X134900000Y-108230000D01*
X146050000Y-81280000D02*
X151130000Y-81280000D01*
X151130000Y-81280000D02*
X151130000Y-83820000D01*
X151130000Y-83820000D02*
X146050000Y-83820000D01*
X146050000Y-83820000D02*
X146050000Y-81280000D01*
X146050000Y-82550000D02*
X144780000Y-82550000D01*
X151130000Y-82550000D02*
X152400000Y-82550000D01*
X141605000Y-90170000D02*
X141605000Y-91186000D01*
X141605000Y-85090000D02*
X141605000Y-87630000D01*
X141605000Y-81534000D02*
X141605000Y-82550000D01*
X137668000Y-89916000D02*
X138938000Y-89916000D01*
X138417300Y-89128600D02*
X138163300Y-89166700D01*
X138163300Y-89166700D02*
X137883900Y-89344500D01*
X137883900Y-89344500D02*
X137668000Y-89662000D01*
X137668000Y-89662000D02*
X137655300Y-90106500D01*
X137655300Y-90106500D02*
X137858500Y-90462100D01*
X137858500Y-90462100D02*
X138150600Y-90639900D01*
X138150600Y-90639900D02*
X138468100Y-90690700D01*
X138468100Y-90690700D02*
X138874500Y-90589100D01*
X138874500Y-90589100D02*
X139128500Y-90246200D01*
X139128500Y-90246200D02*
X139217400Y-90068400D01*
X138430000Y-91186000D02*
X137160000Y-91186000D01*
X137160000Y-91186000D02*
X137160000Y-81534000D01*
X137160000Y-81534000D02*
X142240000Y-81534000D01*
X142240000Y-91186000D02*
X139700000Y-91186000D01*
X139700000Y-91186000D02*
X138430000Y-91186000D01*
X147320000Y-76200000D02*
X147320000Y-71120000D01*
X147320000Y-71120000D02*
X149860000Y-71120000D01*
X149860000Y-71120000D02*
X149860000Y-76200000D01*
X149860000Y-76200000D02*
X147320000Y-76200000D01*
X148590000Y-76200000D02*
X148590000Y-77470000D01*
X148590000Y-71120000D02*
X148590000Y-69850000D01*
X151130000Y-76200000D02*
X151130000Y-71120000D01*
X151130000Y-71120000D02*
X153670000Y-71120000D01*
X153670000Y-71120000D02*
X153670000Y-76200000D01*
X153670000Y-76200000D02*
X151130000Y-76200000D01*
X152400000Y-76200000D02*
X152400000Y-77470000D01*
X152400000Y-71120000D02*
X152400000Y-69850000D01*
X157480000Y-71120000D02*
X157480000Y-76200000D01*
X157480000Y-76200000D02*
X154940000Y-76200000D01*
X154940000Y-76200000D02*
X154940000Y-71120000D01*
X154940000Y-71120000D02*
X157480000Y-71120000D01*
X156210000Y-71120000D02*
X156210000Y-69850000D01*
X156210000Y-76200000D02*
X156210000Y-77470000D01*
X115375000Y-103140000D02*
X115375000Y-105140000D01*
X113225000Y-105140000D02*
X113225000Y-103140000D01*
X119185000Y-99330000D02*
X119185000Y-101330000D01*
X117035000Y-101330000D02*
X117035000Y-99330000D01*
X154745000Y-61230000D02*
X154745000Y-63230000D01*
X152595000Y-63230000D02*
X152595000Y-61230000D01*
X132080000Y-72390000D02*
X132080000Y-67310000D01*
X132080000Y-67310000D02*
X134620000Y-67310000D01*
X134620000Y-67310000D02*
X134620000Y-72390000D01*
X134620000Y-72390000D02*
X132080000Y-72390000D01*
X133350000Y-72390000D02*
X133350000Y-73660000D01*
X133350000Y-67310000D02*
X133350000Y-66040000D01*
X129540000Y-67310000D02*
X129540000Y-72390000D01*
X129540000Y-72390000D02*
X127000000Y-72390000D01*
X127000000Y-72390000D02*
X127000000Y-67310000D01*
X127000000Y-67310000D02*
X129540000Y-67310000D01*
X128270000Y-67310000D02*
X128270000Y-66040000D01*
X128270000Y-72390000D02*
X128270000Y-73660000D01*
X110490000Y-67310000D02*
X105410000Y-67310000D01*
X105410000Y-67310000D02*
X105410000Y-64770000D01*
X105410000Y-64770000D02*
X110490000Y-64770000D01*
X110490000Y-64770000D02*
X110490000Y-67310000D01*
X110490000Y-66040000D02*
X111760000Y-66040000D01*
X105410000Y-66040000D02*
X104140000Y-66040000D01*
X111760000Y-99060000D02*
X111760000Y-104140000D01*
X111760000Y-104140000D02*
X109220000Y-104140000D01*
X109220000Y-104140000D02*
X109220000Y-99060000D01*
X109220000Y-99060000D02*
X111760000Y-99060000D01*
X110490000Y-99060000D02*
X110490000Y-97790000D01*
X110490000Y-104140000D02*
X110490000Y-105410000D01*
X111760000Y-86360000D02*
X111760000Y-91440000D01*
X111760000Y-91440000D02*
X109220000Y-91440000D01*
X109220000Y-91440000D02*
X109220000Y-86360000D01*
X109220000Y-86360000D02*
X111760000Y-86360000D01*
X110490000Y-86360000D02*
X110490000Y-85090000D01*
X110490000Y-91440000D02*
X110490000Y-92710000D01*
X102870000Y-90932000D02*
X102870000Y-85852000D01*
X102870000Y-85852000D02*
X105410000Y-85852000D01*
X105410000Y-85852000D02*
X105410000Y-90932000D01*
X105410000Y-90932000D02*
X102870000Y-90932000D01*
X104140000Y-90932000D02*
X104140000Y-92202000D01*
X104140000Y-85852000D02*
X104140000Y-84582000D01*
X109220000Y-78740000D02*
X109220000Y-73660000D01*
X109220000Y-73660000D02*
X111760000Y-73660000D01*
X111760000Y-73660000D02*
X111760000Y-78740000D01*
X111760000Y-78740000D02*
X109220000Y-78740000D01*
X110490000Y-78740000D02*
X110490000Y-80010000D01*
X110490000Y-73660000D02*
X110490000Y-72390000D01*
X105410000Y-99060000D02*
X105410000Y-104140000D01*
X105410000Y-104140000D02*
X102870000Y-104140000D01*
X102870000Y-104140000D02*
X102870000Y-99060000D01*
X102870000Y-99060000D02*
X105410000Y-99060000D01*
X104140000Y-99060000D02*
X104140000Y-97790000D01*
X104140000Y-104140000D02*
X104140000Y-105410000D01*
X118364000Y-60960000D02*
X113284000Y-60960000D01*
X113284000Y-60960000D02*
X113284000Y-58420000D01*
X113284000Y-58420000D02*
X118364000Y-58420000D01*
X118364000Y-58420000D02*
X118364000Y-60960000D01*
X118364000Y-59690000D02*
X119634000Y-59690000D01*
X113284000Y-59690000D02*
X112014000Y-59690000D01*
X75125000Y-70850000D02*
X75125000Y-68850000D01*
X77275000Y-68850000D02*
X77275000Y-70850000D01*
X132275000Y-87360000D02*
X132275000Y-85360000D01*
X134425000Y-85360000D02*
X134425000Y-87360000D01*
X127195000Y-87360000D02*
X127195000Y-85360000D01*
X129345000Y-85360000D02*
X129345000Y-87360000D01*
X73660000Y-77470000D02*
X73660000Y-82550000D01*
X73660000Y-82550000D02*
X71120000Y-82550000D01*
X71120000Y-82550000D02*
X71120000Y-77470000D01*
X71120000Y-77470000D02*
X73660000Y-77470000D01*
X72390000Y-77470000D02*
X72390000Y-76200000D01*
X72390000Y-82550000D02*
X72390000Y-83820000D01*
X77470000Y-82550000D02*
X77470000Y-87630000D01*
X77470000Y-87630000D02*
X74930000Y-87630000D01*
X74930000Y-87630000D02*
X74930000Y-82550000D01*
X74930000Y-82550000D02*
X77470000Y-82550000D01*
X76200000Y-82550000D02*
X76200000Y-81280000D01*
X76200000Y-87630000D02*
X76200000Y-88900000D01*
X71120000Y-97790000D02*
X71120000Y-92710000D01*
X71120000Y-92710000D02*
X73660000Y-92710000D01*
X73660000Y-92710000D02*
X73660000Y-97790000D01*
X73660000Y-97790000D02*
X71120000Y-97790000D01*
X72390000Y-97790000D02*
X72390000Y-99060000D01*
X72390000Y-92710000D02*
X72390000Y-91440000D01*
X74930000Y-102870000D02*
X74930000Y-97790000D01*
X74930000Y-97790000D02*
X77470000Y-97790000D01*
X77470000Y-97790000D02*
X77470000Y-102870000D01*
X77470000Y-102870000D02*
X74930000Y-102870000D01*
X76200000Y-102870000D02*
X76200000Y-104140000D01*
X76200000Y-97790000D02*
X76200000Y-96520000D01*
X137125000Y-77005000D02*
X137270000Y-77005000D01*
X137125000Y-72855000D02*
X137270000Y-72855000D01*
X142275000Y-72855000D02*
X142130000Y-72855000D01*
X142275000Y-77005000D02*
X142130000Y-77005000D01*
X137125000Y-77005000D02*
X137125000Y-72855000D01*
X142275000Y-77005000D02*
X142275000Y-72855000D01*
X137270000Y-77005000D02*
X137270000Y-78405000D01*
X117305000Y-62195000D02*
X117305000Y-62340000D01*
X121455000Y-62195000D02*
X121455000Y-62340000D01*
X121455000Y-67345000D02*
X121455000Y-67200000D01*
X117305000Y-67345000D02*
X117305000Y-67200000D01*
X117305000Y-62195000D02*
X121455000Y-62195000D01*
X117305000Y-67345000D02*
X121455000Y-67345000D01*
X117305000Y-62340000D02*
X115905000Y-62340000D01*
X102065000Y-73625000D02*
X102065000Y-73770000D01*
X106215000Y-73625000D02*
X106215000Y-73770000D01*
X106215000Y-78775000D02*
X106215000Y-78630000D01*
X102065000Y-78775000D02*
X102065000Y-78630000D01*
X102065000Y-73625000D02*
X106215000Y-73625000D01*
X102065000Y-78775000D02*
X106215000Y-78775000D01*
X102065000Y-73770000D02*
X100665000Y-73770000D01*
X146965000Y-63855000D02*
X147190000Y-63855000D01*
X146965000Y-60605000D02*
X147190000Y-60605000D01*
X150215000Y-60605000D02*
X149990000Y-60605000D01*
X150215000Y-63855000D02*
X149990000Y-63855000D01*
X146965000Y-63855000D02*
X146965000Y-60605000D01*
X150215000Y-63855000D02*
X150215000Y-60605000D01*
X147190000Y-63855000D02*
X147190000Y-64930000D01*
X134845000Y-93915000D02*
X134510000Y-93915000D01*
X134845000Y-101665000D02*
X134510000Y-101665000D01*
X121695000Y-101665000D02*
X122030000Y-101665000D01*
X121695000Y-93915000D02*
X122030000Y-93915000D01*
X134845000Y-93915000D02*
X134845000Y-101665000D01*
X121695000Y-93915000D02*
X121695000Y-101665000D01*
X134510000Y-93915000D02*
X134510000Y-92115000D01*
X114765000Y-90135000D02*
X114765000Y-90280000D01*
X118915000Y-90135000D02*
X118915000Y-90280000D01*
X118915000Y-95285000D02*
X118915000Y-95140000D01*
X114765000Y-95285000D02*
X114765000Y-95140000D01*
X114765000Y-90135000D02*
X118915000Y-90135000D01*
X114765000Y-95285000D02*
X118915000Y-95285000D01*
X114765000Y-90280000D02*
X113365000Y-90280000D01*
X146890000Y-85930000D02*
X146890000Y-89330000D01*
X146892944Y-85932944D02*
G75*
G02X150990000Y-87630000I1697056J-1697056D01*
G01*
X146892944Y-89327056D02*
G75*
G03X150990000Y-87630000I1697056J1697056D01*
G01*
X157837143Y-86526666D02*
X157884762Y-86574285D01*
X157932381Y-86717142D01*
X157932381Y-86812380D01*
X157884762Y-86955238D01*
X157789524Y-87050476D01*
X157694286Y-87098095D01*
X157503810Y-87145714D01*
X157360952Y-87145714D01*
X157170476Y-87098095D01*
X157075238Y-87050476D01*
X156980000Y-86955238D01*
X156932381Y-86812380D01*
X156932381Y-86717142D01*
X156980000Y-86574285D01*
X157027619Y-86526666D01*
X157932381Y-85574285D02*
X157932381Y-86145714D01*
X157932381Y-85860000D02*
X156932381Y-85860000D01*
X157075238Y-85955238D01*
X157170476Y-86050476D01*
X157218095Y-86145714D01*
X159751069Y-80990392D02*
X159751069Y-80228487D01*
X160132021Y-80609439D02*
X159370116Y-80609439D01*
X103973334Y-68302143D02*
X103925715Y-68349762D01*
X103782858Y-68397381D01*
X103687620Y-68397381D01*
X103544762Y-68349762D01*
X103449524Y-68254524D01*
X103401905Y-68159286D01*
X103354286Y-67968810D01*
X103354286Y-67825952D01*
X103401905Y-67635476D01*
X103449524Y-67540238D01*
X103544762Y-67445000D01*
X103687620Y-67397381D01*
X103782858Y-67397381D01*
X103925715Y-67445000D01*
X103973334Y-67492619D01*
X104354286Y-67492619D02*
X104401905Y-67445000D01*
X104497143Y-67397381D01*
X104735239Y-67397381D01*
X104830477Y-67445000D01*
X104878096Y-67492619D01*
X104925715Y-67587857D01*
X104925715Y-67683095D01*
X104878096Y-67825952D01*
X104306667Y-68397381D01*
X104925715Y-68397381D01*
X136882143Y-104052666D02*
X136929762Y-104100285D01*
X136977381Y-104243142D01*
X136977381Y-104338380D01*
X136929762Y-104481238D01*
X136834524Y-104576476D01*
X136739286Y-104624095D01*
X136548810Y-104671714D01*
X136405952Y-104671714D01*
X136215476Y-104624095D01*
X136120238Y-104576476D01*
X136025000Y-104481238D01*
X135977381Y-104338380D01*
X135977381Y-104243142D01*
X136025000Y-104100285D01*
X136072619Y-104052666D01*
X135977381Y-103719333D02*
X135977381Y-103100285D01*
X136358333Y-103433619D01*
X136358333Y-103290761D01*
X136405952Y-103195523D01*
X136453571Y-103147904D01*
X136548810Y-103100285D01*
X136786905Y-103100285D01*
X136882143Y-103147904D01*
X136929762Y-103195523D01*
X136977381Y-103290761D01*
X136977381Y-103576476D01*
X136929762Y-103671714D01*
X136882143Y-103719333D01*
X136882143Y-96686666D02*
X136929762Y-96734285D01*
X136977381Y-96877142D01*
X136977381Y-96972380D01*
X136929762Y-97115238D01*
X136834524Y-97210476D01*
X136739286Y-97258095D01*
X136548810Y-97305714D01*
X136405952Y-97305714D01*
X136215476Y-97258095D01*
X136120238Y-97210476D01*
X136025000Y-97115238D01*
X135977381Y-96972380D01*
X135977381Y-96877142D01*
X136025000Y-96734285D01*
X136072619Y-96686666D01*
X136310714Y-95829523D02*
X136977381Y-95829523D01*
X135929762Y-96067619D02*
X136644048Y-96305714D01*
X136644048Y-95686666D01*
X141962143Y-62396666D02*
X142009762Y-62444285D01*
X142057381Y-62587142D01*
X142057381Y-62682380D01*
X142009762Y-62825238D01*
X141914524Y-62920476D01*
X141819286Y-62968095D01*
X141628810Y-63015714D01*
X141485952Y-63015714D01*
X141295476Y-62968095D01*
X141200238Y-62920476D01*
X141105000Y-62825238D01*
X141057381Y-62682380D01*
X141057381Y-62587142D01*
X141105000Y-62444285D01*
X141152619Y-62396666D01*
X141057381Y-61491904D02*
X141057381Y-61968095D01*
X141533571Y-62015714D01*
X141485952Y-61968095D01*
X141438333Y-61872857D01*
X141438333Y-61634761D01*
X141485952Y-61539523D01*
X141533571Y-61491904D01*
X141628810Y-61444285D01*
X141866905Y-61444285D01*
X141962143Y-61491904D01*
X142009762Y-61539523D01*
X142057381Y-61634761D01*
X142057381Y-61872857D01*
X142009762Y-61968095D01*
X141962143Y-62015714D01*
X136882143Y-62396666D02*
X136929762Y-62444285D01*
X136977381Y-62587142D01*
X136977381Y-62682380D01*
X136929762Y-62825238D01*
X136834524Y-62920476D01*
X136739286Y-62968095D01*
X136548810Y-63015714D01*
X136405952Y-63015714D01*
X136215476Y-62968095D01*
X136120238Y-62920476D01*
X136025000Y-62825238D01*
X135977381Y-62682380D01*
X135977381Y-62587142D01*
X136025000Y-62444285D01*
X136072619Y-62396666D01*
X135977381Y-61539523D02*
X135977381Y-61730000D01*
X136025000Y-61825238D01*
X136072619Y-61872857D01*
X136215476Y-61968095D01*
X136405952Y-62015714D01*
X136786905Y-62015714D01*
X136882143Y-61968095D01*
X136929762Y-61920476D01*
X136977381Y-61825238D01*
X136977381Y-61634761D01*
X136929762Y-61539523D01*
X136882143Y-61491904D01*
X136786905Y-61444285D01*
X136548810Y-61444285D01*
X136453571Y-61491904D01*
X136405952Y-61539523D01*
X136358333Y-61634761D01*
X136358333Y-61825238D01*
X136405952Y-61920476D01*
X136453571Y-61968095D01*
X136548810Y-62015714D01*
X140803334Y-67032143D02*
X140755715Y-67079762D01*
X140612858Y-67127381D01*
X140517620Y-67127381D01*
X140374762Y-67079762D01*
X140279524Y-66984524D01*
X140231905Y-66889286D01*
X140184286Y-66698810D01*
X140184286Y-66555952D01*
X140231905Y-66365476D01*
X140279524Y-66270238D01*
X140374762Y-66175000D01*
X140517620Y-66127381D01*
X140612858Y-66127381D01*
X140755715Y-66175000D01*
X140803334Y-66222619D01*
X141136667Y-66127381D02*
X141803334Y-66127381D01*
X141374762Y-67127381D01*
X129373334Y-62587143D02*
X129325715Y-62634762D01*
X129182858Y-62682381D01*
X129087620Y-62682381D01*
X128944762Y-62634762D01*
X128849524Y-62539524D01*
X128801905Y-62444286D01*
X128754286Y-62253810D01*
X128754286Y-62110952D01*
X128801905Y-61920476D01*
X128849524Y-61825238D01*
X128944762Y-61730000D01*
X129087620Y-61682381D01*
X129182858Y-61682381D01*
X129325715Y-61730000D01*
X129373334Y-61777619D01*
X129944762Y-62110952D02*
X129849524Y-62063333D01*
X129801905Y-62015714D01*
X129754286Y-61920476D01*
X129754286Y-61872857D01*
X129801905Y-61777619D01*
X129849524Y-61730000D01*
X129944762Y-61682381D01*
X130135239Y-61682381D01*
X130230477Y-61730000D01*
X130278096Y-61777619D01*
X130325715Y-61872857D01*
X130325715Y-61920476D01*
X130278096Y-62015714D01*
X130230477Y-62063333D01*
X130135239Y-62110952D01*
X129944762Y-62110952D01*
X129849524Y-62158571D01*
X129801905Y-62206190D01*
X129754286Y-62301429D01*
X129754286Y-62491905D01*
X129801905Y-62587143D01*
X129849524Y-62634762D01*
X129944762Y-62682381D01*
X130135239Y-62682381D01*
X130230477Y-62634762D01*
X130278096Y-62587143D01*
X130325715Y-62491905D01*
X130325715Y-62301429D01*
X130278096Y-62206190D01*
X130230477Y-62158571D01*
X130135239Y-62110952D01*
X134909608Y-61961069D02*
X135671513Y-61961069D01*
X135290561Y-62342021D02*
X135290561Y-61580116D01*
X143232143Y-75096666D02*
X143279762Y-75144285D01*
X143327381Y-75287142D01*
X143327381Y-75382380D01*
X143279762Y-75525238D01*
X143184524Y-75620476D01*
X143089286Y-75668095D01*
X142898810Y-75715714D01*
X142755952Y-75715714D01*
X142565476Y-75668095D01*
X142470238Y-75620476D01*
X142375000Y-75525238D01*
X142327381Y-75382380D01*
X142327381Y-75287142D01*
X142375000Y-75144285D01*
X142422619Y-75096666D01*
X143327381Y-74620476D02*
X143327381Y-74430000D01*
X143279762Y-74334761D01*
X143232143Y-74287142D01*
X143089286Y-74191904D01*
X142898810Y-74144285D01*
X142517857Y-74144285D01*
X142422619Y-74191904D01*
X142375000Y-74239523D01*
X142327381Y-74334761D01*
X142327381Y-74525238D01*
X142375000Y-74620476D01*
X142422619Y-74668095D01*
X142517857Y-74715714D01*
X142755952Y-74715714D01*
X142851190Y-74668095D01*
X142898810Y-74620476D01*
X142946429Y-74525238D01*
X142946429Y-74334761D01*
X142898810Y-74239523D01*
X142851190Y-74191904D01*
X142755952Y-74144285D01*
X95781905Y-60142381D02*
X95781905Y-59142381D01*
X96020000Y-59142381D01*
X96162858Y-59190000D01*
X96258096Y-59285238D01*
X96305715Y-59380476D01*
X96353334Y-59570952D01*
X96353334Y-59713810D01*
X96305715Y-59904286D01*
X96258096Y-59999524D01*
X96162858Y-60094762D01*
X96020000Y-60142381D01*
X95781905Y-60142381D01*
X97305715Y-60142381D02*
X96734286Y-60142381D01*
X97020000Y-60142381D02*
X97020000Y-59142381D01*
X96924762Y-59285238D01*
X96829524Y-59380476D01*
X96734286Y-59428095D01*
X72921905Y-65857381D02*
X72921905Y-64857381D01*
X73160000Y-64857381D01*
X73302858Y-64905000D01*
X73398096Y-65000238D01*
X73445715Y-65095476D01*
X73493334Y-65285952D01*
X73493334Y-65428810D01*
X73445715Y-65619286D01*
X73398096Y-65714524D01*
X73302858Y-65809762D01*
X73160000Y-65857381D01*
X72921905Y-65857381D01*
X73874286Y-64952619D02*
X73921905Y-64905000D01*
X74017143Y-64857381D01*
X74255239Y-64857381D01*
X74350477Y-64905000D01*
X74398096Y-64952619D01*
X74445715Y-65047857D01*
X74445715Y-65143095D01*
X74398096Y-65285952D01*
X73826667Y-65857381D01*
X74445715Y-65857381D01*
X73642381Y-59531905D02*
X72642381Y-59531905D01*
X73642381Y-58960476D02*
X73070952Y-59389048D01*
X72642381Y-58960476D02*
X73213810Y-59531905D01*
X127531905Y-77922381D02*
X127531905Y-76922381D01*
X127770000Y-76922381D01*
X127912858Y-76970000D01*
X128008096Y-77065238D01*
X128055715Y-77160476D01*
X128103334Y-77350952D01*
X128103334Y-77493810D01*
X128055715Y-77684286D01*
X128008096Y-77779524D01*
X127912858Y-77874762D01*
X127770000Y-77922381D01*
X127531905Y-77922381D01*
X128436667Y-76922381D02*
X129055715Y-76922381D01*
X128722381Y-77303333D01*
X128865239Y-77303333D01*
X128960477Y-77350952D01*
X129008096Y-77398571D01*
X129055715Y-77493810D01*
X129055715Y-77731905D01*
X129008096Y-77827143D01*
X128960477Y-77874762D01*
X128865239Y-77922381D01*
X128579524Y-77922381D01*
X128484286Y-77874762D01*
X128436667Y-77827143D01*
X95781905Y-70302381D02*
X95781905Y-69302381D01*
X96020000Y-69302381D01*
X96162858Y-69350000D01*
X96258096Y-69445238D01*
X96305715Y-69540476D01*
X96353334Y-69730952D01*
X96353334Y-69873810D01*
X96305715Y-70064286D01*
X96258096Y-70159524D01*
X96162858Y-70254762D01*
X96020000Y-70302381D01*
X95781905Y-70302381D01*
X97210477Y-69635714D02*
X97210477Y-70302381D01*
X96972381Y-69254762D02*
X96734286Y-69969048D01*
X97353334Y-69969048D01*
X95781905Y-80462381D02*
X95781905Y-79462381D01*
X96020000Y-79462381D01*
X96162858Y-79510000D01*
X96258096Y-79605238D01*
X96305715Y-79700476D01*
X96353334Y-79890952D01*
X96353334Y-80033810D01*
X96305715Y-80224286D01*
X96258096Y-80319524D01*
X96162858Y-80414762D01*
X96020000Y-80462381D01*
X95781905Y-80462381D01*
X97258096Y-79462381D02*
X96781905Y-79462381D01*
X96734286Y-79938571D01*
X96781905Y-79890952D01*
X96877143Y-79843333D01*
X97115239Y-79843333D01*
X97210477Y-79890952D01*
X97258096Y-79938571D01*
X97305715Y-80033810D01*
X97305715Y-80271905D01*
X97258096Y-80367143D01*
X97210477Y-80414762D01*
X97115239Y-80462381D01*
X96877143Y-80462381D01*
X96781905Y-80414762D01*
X96734286Y-80367143D01*
X95781905Y-90622381D02*
X95781905Y-89622381D01*
X96020000Y-89622381D01*
X96162858Y-89670000D01*
X96258096Y-89765238D01*
X96305715Y-89860476D01*
X96353334Y-90050952D01*
X96353334Y-90193810D01*
X96305715Y-90384286D01*
X96258096Y-90479524D01*
X96162858Y-90574762D01*
X96020000Y-90622381D01*
X95781905Y-90622381D01*
X97210477Y-89622381D02*
X97020000Y-89622381D01*
X96924762Y-89670000D01*
X96877143Y-89717619D01*
X96781905Y-89860476D01*
X96734286Y-90050952D01*
X96734286Y-90431905D01*
X96781905Y-90527143D01*
X96829524Y-90574762D01*
X96924762Y-90622381D01*
X97115239Y-90622381D01*
X97210477Y-90574762D01*
X97258096Y-90527143D01*
X97305715Y-90431905D01*
X97305715Y-90193810D01*
X97258096Y-90098571D01*
X97210477Y-90050952D01*
X97115239Y-90003333D01*
X96924762Y-90003333D01*
X96829524Y-90050952D01*
X96781905Y-90098571D01*
X96734286Y-90193810D01*
X95781905Y-100782381D02*
X95781905Y-99782381D01*
X96020000Y-99782381D01*
X96162858Y-99830000D01*
X96258096Y-99925238D01*
X96305715Y-100020476D01*
X96353334Y-100210952D01*
X96353334Y-100353810D01*
X96305715Y-100544286D01*
X96258096Y-100639524D01*
X96162858Y-100734762D01*
X96020000Y-100782381D01*
X95781905Y-100782381D01*
X96686667Y-99782381D02*
X97353334Y-99782381D01*
X96924762Y-100782381D01*
X79271905Y-61412381D02*
X79271905Y-60412381D01*
X79843334Y-61412381D02*
X79414762Y-60840952D01*
X79843334Y-60412381D02*
X79271905Y-60983810D01*
X80795715Y-61412381D02*
X80224286Y-61412381D01*
X80510000Y-61412381D02*
X80510000Y-60412381D01*
X80414762Y-60555238D01*
X80319524Y-60650476D01*
X80224286Y-60698095D01*
X122451905Y-89352381D02*
X122451905Y-88352381D01*
X123023334Y-89352381D02*
X122594762Y-88780952D01*
X123023334Y-88352381D02*
X122451905Y-88923810D01*
X123404286Y-88447619D02*
X123451905Y-88400000D01*
X123547143Y-88352381D01*
X123785239Y-88352381D01*
X123880477Y-88400000D01*
X123928096Y-88447619D01*
X123975715Y-88542857D01*
X123975715Y-88638095D01*
X123928096Y-88780952D01*
X123356667Y-89352381D01*
X123975715Y-89352381D01*
X79271905Y-71572381D02*
X79271905Y-70572381D01*
X79843334Y-71572381D02*
X79414762Y-71000952D01*
X79843334Y-70572381D02*
X79271905Y-71143810D01*
X80176667Y-70572381D02*
X80795715Y-70572381D01*
X80462381Y-70953333D01*
X80605239Y-70953333D01*
X80700477Y-71000952D01*
X80748096Y-71048571D01*
X80795715Y-71143810D01*
X80795715Y-71381905D01*
X80748096Y-71477143D01*
X80700477Y-71524762D01*
X80605239Y-71572381D01*
X80319524Y-71572381D01*
X80224286Y-71524762D01*
X80176667Y-71477143D01*
X79271905Y-81732381D02*
X79271905Y-80732381D01*
X79843334Y-81732381D02*
X79414762Y-81160952D01*
X79843334Y-80732381D02*
X79271905Y-81303810D01*
X80700477Y-81065714D02*
X80700477Y-81732381D01*
X80462381Y-80684762D02*
X80224286Y-81399048D01*
X80843334Y-81399048D01*
X79271905Y-91892381D02*
X79271905Y-90892381D01*
X79843334Y-91892381D02*
X79414762Y-91320952D01*
X79843334Y-90892381D02*
X79271905Y-91463810D01*
X80748096Y-90892381D02*
X80271905Y-90892381D01*
X80224286Y-91368571D01*
X80271905Y-91320952D01*
X80367143Y-91273333D01*
X80605239Y-91273333D01*
X80700477Y-91320952D01*
X80748096Y-91368571D01*
X80795715Y-91463810D01*
X80795715Y-91701905D01*
X80748096Y-91797143D01*
X80700477Y-91844762D01*
X80605239Y-91892381D01*
X80367143Y-91892381D01*
X80271905Y-91844762D01*
X80224286Y-91797143D01*
X79271905Y-102052381D02*
X79271905Y-101052381D01*
X79843334Y-102052381D02*
X79414762Y-101480952D01*
X79843334Y-101052381D02*
X79271905Y-101623810D01*
X80700477Y-101052381D02*
X80510000Y-101052381D01*
X80414762Y-101100000D01*
X80367143Y-101147619D01*
X80271905Y-101290476D01*
X80224286Y-101480952D01*
X80224286Y-101861905D01*
X80271905Y-101957143D01*
X80319524Y-102004762D01*
X80414762Y-102052381D01*
X80605239Y-102052381D01*
X80700477Y-102004762D01*
X80748096Y-101957143D01*
X80795715Y-101861905D01*
X80795715Y-101623810D01*
X80748096Y-101528571D01*
X80700477Y-101480952D01*
X80605239Y-101433333D01*
X80414762Y-101433333D01*
X80319524Y-101480952D01*
X80271905Y-101528571D01*
X80224286Y-101623810D01*
X152931905Y-92527381D02*
X152931905Y-91527381D01*
X153312858Y-91527381D01*
X153408096Y-91575000D01*
X153455715Y-91622619D01*
X153503334Y-91717857D01*
X153503334Y-91860714D01*
X153455715Y-91955952D01*
X153408096Y-92003571D01*
X153312858Y-92051190D01*
X152931905Y-92051190D01*
X154455715Y-92527381D02*
X153884286Y-92527381D01*
X154170000Y-92527381D02*
X154170000Y-91527381D01*
X154074762Y-91670238D01*
X153979524Y-91765476D01*
X153884286Y-91813095D01*
X102131905Y-62682381D02*
X102131905Y-61682381D01*
X102512858Y-61682381D01*
X102608096Y-61730000D01*
X102655715Y-61777619D01*
X102703334Y-61872857D01*
X102703334Y-62015714D01*
X102655715Y-62110952D01*
X102608096Y-62158571D01*
X102512858Y-62206190D01*
X102131905Y-62206190D01*
X103084286Y-61777619D02*
X103131905Y-61730000D01*
X103227143Y-61682381D01*
X103465239Y-61682381D01*
X103560477Y-61730000D01*
X103608096Y-61777619D01*
X103655715Y-61872857D01*
X103655715Y-61968095D01*
X103608096Y-62110952D01*
X103036667Y-62682381D01*
X103655715Y-62682381D01*
X118562381Y-107418095D02*
X117562381Y-107418095D01*
X117562381Y-107037142D01*
X117610000Y-106941904D01*
X117657619Y-106894285D01*
X117752857Y-106846666D01*
X117895714Y-106846666D01*
X117990952Y-106894285D01*
X118038571Y-106941904D01*
X118086190Y-107037142D01*
X118086190Y-107418095D01*
X117562381Y-106513333D02*
X117562381Y-105894285D01*
X117943333Y-106227619D01*
X117943333Y-106084761D01*
X117990952Y-105989523D01*
X118038571Y-105941904D01*
X118133810Y-105894285D01*
X118371905Y-105894285D01*
X118467143Y-105941904D01*
X118514762Y-105989523D01*
X118562381Y-106084761D01*
X118562381Y-106370476D01*
X118514762Y-106465714D01*
X118467143Y-106513333D01*
X148423334Y-81097381D02*
X148090000Y-80621190D01*
X147851905Y-81097381D02*
X147851905Y-80097381D01*
X148232858Y-80097381D01*
X148328096Y-80145000D01*
X148375715Y-80192619D01*
X148423334Y-80287857D01*
X148423334Y-80430714D01*
X148375715Y-80525952D01*
X148328096Y-80573571D01*
X148232858Y-80621190D01*
X147851905Y-80621190D01*
X149375715Y-81097381D02*
X148804286Y-81097381D01*
X149090000Y-81097381D02*
X149090000Y-80097381D01*
X148994762Y-80240238D01*
X148899524Y-80335476D01*
X148804286Y-80383095D01*
X138263334Y-81097381D02*
X137930000Y-80621190D01*
X137691905Y-81097381D02*
X137691905Y-80097381D01*
X138072858Y-80097381D01*
X138168096Y-80145000D01*
X138215715Y-80192619D01*
X138263334Y-80287857D01*
X138263334Y-80430714D01*
X138215715Y-80525952D01*
X138168096Y-80573571D01*
X138072858Y-80621190D01*
X137691905Y-80621190D01*
X138644286Y-80192619D02*
X138691905Y-80145000D01*
X138787143Y-80097381D01*
X139025239Y-80097381D01*
X139120477Y-80145000D01*
X139168096Y-80192619D01*
X139215715Y-80287857D01*
X139215715Y-80383095D01*
X139168096Y-80525952D01*
X138596667Y-81097381D01*
X139215715Y-81097381D01*
X147137381Y-73826666D02*
X146661190Y-74160000D01*
X147137381Y-74398095D02*
X146137381Y-74398095D01*
X146137381Y-74017142D01*
X146185000Y-73921904D01*
X146232619Y-73874285D01*
X146327857Y-73826666D01*
X146470714Y-73826666D01*
X146565952Y-73874285D01*
X146613571Y-73921904D01*
X146661190Y-74017142D01*
X146661190Y-74398095D01*
X146137381Y-73493333D02*
X146137381Y-72874285D01*
X146518333Y-73207619D01*
X146518333Y-73064761D01*
X146565952Y-72969523D01*
X146613571Y-72921904D01*
X146708810Y-72874285D01*
X146946905Y-72874285D01*
X147042143Y-72921904D01*
X147089762Y-72969523D01*
X147137381Y-73064761D01*
X147137381Y-73350476D01*
X147089762Y-73445714D01*
X147042143Y-73493333D01*
X150947381Y-73826666D02*
X150471190Y-74160000D01*
X150947381Y-74398095D02*
X149947381Y-74398095D01*
X149947381Y-74017142D01*
X149995000Y-73921904D01*
X150042619Y-73874285D01*
X150137857Y-73826666D01*
X150280714Y-73826666D01*
X150375952Y-73874285D01*
X150423571Y-73921904D01*
X150471190Y-74017142D01*
X150471190Y-74398095D01*
X150280714Y-72969523D02*
X150947381Y-72969523D01*
X149899762Y-73207619D02*
X150614048Y-73445714D01*
X150614048Y-72826666D01*
X154757381Y-73826666D02*
X154281190Y-74160000D01*
X154757381Y-74398095D02*
X153757381Y-74398095D01*
X153757381Y-74017142D01*
X153805000Y-73921904D01*
X153852619Y-73874285D01*
X153947857Y-73826666D01*
X154090714Y-73826666D01*
X154185952Y-73874285D01*
X154233571Y-73921904D01*
X154281190Y-74017142D01*
X154281190Y-74398095D01*
X153757381Y-72921904D02*
X153757381Y-73398095D01*
X154233571Y-73445714D01*
X154185952Y-73398095D01*
X154138333Y-73302857D01*
X154138333Y-73064761D01*
X154185952Y-72969523D01*
X154233571Y-72921904D01*
X154328810Y-72874285D01*
X154566905Y-72874285D01*
X154662143Y-72921904D01*
X154709762Y-72969523D01*
X154757381Y-73064761D01*
X154757381Y-73302857D01*
X154709762Y-73398095D01*
X154662143Y-73445714D01*
X116657381Y-104306666D02*
X116181190Y-104640000D01*
X116657381Y-104878095D02*
X115657381Y-104878095D01*
X115657381Y-104497142D01*
X115705000Y-104401904D01*
X115752619Y-104354285D01*
X115847857Y-104306666D01*
X115990714Y-104306666D01*
X116085952Y-104354285D01*
X116133571Y-104401904D01*
X116181190Y-104497142D01*
X116181190Y-104878095D01*
X115657381Y-103449523D02*
X115657381Y-103640000D01*
X115705000Y-103735238D01*
X115752619Y-103782857D01*
X115895476Y-103878095D01*
X116085952Y-103925714D01*
X116466905Y-103925714D01*
X116562143Y-103878095D01*
X116609762Y-103830476D01*
X116657381Y-103735238D01*
X116657381Y-103544761D01*
X116609762Y-103449523D01*
X116562143Y-103401904D01*
X116466905Y-103354285D01*
X116228810Y-103354285D01*
X116133571Y-103401904D01*
X116085952Y-103449523D01*
X116038333Y-103544761D01*
X116038333Y-103735238D01*
X116085952Y-103830476D01*
X116133571Y-103878095D01*
X116228810Y-103925714D01*
X116657381Y-100496666D02*
X116181190Y-100830000D01*
X116657381Y-101068095D02*
X115657381Y-101068095D01*
X115657381Y-100687142D01*
X115705000Y-100591904D01*
X115752619Y-100544285D01*
X115847857Y-100496666D01*
X115990714Y-100496666D01*
X116085952Y-100544285D01*
X116133571Y-100591904D01*
X116181190Y-100687142D01*
X116181190Y-101068095D01*
X115657381Y-100163333D02*
X115657381Y-99496666D01*
X116657381Y-99925238D01*
X156027381Y-62396666D02*
X155551190Y-62730000D01*
X156027381Y-62968095D02*
X155027381Y-62968095D01*
X155027381Y-62587142D01*
X155075000Y-62491904D01*
X155122619Y-62444285D01*
X155217857Y-62396666D01*
X155360714Y-62396666D01*
X155455952Y-62444285D01*
X155503571Y-62491904D01*
X155551190Y-62587142D01*
X155551190Y-62968095D01*
X155455952Y-61825238D02*
X155408333Y-61920476D01*
X155360714Y-61968095D01*
X155265476Y-62015714D01*
X155217857Y-62015714D01*
X155122619Y-61968095D01*
X155075000Y-61920476D01*
X155027381Y-61825238D01*
X155027381Y-61634761D01*
X155075000Y-61539523D01*
X155122619Y-61491904D01*
X155217857Y-61444285D01*
X155265476Y-61444285D01*
X155360714Y-61491904D01*
X155408333Y-61539523D01*
X155455952Y-61634761D01*
X155455952Y-61825238D01*
X155503571Y-61920476D01*
X155551190Y-61968095D01*
X155646429Y-62015714D01*
X155836905Y-62015714D01*
X155932143Y-61968095D01*
X155979762Y-61920476D01*
X156027381Y-61825238D01*
X156027381Y-61634761D01*
X155979762Y-61539523D01*
X155932143Y-61491904D01*
X155836905Y-61444285D01*
X155646429Y-61444285D01*
X155551190Y-61491904D01*
X155503571Y-61539523D01*
X155455952Y-61634761D01*
X131897381Y-70016666D02*
X131421190Y-70350000D01*
X131897381Y-70588095D02*
X130897381Y-70588095D01*
X130897381Y-70207142D01*
X130945000Y-70111904D01*
X130992619Y-70064285D01*
X131087857Y-70016666D01*
X131230714Y-70016666D01*
X131325952Y-70064285D01*
X131373571Y-70111904D01*
X131421190Y-70207142D01*
X131421190Y-70588095D01*
X131897381Y-69540476D02*
X131897381Y-69350000D01*
X131849762Y-69254761D01*
X131802143Y-69207142D01*
X131659286Y-69111904D01*
X131468810Y-69064285D01*
X131087857Y-69064285D01*
X130992619Y-69111904D01*
X130945000Y-69159523D01*
X130897381Y-69254761D01*
X130897381Y-69445238D01*
X130945000Y-69540476D01*
X130992619Y-69588095D01*
X131087857Y-69635714D01*
X131325952Y-69635714D01*
X131421190Y-69588095D01*
X131468810Y-69540476D01*
X131516429Y-69445238D01*
X131516429Y-69254761D01*
X131468810Y-69159523D01*
X131421190Y-69111904D01*
X131325952Y-69064285D01*
X126817381Y-70492857D02*
X126341190Y-70826191D01*
X126817381Y-71064286D02*
X125817381Y-71064286D01*
X125817381Y-70683333D01*
X125865000Y-70588095D01*
X125912619Y-70540476D01*
X126007857Y-70492857D01*
X126150714Y-70492857D01*
X126245952Y-70540476D01*
X126293571Y-70588095D01*
X126341190Y-70683333D01*
X126341190Y-71064286D01*
X126817381Y-69540476D02*
X126817381Y-70111905D01*
X126817381Y-69826191D02*
X125817381Y-69826191D01*
X125960238Y-69921429D01*
X126055476Y-70016667D01*
X126103095Y-70111905D01*
X125817381Y-68921429D02*
X125817381Y-68826190D01*
X125865000Y-68730952D01*
X125912619Y-68683333D01*
X126007857Y-68635714D01*
X126198333Y-68588095D01*
X126436429Y-68588095D01*
X126626905Y-68635714D01*
X126722143Y-68683333D01*
X126769762Y-68730952D01*
X126817381Y-68826190D01*
X126817381Y-68921429D01*
X126769762Y-69016667D01*
X126722143Y-69064286D01*
X126626905Y-69111905D01*
X126436429Y-69159524D01*
X126198333Y-69159524D01*
X126007857Y-69111905D01*
X125912619Y-69064286D01*
X125865000Y-69016667D01*
X125817381Y-68921429D01*
X107307143Y-64587381D02*
X106973809Y-64111190D01*
X106735714Y-64587381D02*
X106735714Y-63587381D01*
X107116667Y-63587381D01*
X107211905Y-63635000D01*
X107259524Y-63682619D01*
X107307143Y-63777857D01*
X107307143Y-63920714D01*
X107259524Y-64015952D01*
X107211905Y-64063571D01*
X107116667Y-64111190D01*
X106735714Y-64111190D01*
X108259524Y-64587381D02*
X107688095Y-64587381D01*
X107973809Y-64587381D02*
X107973809Y-63587381D01*
X107878571Y-63730238D01*
X107783333Y-63825476D01*
X107688095Y-63873095D01*
X109211905Y-64587381D02*
X108640476Y-64587381D01*
X108926190Y-64587381D02*
X108926190Y-63587381D01*
X108830952Y-63730238D01*
X108735714Y-63825476D01*
X108640476Y-63873095D01*
X109037381Y-102242857D02*
X108561190Y-102576191D01*
X109037381Y-102814286D02*
X108037381Y-102814286D01*
X108037381Y-102433333D01*
X108085000Y-102338095D01*
X108132619Y-102290476D01*
X108227857Y-102242857D01*
X108370714Y-102242857D01*
X108465952Y-102290476D01*
X108513571Y-102338095D01*
X108561190Y-102433333D01*
X108561190Y-102814286D01*
X109037381Y-101290476D02*
X109037381Y-101861905D01*
X109037381Y-101576191D02*
X108037381Y-101576191D01*
X108180238Y-101671429D01*
X108275476Y-101766667D01*
X108323095Y-101861905D01*
X108132619Y-100909524D02*
X108085000Y-100861905D01*
X108037381Y-100766667D01*
X108037381Y-100528571D01*
X108085000Y-100433333D01*
X108132619Y-100385714D01*
X108227857Y-100338095D01*
X108323095Y-100338095D01*
X108465952Y-100385714D01*
X109037381Y-100957143D01*
X109037381Y-100338095D01*
X109037381Y-89542857D02*
X108561190Y-89876191D01*
X109037381Y-90114286D02*
X108037381Y-90114286D01*
X108037381Y-89733333D01*
X108085000Y-89638095D01*
X108132619Y-89590476D01*
X108227857Y-89542857D01*
X108370714Y-89542857D01*
X108465952Y-89590476D01*
X108513571Y-89638095D01*
X108561190Y-89733333D01*
X108561190Y-90114286D01*
X109037381Y-88590476D02*
X109037381Y-89161905D01*
X109037381Y-88876191D02*
X108037381Y-88876191D01*
X108180238Y-88971429D01*
X108275476Y-89066667D01*
X108323095Y-89161905D01*
X108037381Y-88257143D02*
X108037381Y-87638095D01*
X108418333Y-87971429D01*
X108418333Y-87828571D01*
X108465952Y-87733333D01*
X108513571Y-87685714D01*
X108608810Y-87638095D01*
X108846905Y-87638095D01*
X108942143Y-87685714D01*
X108989762Y-87733333D01*
X109037381Y-87828571D01*
X109037381Y-88114286D01*
X108989762Y-88209524D01*
X108942143Y-88257143D01*
X102687381Y-89034857D02*
X102211190Y-89368191D01*
X102687381Y-89606286D02*
X101687381Y-89606286D01*
X101687381Y-89225333D01*
X101735000Y-89130095D01*
X101782619Y-89082476D01*
X101877857Y-89034857D01*
X102020714Y-89034857D01*
X102115952Y-89082476D01*
X102163571Y-89130095D01*
X102211190Y-89225333D01*
X102211190Y-89606286D01*
X102687381Y-88082476D02*
X102687381Y-88653905D01*
X102687381Y-88368191D02*
X101687381Y-88368191D01*
X101830238Y-88463429D01*
X101925476Y-88558667D01*
X101973095Y-88653905D01*
X102020714Y-87225333D02*
X102687381Y-87225333D01*
X101639762Y-87463429D02*
X102354048Y-87701524D01*
X102354048Y-87082476D01*
X109037381Y-76842857D02*
X108561190Y-77176191D01*
X109037381Y-77414286D02*
X108037381Y-77414286D01*
X108037381Y-77033333D01*
X108085000Y-76938095D01*
X108132619Y-76890476D01*
X108227857Y-76842857D01*
X108370714Y-76842857D01*
X108465952Y-76890476D01*
X108513571Y-76938095D01*
X108561190Y-77033333D01*
X108561190Y-77414286D01*
X109037381Y-75890476D02*
X109037381Y-76461905D01*
X109037381Y-76176191D02*
X108037381Y-76176191D01*
X108180238Y-76271429D01*
X108275476Y-76366667D01*
X108323095Y-76461905D01*
X108037381Y-74985714D02*
X108037381Y-75461905D01*
X108513571Y-75509524D01*
X108465952Y-75461905D01*
X108418333Y-75366667D01*
X108418333Y-75128571D01*
X108465952Y-75033333D01*
X108513571Y-74985714D01*
X108608810Y-74938095D01*
X108846905Y-74938095D01*
X108942143Y-74985714D01*
X108989762Y-75033333D01*
X109037381Y-75128571D01*
X109037381Y-75366667D01*
X108989762Y-75461905D01*
X108942143Y-75509524D01*
X102687381Y-102242857D02*
X102211190Y-102576191D01*
X102687381Y-102814286D02*
X101687381Y-102814286D01*
X101687381Y-102433333D01*
X101735000Y-102338095D01*
X101782619Y-102290476D01*
X101877857Y-102242857D01*
X102020714Y-102242857D01*
X102115952Y-102290476D01*
X102163571Y-102338095D01*
X102211190Y-102433333D01*
X102211190Y-102814286D01*
X102687381Y-101290476D02*
X102687381Y-101861905D01*
X102687381Y-101576191D02*
X101687381Y-101576191D01*
X101830238Y-101671429D01*
X101925476Y-101766667D01*
X101973095Y-101861905D01*
X101687381Y-100433333D02*
X101687381Y-100623810D01*
X101735000Y-100719048D01*
X101782619Y-100766667D01*
X101925476Y-100861905D01*
X102115952Y-100909524D01*
X102496905Y-100909524D01*
X102592143Y-100861905D01*
X102639762Y-100814286D01*
X102687381Y-100719048D01*
X102687381Y-100528571D01*
X102639762Y-100433333D01*
X102592143Y-100385714D01*
X102496905Y-100338095D01*
X102258810Y-100338095D01*
X102163571Y-100385714D01*
X102115952Y-100433333D01*
X102068333Y-100528571D01*
X102068333Y-100719048D01*
X102115952Y-100814286D01*
X102163571Y-100861905D01*
X102258810Y-100909524D01*
X111371143Y-62682381D02*
X111037809Y-62206190D01*
X110799714Y-62682381D02*
X110799714Y-61682381D01*
X111180667Y-61682381D01*
X111275905Y-61730000D01*
X111323524Y-61777619D01*
X111371143Y-61872857D01*
X111371143Y-62015714D01*
X111323524Y-62110952D01*
X111275905Y-62158571D01*
X111180667Y-62206190D01*
X110799714Y-62206190D01*
X112323524Y-62682381D02*
X111752095Y-62682381D01*
X112037809Y-62682381D02*
X112037809Y-61682381D01*
X111942571Y-61825238D01*
X111847333Y-61920476D01*
X111752095Y-61968095D01*
X112656857Y-61682381D02*
X113323524Y-61682381D01*
X112894952Y-62682381D01*
X74747381Y-70492857D02*
X74271190Y-70826191D01*
X74747381Y-71064286D02*
X73747381Y-71064286D01*
X73747381Y-70683333D01*
X73795000Y-70588095D01*
X73842619Y-70540476D01*
X73937857Y-70492857D01*
X74080714Y-70492857D01*
X74175952Y-70540476D01*
X74223571Y-70588095D01*
X74271190Y-70683333D01*
X74271190Y-71064286D01*
X74747381Y-69540476D02*
X74747381Y-70111905D01*
X74747381Y-69826191D02*
X73747381Y-69826191D01*
X73890238Y-69921429D01*
X73985476Y-70016667D01*
X74033095Y-70111905D01*
X74175952Y-68969048D02*
X74128333Y-69064286D01*
X74080714Y-69111905D01*
X73985476Y-69159524D01*
X73937857Y-69159524D01*
X73842619Y-69111905D01*
X73795000Y-69064286D01*
X73747381Y-68969048D01*
X73747381Y-68778571D01*
X73795000Y-68683333D01*
X73842619Y-68635714D01*
X73937857Y-68588095D01*
X73985476Y-68588095D01*
X74080714Y-68635714D01*
X74128333Y-68683333D01*
X74175952Y-68778571D01*
X74175952Y-68969048D01*
X74223571Y-69064286D01*
X74271190Y-69111905D01*
X74366429Y-69159524D01*
X74556905Y-69159524D01*
X74652143Y-69111905D01*
X74699762Y-69064286D01*
X74747381Y-68969048D01*
X74747381Y-68778571D01*
X74699762Y-68683333D01*
X74652143Y-68635714D01*
X74556905Y-68588095D01*
X74366429Y-68588095D01*
X74271190Y-68635714D01*
X74223571Y-68683333D01*
X74175952Y-68778571D01*
X131897381Y-87002857D02*
X131421190Y-87336191D01*
X131897381Y-87574286D02*
X130897381Y-87574286D01*
X130897381Y-87193333D01*
X130945000Y-87098095D01*
X130992619Y-87050476D01*
X131087857Y-87002857D01*
X131230714Y-87002857D01*
X131325952Y-87050476D01*
X131373571Y-87098095D01*
X131421190Y-87193333D01*
X131421190Y-87574286D01*
X131897381Y-86050476D02*
X131897381Y-86621905D01*
X131897381Y-86336191D02*
X130897381Y-86336191D01*
X131040238Y-86431429D01*
X131135476Y-86526667D01*
X131183095Y-86621905D01*
X131897381Y-85574286D02*
X131897381Y-85383810D01*
X131849762Y-85288571D01*
X131802143Y-85240952D01*
X131659286Y-85145714D01*
X131468810Y-85098095D01*
X131087857Y-85098095D01*
X130992619Y-85145714D01*
X130945000Y-85193333D01*
X130897381Y-85288571D01*
X130897381Y-85479048D01*
X130945000Y-85574286D01*
X130992619Y-85621905D01*
X131087857Y-85669524D01*
X131325952Y-85669524D01*
X131421190Y-85621905D01*
X131468810Y-85574286D01*
X131516429Y-85479048D01*
X131516429Y-85288571D01*
X131468810Y-85193333D01*
X131421190Y-85145714D01*
X131325952Y-85098095D01*
X126817381Y-87002857D02*
X126341190Y-87336191D01*
X126817381Y-87574286D02*
X125817381Y-87574286D01*
X125817381Y-87193333D01*
X125865000Y-87098095D01*
X125912619Y-87050476D01*
X126007857Y-87002857D01*
X126150714Y-87002857D01*
X126245952Y-87050476D01*
X126293571Y-87098095D01*
X126341190Y-87193333D01*
X126341190Y-87574286D01*
X125912619Y-86621905D02*
X125865000Y-86574286D01*
X125817381Y-86479048D01*
X125817381Y-86240952D01*
X125865000Y-86145714D01*
X125912619Y-86098095D01*
X126007857Y-86050476D01*
X126103095Y-86050476D01*
X126245952Y-86098095D01*
X126817381Y-86669524D01*
X126817381Y-86050476D01*
X125817381Y-85431429D02*
X125817381Y-85336190D01*
X125865000Y-85240952D01*
X125912619Y-85193333D01*
X126007857Y-85145714D01*
X126198333Y-85098095D01*
X126436429Y-85098095D01*
X126626905Y-85145714D01*
X126722143Y-85193333D01*
X126769762Y-85240952D01*
X126817381Y-85336190D01*
X126817381Y-85431429D01*
X126769762Y-85526667D01*
X126722143Y-85574286D01*
X126626905Y-85621905D01*
X126436429Y-85669524D01*
X126198333Y-85669524D01*
X126007857Y-85621905D01*
X125912619Y-85574286D01*
X125865000Y-85526667D01*
X125817381Y-85431429D01*
X74747381Y-80652857D02*
X74271190Y-80986191D01*
X74747381Y-81224286D02*
X73747381Y-81224286D01*
X73747381Y-80843333D01*
X73795000Y-80748095D01*
X73842619Y-80700476D01*
X73937857Y-80652857D01*
X74080714Y-80652857D01*
X74175952Y-80700476D01*
X74223571Y-80748095D01*
X74271190Y-80843333D01*
X74271190Y-81224286D01*
X73842619Y-80271905D02*
X73795000Y-80224286D01*
X73747381Y-80129048D01*
X73747381Y-79890952D01*
X73795000Y-79795714D01*
X73842619Y-79748095D01*
X73937857Y-79700476D01*
X74033095Y-79700476D01*
X74175952Y-79748095D01*
X74747381Y-80319524D01*
X74747381Y-79700476D01*
X74747381Y-78748095D02*
X74747381Y-79319524D01*
X74747381Y-79033810D02*
X73747381Y-79033810D01*
X73890238Y-79129048D01*
X73985476Y-79224286D01*
X74033095Y-79319524D01*
X74747381Y-85732857D02*
X74271190Y-86066191D01*
X74747381Y-86304286D02*
X73747381Y-86304286D01*
X73747381Y-85923333D01*
X73795000Y-85828095D01*
X73842619Y-85780476D01*
X73937857Y-85732857D01*
X74080714Y-85732857D01*
X74175952Y-85780476D01*
X74223571Y-85828095D01*
X74271190Y-85923333D01*
X74271190Y-86304286D01*
X73842619Y-85351905D02*
X73795000Y-85304286D01*
X73747381Y-85209048D01*
X73747381Y-84970952D01*
X73795000Y-84875714D01*
X73842619Y-84828095D01*
X73937857Y-84780476D01*
X74033095Y-84780476D01*
X74175952Y-84828095D01*
X74747381Y-85399524D01*
X74747381Y-84780476D01*
X73842619Y-84399524D02*
X73795000Y-84351905D01*
X73747381Y-84256667D01*
X73747381Y-84018571D01*
X73795000Y-83923333D01*
X73842619Y-83875714D01*
X73937857Y-83828095D01*
X74033095Y-83828095D01*
X74175952Y-83875714D01*
X74747381Y-84447143D01*
X74747381Y-83828095D01*
X74747381Y-95892857D02*
X74271190Y-96226191D01*
X74747381Y-96464286D02*
X73747381Y-96464286D01*
X73747381Y-96083333D01*
X73795000Y-95988095D01*
X73842619Y-95940476D01*
X73937857Y-95892857D01*
X74080714Y-95892857D01*
X74175952Y-95940476D01*
X74223571Y-95988095D01*
X74271190Y-96083333D01*
X74271190Y-96464286D01*
X73842619Y-95511905D02*
X73795000Y-95464286D01*
X73747381Y-95369048D01*
X73747381Y-95130952D01*
X73795000Y-95035714D01*
X73842619Y-94988095D01*
X73937857Y-94940476D01*
X74033095Y-94940476D01*
X74175952Y-94988095D01*
X74747381Y-95559524D01*
X74747381Y-94940476D01*
X73747381Y-94607143D02*
X73747381Y-93988095D01*
X74128333Y-94321429D01*
X74128333Y-94178571D01*
X74175952Y-94083333D01*
X74223571Y-94035714D01*
X74318810Y-93988095D01*
X74556905Y-93988095D01*
X74652143Y-94035714D01*
X74699762Y-94083333D01*
X74747381Y-94178571D01*
X74747381Y-94464286D01*
X74699762Y-94559524D01*
X74652143Y-94607143D01*
X74747381Y-100972857D02*
X74271190Y-101306191D01*
X74747381Y-101544286D02*
X73747381Y-101544286D01*
X73747381Y-101163333D01*
X73795000Y-101068095D01*
X73842619Y-101020476D01*
X73937857Y-100972857D01*
X74080714Y-100972857D01*
X74175952Y-101020476D01*
X74223571Y-101068095D01*
X74271190Y-101163333D01*
X74271190Y-101544286D01*
X73842619Y-100591905D02*
X73795000Y-100544286D01*
X73747381Y-100449048D01*
X73747381Y-100210952D01*
X73795000Y-100115714D01*
X73842619Y-100068095D01*
X73937857Y-100020476D01*
X74033095Y-100020476D01*
X74175952Y-100068095D01*
X74747381Y-100639524D01*
X74747381Y-100020476D01*
X74080714Y-99163333D02*
X74747381Y-99163333D01*
X73699762Y-99401429D02*
X74414048Y-99639524D01*
X74414048Y-99020476D01*
X135342381Y-78231905D02*
X136151905Y-78231905D01*
X136247143Y-78184286D01*
X136294762Y-78136667D01*
X136342381Y-78041429D01*
X136342381Y-77850952D01*
X136294762Y-77755714D01*
X136247143Y-77708095D01*
X136151905Y-77660476D01*
X135342381Y-77660476D01*
X136342381Y-76660476D02*
X136342381Y-77231905D01*
X136342381Y-76946191D02*
X135342381Y-76946191D01*
X135485238Y-77041429D01*
X135580476Y-77136667D01*
X135628095Y-77231905D01*
X123698095Y-62317381D02*
X123698095Y-63126905D01*
X123745714Y-63222143D01*
X123793333Y-63269762D01*
X123888571Y-63317381D01*
X124079048Y-63317381D01*
X124174286Y-63269762D01*
X124221905Y-63222143D01*
X124269524Y-63126905D01*
X124269524Y-62317381D01*
X124698095Y-62412619D02*
X124745714Y-62365000D01*
X124840952Y-62317381D01*
X125079048Y-62317381D01*
X125174286Y-62365000D01*
X125221905Y-62412619D01*
X125269524Y-62507857D01*
X125269524Y-62603095D01*
X125221905Y-62745952D01*
X124650476Y-63317381D01*
X125269524Y-63317381D01*
X103378095Y-71842381D02*
X103378095Y-72651905D01*
X103425714Y-72747143D01*
X103473333Y-72794762D01*
X103568571Y-72842381D01*
X103759048Y-72842381D01*
X103854286Y-72794762D01*
X103901905Y-72747143D01*
X103949524Y-72651905D01*
X103949524Y-71842381D01*
X104330476Y-71842381D02*
X104949524Y-71842381D01*
X104616190Y-72223333D01*
X104759048Y-72223333D01*
X104854286Y-72270952D01*
X104901905Y-72318571D01*
X104949524Y-72413810D01*
X104949524Y-72651905D01*
X104901905Y-72747143D01*
X104854286Y-72794762D01*
X104759048Y-72842381D01*
X104473333Y-72842381D01*
X104378095Y-72794762D01*
X104330476Y-72747143D01*
X148042381Y-62991905D02*
X148851905Y-62991905D01*
X148947143Y-62944286D01*
X148994762Y-62896667D01*
X149042381Y-62801429D01*
X149042381Y-62610952D01*
X148994762Y-62515714D01*
X148947143Y-62468095D01*
X148851905Y-62420476D01*
X148042381Y-62420476D01*
X148042381Y-61515714D02*
X148042381Y-61706191D01*
X148090000Y-61801429D01*
X148137619Y-61849048D01*
X148280476Y-61944286D01*
X148470952Y-61991905D01*
X148851905Y-61991905D01*
X148947143Y-61944286D01*
X148994762Y-61896667D01*
X149042381Y-61801429D01*
X149042381Y-61610952D01*
X148994762Y-61515714D01*
X148947143Y-61468095D01*
X148851905Y-61420476D01*
X148613810Y-61420476D01*
X148518571Y-61468095D01*
X148470952Y-61515714D01*
X148423333Y-61610952D01*
X148423333Y-61801429D01*
X148470952Y-61896667D01*
X148518571Y-61944286D01*
X148613810Y-61991905D01*
X127508095Y-97242381D02*
X127508095Y-98051905D01*
X127555714Y-98147143D01*
X127603333Y-98194762D01*
X127698571Y-98242381D01*
X127889048Y-98242381D01*
X127984286Y-98194762D01*
X128031905Y-98147143D01*
X128079524Y-98051905D01*
X128079524Y-97242381D01*
X128460476Y-97242381D02*
X129127143Y-97242381D01*
X128698571Y-98242381D01*
X116078095Y-92162381D02*
X116078095Y-92971905D01*
X116125714Y-93067143D01*
X116173333Y-93114762D01*
X116268571Y-93162381D01*
X116459048Y-93162381D01*
X116554286Y-93114762D01*
X116601905Y-93067143D01*
X116649524Y-92971905D01*
X116649524Y-92162381D01*
X117268571Y-92590952D02*
X117173333Y-92543333D01*
X117125714Y-92495714D01*
X117078095Y-92400476D01*
X117078095Y-92352857D01*
X117125714Y-92257619D01*
X117173333Y-92210000D01*
X117268571Y-92162381D01*
X117459048Y-92162381D01*
X117554286Y-92210000D01*
X117601905Y-92257619D01*
X117649524Y-92352857D01*
X117649524Y-92400476D01*
X117601905Y-92495714D01*
X117554286Y-92543333D01*
X117459048Y-92590952D01*
X117268571Y-92590952D01*
X117173333Y-92638571D01*
X117125714Y-92686190D01*
X117078095Y-92781429D01*
X117078095Y-92971905D01*
X117125714Y-93067143D01*
X117173333Y-93114762D01*
X117268571Y-93162381D01*
X117459048Y-93162381D01*
X117554286Y-93114762D01*
X117601905Y-93067143D01*
X117649524Y-92971905D01*
X117649524Y-92781429D01*
X117601905Y-92686190D01*
X117554286Y-92638571D01*
X117459048Y-92590952D01*
X145502381Y-88391905D02*
X146311905Y-88391905D01*
X146407143Y-88344286D01*
X146454762Y-88296667D01*
X146502381Y-88201429D01*
X146502381Y-88010952D01*
X146454762Y-87915714D01*
X146407143Y-87868095D01*
X146311905Y-87820476D01*
X145502381Y-87820476D01*
X146502381Y-87296667D02*
X146502381Y-87106191D01*
X146454762Y-87010952D01*
X146407143Y-86963333D01*
X146264286Y-86868095D01*
X146073810Y-86820476D01*
X145692857Y-86820476D01*
X145597619Y-86868095D01*
X145550000Y-86915714D01*
X145502381Y-87010952D01*
X145502381Y-87201429D01*
X145550000Y-87296667D01*
X145597619Y-87344286D01*
X145692857Y-87391905D01*
X145930952Y-87391905D01*
X146026190Y-87344286D01*
X146073810Y-87296667D01*
X146121429Y-87201429D01*
X146121429Y-87010952D01*
X146073810Y-86915714D01*
X146026190Y-86868095D01*
X145930952Y-86820476D01*
M02*
